M48
INCH,TZ
T1C0.0118
T2C0.0394
T3C0.1693
%
G90
G05
T1
X-2232Y-4191
X-2200Y-12150
X-1650Y-12150
X-1233Y-4783
X-950Y-12150
X-107Y-7697
X-107Y-7972
X-107Y-8248
X-107Y-8524
X-107Y-8799
X-107Y-9075
X-107Y-9350
X169Y-7697
X169Y-7972
X169Y-8248
X169Y-8524
X169Y-8799
X169Y-9075
X169Y-9350
X267Y-4783
X267Y-11476
X444Y-7697
X444Y-7972
X444Y-8248
X444Y-8524
X444Y-8799
X444Y-9075
X444Y-9350
X550Y-14000
X550Y-14650
X650Y-13350
X720Y-7697
X720Y-7972
X720Y-8248
X720Y-8524
X720Y-8799
X720Y-9075
X720Y-9350
X767Y-11476
X995Y-7697
X995Y-7972
X995Y-8248
X995Y-8524
X995Y-8799
X995Y-9075
X995Y-9350
X1271Y-7697
X1271Y-7972
X1271Y-8248
X1271Y-8524
X1271Y-8799
X1271Y-9075
X1271Y-9350
X1515Y-12255
X1546Y-7697
X1546Y-7972
X1546Y-8248
X1546Y-8524
X1546Y-8799
X1546Y-9075
X1546Y-9350
X1767Y-11476
X2267Y-11476
X2767Y-11476
X3250Y-4039
X3267Y-11476
X4100Y-12539
X4267Y-4783
X4650Y-12550
X4900Y-3250
X5300Y-8400
X5350Y-9800
X5350Y-10400
X5358Y-11958
X5650Y-1850
X5700Y-5650
X5842Y-4058
X5900Y-7700
X5950Y-8150
X5950Y-11400
X6000Y-4600
X6250Y-1850
X6250Y-9550
X6250Y-10600
X6450Y-8350
X6650Y-8000
X6750Y-1850
X6800Y-9008
X7000Y-8400
X7028Y-4600
X7028Y-7850
X7200Y-15750
X7250Y-1850
X7300Y-4850
X7400Y-7750
X7600Y-5300
X7600Y-5800
X7600Y-7400
X7700Y-9100
X8000Y-12350
X8000Y-15650
X8150Y-11050
X8200Y-4250
X8300Y-6500
X8400Y-10400
X8409Y-7539
X8409Y-7835
X8409Y-8130
X8409Y-8425
X8409Y-8720
X8705Y-7539
X8705Y-7835
X8705Y-8130
X8705Y-8425
X8705Y-8720
X9000Y-7539
X9000Y-7835
X9000Y-8130
X9000Y-8425
X9000Y-8720
X9295Y-7539
X9295Y-7835
X9295Y-8130
X9295Y-8425
X9295Y-8720
X9550Y-4650
X9550Y-6650
X9591Y-7539
X9591Y-7835
X9591Y-8130
X9591Y-8425
X9591Y-8720
X9800Y-11576
X10050Y-6450
X10350Y-5250
X10350Y-6000
X10400Y-6400
X10400Y-15750
X10500Y-6950
X10546Y-7300
X10900Y-9945
X10900Y-10545
X11000Y-6872
X11300Y-11600
X11500Y-6295
X11500Y-6900
X11500Y-7500
X11550Y-4900
X12315Y-1665
T2
X850Y-2850
X1250Y-700
X1250Y-15550
X1850Y-2850
X5950Y-1050
X6950Y-1050
X7950Y-1050
X8950Y-1050
X11378Y-700
X11378Y-15550
T3
X3550Y-1850
X3550Y-14350
X10400Y-13700
X10450Y-2450
T0
M30
