%TF.GenerationSoftware,KiCad,Pcbnew,(6.0.0)*%
%TF.CreationDate,2022-03-11T17:00:34+01:00*%
%TF.ProjectId,CompactMotor,436f6d70-6163-4744-9d6f-746f722e6b69,rev?*%
%TF.SameCoordinates,Original*%
%TF.FileFunction,Soldermask,Top*%
%TF.FilePolarity,Negative*%
%FSLAX46Y46*%
G04 Gerber Fmt 4.6, Leading zero omitted, Abs format (unit mm)*
G04 Created by KiCad (PCBNEW (6.0.0)) date 2022-03-11 17:00:34*
%MOMM*%
%LPD*%
G01*
G04 APERTURE LIST*
G04 Aperture macros list*
%AMFreePoly0*
4,1,22,0.550000,-0.750000,0.000000,-0.750000,0.000000,-0.745033,-0.079941,-0.743568,-0.215256,-0.701293,-0.333266,-0.622738,-0.424486,-0.514219,-0.481581,-0.384460,-0.499164,-0.250000,-0.500000,-0.250000,-0.500000,0.250000,-0.499164,0.250000,-0.499963,0.256109,-0.478152,0.396186,-0.417904,0.524511,-0.324060,0.630769,-0.204165,0.706417,-0.067858,0.745374,0.000000,0.744959,0.000000,0.750000,
0.550000,0.750000,0.550000,-0.750000,0.550000,-0.750000,$1*%
%AMFreePoly1*
4,1,20,0.000000,0.744959,0.073905,0.744508,0.209726,0.703889,0.328688,0.626782,0.421226,0.519385,0.479903,0.390333,0.500000,0.250000,0.500000,-0.250000,0.499851,-0.262216,0.476331,-0.402017,0.414519,-0.529596,0.319384,-0.634700,0.198574,-0.708877,0.061801,-0.746166,0.000000,-0.745033,0.000000,-0.750000,-0.550000,-0.750000,-0.550000,0.750000,0.000000,0.750000,0.000000,0.744959,
0.000000,0.744959,$1*%
G04 Aperture macros list end*
%ADD10C,1.650000*%
%ADD11C,6.000000*%
%ADD12FreePoly0,180.000000*%
%ADD13R,1.000000X1.500000*%
%ADD14FreePoly1,180.000000*%
%ADD15R,4.000000X4.000000*%
%ADD16R,0.900000X2.000000*%
%ADD17R,2.000000X0.900000*%
%ADD18R,5.000000X5.000000*%
%ADD19R,1.700000X1.700000*%
%ADD20O,1.700000X1.700000*%
G04 APERTURE END LIST*
D10*
%TO.C,*%
X34798000Y-44831000D03*
%TD*%
D11*
%TO.C, *%
X26543000Y-6223000D03*
%TD*%
%TO.C, *%
X26416000Y-34798000D03*
%TD*%
D12*
%TO.C,JP2*%
X18445000Y-26924000D03*
D13*
X17145000Y-26924000D03*
D14*
X15845000Y-26924000D03*
%TD*%
D11*
%TO.C, *%
X9017000Y-4699000D03*
%TD*%
D10*
%TO.C,*%
X21336000Y-44958000D03*
%TD*%
%TO.C,*%
X1016000Y-40132000D03*
%TD*%
%TO.C,*%
X34671000Y3810000D03*
%TD*%
D15*
%TO.C,TP1*%
X22860000Y-20574000D03*
%TD*%
D11*
%TO.C, *%
X9017000Y-36449000D03*
%TD*%
D10*
%TO.C,*%
X21590000Y3937000D03*
%TD*%
%TO.C,REF\u002A\u002A*%
X30480000Y-1524000D03*
%TD*%
D16*
%TO.C,U1*%
X-5672000Y-29150000D03*
X-4402000Y-29150000D03*
X-3132000Y-29150000D03*
X-1862000Y-29150000D03*
X-592000Y-29150000D03*
X678000Y-29150000D03*
X1948000Y-29150000D03*
X3218000Y-29150000D03*
X4488000Y-29150000D03*
X5758000Y-29150000D03*
X7028000Y-29150000D03*
X8298000Y-29150000D03*
X9568000Y-29150000D03*
X10838000Y-29150000D03*
D17*
X11838000Y-26365000D03*
X11838000Y-25095000D03*
X11838000Y-23825000D03*
X11838000Y-22555000D03*
X11838000Y-21285000D03*
X11838000Y-20015000D03*
X11838000Y-18745000D03*
X11838000Y-17475000D03*
X11838000Y-16205000D03*
X11838000Y-14935000D03*
D16*
X10838000Y-12150000D03*
X9568000Y-12150000D03*
X8298000Y-12150000D03*
X7028000Y-12150000D03*
X5758000Y-12150000D03*
X4488000Y-12150000D03*
X3218000Y-12150000D03*
X1948000Y-12150000D03*
X678000Y-12150000D03*
X-592000Y-12150000D03*
X-1862000Y-12150000D03*
X-3132000Y-12150000D03*
X-4402000Y-12150000D03*
X-5672000Y-12150000D03*
D18*
X1828000Y-21650000D03*
%TD*%
D12*
%TO.C,JP1*%
X18445000Y-24257000D03*
D13*
X17145000Y-24257000D03*
D14*
X15845000Y-24257000D03*
%TD*%
D10*
%TO.C,*%
X30861000Y-40005000D03*
%TD*%
D19*
%TO.C,J8*%
X3175000Y-39497000D03*
%TD*%
%TO.C,J2*%
X4445000Y-4567000D03*
D20*
X4445000Y-7107000D03*
%TD*%
D19*
%TO.C,J7*%
X3175000Y-1778000D03*
%TD*%
%TO.C,J6*%
X30226000Y-43434000D03*
%TD*%
%TO.C,J1*%
X22860000Y-2794000D03*
D20*
X20320000Y-2794000D03*
X17780000Y-2794000D03*
X15240000Y-2794000D03*
%TD*%
D19*
%TO.C,J5*%
X29210000Y2413000D03*
%TD*%
%TO.C,J3*%
X4445000Y-34163000D03*
D20*
X4445000Y-36703000D03*
%TD*%
M02*
