%TF.GenerationSoftware,KiCad,Pcbnew,(6.0.0-0)*%
%TF.CreationDate,2022-03-10T17:30:30+01:00*%
%TF.ProjectId,CompactMotor,436f6d70-6163-4744-9d6f-746f722e6b69,rev?*%
%TF.SameCoordinates,Original*%
%TF.FileFunction,Legend,Top*%
%TF.FilePolarity,Positive*%
%FSLAX46Y46*%
G04 Gerber Fmt 4.6, Leading zero omitted, Abs format (unit mm)*
G04 Created by KiCad (PCBNEW (6.0.0-0)) date 2022-03-10 17:30:30*
%MOMM*%
%LPD*%
G01*
G04 APERTURE LIST*
%ADD10C,0.150000*%
%ADD11C,0.125000*%
%ADD12C,0.120000*%
G04 APERTURE END LIST*
D10*
%TO.C,J3*%
X-718619Y-7572333D02*
X-4333Y-7572333D01*
X138523Y-7619952D01*
X233761Y-7715190D01*
X281380Y-7858047D01*
X281380Y-7953285D01*
X-718619Y-7191380D02*
X-718619Y-6572333D01*
X-337666Y-6905666D01*
X-337666Y-6762809D01*
X-290047Y-6667571D01*
X-242428Y-6619952D01*
X-147190Y-6572333D01*
X90904Y-6572333D01*
X186142Y-6619952D01*
X233761Y-6667571D01*
X281380Y-6762809D01*
X281380Y-7048523D01*
X233761Y-7143761D01*
X186142Y-7191380D01*
D11*
%TO.C,JP2*%
X19538190Y-27467666D02*
X19895333Y-27467666D01*
X19966761Y-27491476D01*
X20014380Y-27539095D01*
X20038190Y-27610523D01*
X20038190Y-27658142D01*
X20038190Y-27229571D02*
X19538190Y-27229571D01*
X19538190Y-27039095D01*
X19562000Y-26991476D01*
X19585809Y-26967666D01*
X19633428Y-26943857D01*
X19704857Y-26943857D01*
X19752476Y-26967666D01*
X19776285Y-26991476D01*
X19800095Y-27039095D01*
X19800095Y-27229571D01*
X19585809Y-26753380D02*
X19562000Y-26729571D01*
X19538190Y-26681952D01*
X19538190Y-26562904D01*
X19562000Y-26515285D01*
X19585809Y-26491476D01*
X19633428Y-26467666D01*
X19681047Y-26467666D01*
X19752476Y-26491476D01*
X20038190Y-26777190D01*
X20038190Y-26467666D01*
%TO.C,JP1*%
X19538190Y-24800666D02*
X19895333Y-24800666D01*
X19966761Y-24824476D01*
X20014380Y-24872095D01*
X20038190Y-24943523D01*
X20038190Y-24991142D01*
X20038190Y-24562571D02*
X19538190Y-24562571D01*
X19538190Y-24372095D01*
X19562000Y-24324476D01*
X19585809Y-24300666D01*
X19633428Y-24276857D01*
X19704857Y-24276857D01*
X19752476Y-24300666D01*
X19776285Y-24324476D01*
X19800095Y-24372095D01*
X19800095Y-24562571D01*
X20038190Y-23800666D02*
X20038190Y-24086380D01*
X20038190Y-23943523D02*
X19538190Y-23943523D01*
X19609619Y-23991142D01*
X19657238Y-24038761D01*
X19681047Y-24086380D01*
D10*
%TO.C,J8*%
X-1543333Y-41219380D02*
X-1543333Y-41933666D01*
X-1590952Y-42076523D01*
X-1686190Y-42171761D01*
X-1829047Y-42219380D01*
X-1924285Y-42219380D01*
X-924285Y-41647952D02*
X-1019523Y-41600333D01*
X-1067142Y-41552714D01*
X-1114761Y-41457476D01*
X-1114761Y-41409857D01*
X-1067142Y-41314619D01*
X-1019523Y-41267000D01*
X-924285Y-41219380D01*
X-733809Y-41219380D01*
X-638571Y-41267000D01*
X-590952Y-41314619D01*
X-543333Y-41409857D01*
X-543333Y-41457476D01*
X-590952Y-41552714D01*
X-638571Y-41600333D01*
X-733809Y-41647952D01*
X-924285Y-41647952D01*
X-1019523Y-41695571D01*
X-1067142Y-41743190D01*
X-1114761Y-41838428D01*
X-1114761Y-42028904D01*
X-1067142Y-42124142D01*
X-1019523Y-42171761D01*
X-924285Y-42219380D01*
X-733809Y-42219380D01*
X-638571Y-42171761D01*
X-590952Y-42124142D01*
X-543333Y-42028904D01*
X-543333Y-41838428D01*
X-590952Y-41743190D01*
X-638571Y-41695571D01*
X-733809Y-41647952D01*
%TO.C,J7*%
X-1543333Y-3500380D02*
X-1543333Y-4214666D01*
X-1590952Y-4357523D01*
X-1686190Y-4452761D01*
X-1829047Y-4500380D01*
X-1924285Y-4500380D01*
X-1162380Y-3500380D02*
X-495714Y-3500380D01*
X-924285Y-4500380D01*
%TO.C,J6*%
X32950666Y-36679380D02*
X32950666Y-37393666D01*
X32903047Y-37536523D01*
X32807809Y-37631761D01*
X32664952Y-37679380D01*
X32569714Y-37679380D01*
X33855428Y-36679380D02*
X33664952Y-36679380D01*
X33569714Y-36727000D01*
X33522095Y-36774619D01*
X33426857Y-36917476D01*
X33379238Y-37107952D01*
X33379238Y-37488904D01*
X33426857Y-37584142D01*
X33474476Y-37631761D01*
X33569714Y-37679380D01*
X33760190Y-37679380D01*
X33855428Y-37631761D01*
X33903047Y-37584142D01*
X33950666Y-37488904D01*
X33950666Y-37250809D01*
X33903047Y-37155571D01*
X33855428Y-37107952D01*
X33760190Y-37060333D01*
X33569714Y-37060333D01*
X33474476Y-37107952D01*
X33426857Y-37155571D01*
X33379238Y-37250809D01*
%TO.C,J5*%
X32950666Y1039619D02*
X32950666Y325333D01*
X32903047Y182476D01*
X32807809Y87238D01*
X32664952Y39619D01*
X32569714Y39619D01*
X33903047Y1039619D02*
X33426857Y1039619D01*
X33379238Y563428D01*
X33426857Y611047D01*
X33522095Y658666D01*
X33760190Y658666D01*
X33855428Y611047D01*
X33903047Y563428D01*
X33950666Y468190D01*
X33950666Y230095D01*
X33903047Y134857D01*
X33855428Y87238D01*
X33760190Y39619D01*
X33522095Y39619D01*
X33426857Y87238D01*
X33379238Y134857D01*
%TO.C, *%
D11*
%TO.C,J1*%
X24642000Y-1818285D02*
X24642000Y-2354000D01*
X24606285Y-2461142D01*
X24534857Y-2532571D01*
X24427714Y-2568285D01*
X24356285Y-2568285D01*
X25392000Y-2568285D02*
X24963428Y-2568285D01*
X25177714Y-2568285D02*
X25177714Y-1818285D01*
X25106285Y-1925428D01*
X25034857Y-1996857D01*
X24963428Y-2032571D01*
D10*
%TO.C,  *%
%TO.C, *%
%TO.C,U1*%
X9241285Y-21272428D02*
X9848428Y-21272428D01*
X9919857Y-21236714D01*
X9955571Y-21201000D01*
X9991285Y-21129571D01*
X9991285Y-20986714D01*
X9955571Y-20915285D01*
X9919857Y-20879571D01*
X9848428Y-20843857D01*
X9241285Y-20843857D01*
X9991285Y-20093857D02*
X9991285Y-20522428D01*
X9991285Y-20308142D02*
X9241285Y-20308142D01*
X9348428Y-20379571D01*
X9419857Y-20451000D01*
X9455571Y-20522428D01*
D12*
%TO.C,J3*%
X6029000Y-8569000D02*
X6029000Y-5909000D01*
X3429000Y-8569000D02*
X6029000Y-8569000D01*
X3429000Y-5909000D02*
X6029000Y-5909000D01*
X3429000Y-8569000D02*
X3429000Y-5909000D01*
X2159000Y-8569000D02*
X829000Y-8569000D01*
X829000Y-8569000D02*
X829000Y-7239000D01*
%TO.C,JP2*%
X18345000Y-25724000D02*
X18045000Y-25424000D01*
X18645000Y-25424000D02*
X18045000Y-25424000D01*
X18345000Y-25724000D02*
X18645000Y-25424000D01*
X19195000Y-26624000D02*
X19195000Y-27224000D01*
X15745000Y-25924000D02*
X18545000Y-25924000D01*
X15095000Y-27224000D02*
X15095000Y-26624000D01*
X18545000Y-27924000D02*
X15745000Y-27924000D01*
X15095000Y-27224000D02*
G75*
G03*
X15795000Y-27924000I700000J0D01*
G01*
X15795000Y-25924000D02*
G75*
G03*
X15095000Y-26624000I0J-700000D01*
G01*
X19195000Y-26624000D02*
G75*
G03*
X18495000Y-25924000I-700000J0D01*
G01*
X18495000Y-27924000D02*
G75*
G03*
X19195000Y-27224000I0J700000D01*
G01*
%TO.C,JP1*%
X18345000Y-23057000D02*
X18045000Y-22757000D01*
X18645000Y-22757000D02*
X18045000Y-22757000D01*
X18345000Y-23057000D02*
X18645000Y-22757000D01*
X19195000Y-23957000D02*
X19195000Y-24557000D01*
X15745000Y-23257000D02*
X18545000Y-23257000D01*
X15095000Y-24557000D02*
X15095000Y-23957000D01*
X18545000Y-25257000D02*
X15745000Y-25257000D01*
X15095000Y-24557000D02*
G75*
G03*
X15795000Y-25257000I700000J0D01*
G01*
X15795000Y-23257000D02*
G75*
G03*
X15095000Y-23957000I0J-700000D01*
G01*
X19195000Y-23957000D02*
G75*
G03*
X18495000Y-23257000I-700000J0D01*
G01*
X18495000Y-25257000D02*
G75*
G03*
X19195000Y-24557000I0J700000D01*
G01*
%TO.C,J8*%
X4445000Y-40767000D02*
X3175000Y-40767000D01*
X4445000Y-39497000D02*
X4445000Y-40767000D01*
X2065000Y-39117000D02*
X1735000Y-39117000D01*
X2065000Y-39877000D02*
X1735000Y-39877000D01*
X-925000Y-39217000D02*
X-6925000Y-39217000D01*
X-925000Y-39337000D02*
X-6925000Y-39337000D01*
X-925000Y-39457000D02*
X-6925000Y-39457000D01*
X-925000Y-39577000D02*
X-6925000Y-39577000D01*
X-925000Y-39697000D02*
X-6925000Y-39697000D01*
X-925000Y-39817000D02*
X-6925000Y-39817000D01*
X-6925000Y-39117000D02*
X-925000Y-39117000D01*
X-6925000Y-39877000D02*
X-6925000Y-39117000D01*
X-925000Y-39877000D02*
X-6925000Y-39877000D01*
X-925000Y-40827000D02*
X1735000Y-40827000D01*
X-925000Y-38167000D02*
X-925000Y-40827000D01*
X1735000Y-38167000D02*
X-925000Y-38167000D01*
X1735000Y-40827000D02*
X1735000Y-38167000D01*
%TO.C,J7*%
X1735000Y-3108000D02*
X1735000Y-448000D01*
X1735000Y-448000D02*
X-925000Y-448000D01*
X-925000Y-448000D02*
X-925000Y-3108000D01*
X-925000Y-3108000D02*
X1735000Y-3108000D01*
X-925000Y-2158000D02*
X-6925000Y-2158000D01*
X-6925000Y-2158000D02*
X-6925000Y-1398000D01*
X-6925000Y-1398000D02*
X-925000Y-1398000D01*
X-925000Y-2098000D02*
X-6925000Y-2098000D01*
X-925000Y-1978000D02*
X-6925000Y-1978000D01*
X-925000Y-1858000D02*
X-6925000Y-1858000D01*
X-925000Y-1738000D02*
X-6925000Y-1738000D01*
X-925000Y-1618000D02*
X-6925000Y-1618000D01*
X-925000Y-1498000D02*
X-6925000Y-1498000D01*
X2065000Y-2158000D02*
X1735000Y-2158000D01*
X2065000Y-1398000D02*
X1735000Y-1398000D01*
X4445000Y-1778000D02*
X4445000Y-3048000D01*
X4445000Y-3048000D02*
X3175000Y-3048000D01*
%TO.C,J6*%
X30339000Y-38167000D02*
X30339000Y-40827000D01*
X30339000Y-40827000D02*
X32999000Y-40827000D01*
X32999000Y-40827000D02*
X32999000Y-38167000D01*
X32999000Y-38167000D02*
X30339000Y-38167000D01*
X32999000Y-39117000D02*
X38999000Y-39117000D01*
X38999000Y-39117000D02*
X38999000Y-39877000D01*
X38999000Y-39877000D02*
X32999000Y-39877000D01*
X32999000Y-39177000D02*
X38999000Y-39177000D01*
X32999000Y-39297000D02*
X38999000Y-39297000D01*
X32999000Y-39417000D02*
X38999000Y-39417000D01*
X32999000Y-39537000D02*
X38999000Y-39537000D01*
X32999000Y-39657000D02*
X38999000Y-39657000D01*
X32999000Y-39777000D02*
X38999000Y-39777000D01*
X30009000Y-39117000D02*
X30339000Y-39117000D01*
X30009000Y-39877000D02*
X30339000Y-39877000D01*
X27629000Y-39497000D02*
X27629000Y-38227000D01*
X27629000Y-38227000D02*
X28899000Y-38227000D01*
%TO.C,J5*%
X30339000Y-448000D02*
X30339000Y-3108000D01*
X30339000Y-3108000D02*
X32999000Y-3108000D01*
X32999000Y-3108000D02*
X32999000Y-448000D01*
X32999000Y-448000D02*
X30339000Y-448000D01*
X32999000Y-1398000D02*
X38999000Y-1398000D01*
X38999000Y-1398000D02*
X38999000Y-2158000D01*
X38999000Y-2158000D02*
X32999000Y-2158000D01*
X32999000Y-1458000D02*
X38999000Y-1458000D01*
X32999000Y-1578000D02*
X38999000Y-1578000D01*
X32999000Y-1698000D02*
X38999000Y-1698000D01*
X32999000Y-1818000D02*
X38999000Y-1818000D01*
X32999000Y-1938000D02*
X38999000Y-1938000D01*
X32999000Y-2058000D02*
X38999000Y-2058000D01*
X30009000Y-1398000D02*
X30339000Y-1398000D01*
X30009000Y-2158000D02*
X30339000Y-2158000D01*
X27629000Y-1778000D02*
X27629000Y-508000D01*
X27629000Y-508000D02*
X28899000Y-508000D01*
%TO.C,J1*%
X13843000Y-3937000D02*
X13843000Y-2667000D01*
X21463000Y-1227000D02*
X21463000Y1433000D01*
X17273000Y-1624071D02*
X17273000Y-1227000D01*
X15113000Y-3937000D02*
X13843000Y-3937000D01*
X17273000Y1433000D02*
X17273000Y7433000D01*
X13783000Y-1227000D02*
X24063000Y-1227000D01*
X20573000Y7433000D02*
X20573000Y1433000D01*
X15393000Y1433000D02*
X15393000Y7433000D01*
X18033000Y-1624071D02*
X18033000Y-1227000D01*
X23113000Y-1624071D02*
X23113000Y-1227000D01*
X22353000Y1433000D02*
X22353000Y7433000D01*
X14913000Y1433000D02*
X14913000Y7433000D01*
X14793000Y1433000D02*
X14793000Y7433000D01*
X22353000Y7433000D02*
X23113000Y7433000D01*
X18923000Y-1227000D02*
X18923000Y1433000D01*
X15273000Y1433000D02*
X15273000Y7433000D01*
X19813000Y7433000D02*
X20573000Y7433000D01*
X18033000Y7433000D02*
X18033000Y1433000D01*
X14733000Y1433000D02*
X14733000Y7433000D01*
X19813000Y1433000D02*
X19813000Y7433000D01*
X20573000Y-1624071D02*
X20573000Y-1227000D01*
X24063000Y1433000D02*
X13783000Y1433000D01*
X24063000Y-1227000D02*
X24063000Y1433000D01*
X16383000Y-1227000D02*
X16383000Y1433000D01*
X15493000Y-1557000D02*
X15493000Y-1227000D01*
X19813000Y-1624071D02*
X19813000Y-1227000D01*
X14733000Y-1557000D02*
X14733000Y-1227000D01*
X17273000Y7433000D02*
X18033000Y7433000D01*
X15493000Y7433000D02*
X15493000Y1433000D01*
X14733000Y7433000D02*
X15493000Y7433000D01*
X13783000Y1433000D02*
X13783000Y-1227000D01*
X22353000Y-1624071D02*
X22353000Y-1227000D01*
X15033000Y1433000D02*
X15033000Y7433000D01*
X15153000Y1433000D02*
X15153000Y7433000D01*
X23113000Y7433000D02*
X23113000Y1433000D01*
%TO.C,U1*%
X-13282000Y-29770000D02*
X-13282000Y-11530000D01*
X-13282000Y-11530000D02*
X-6862000Y-11530000D01*
X11683000Y-11530000D02*
X12463000Y-11530000D01*
X12463000Y-11530000D02*
X12463000Y-12530000D01*
X12463000Y-29770000D02*
X12463000Y-28770000D01*
X-6862000Y-29770000D02*
X-6862000Y-30150000D01*
X-13282000Y-29770000D02*
X-6862000Y-29770000D01*
X11683000Y-29770000D02*
X12463000Y-29770000D01*
%TD*%
M02*
