%TF.GenerationSoftware,KiCad,Pcbnew,(6.0.0)*%
%TF.CreationDate,2022-03-11T17:00:34+01:00*%
%TF.ProjectId,CompactMotor,436f6d70-6163-4744-9d6f-746f722e6b69,rev?*%
%TF.SameCoordinates,Original*%
%TF.FileFunction,Copper,L1,Top*%
%TF.FilePolarity,Positive*%
%FSLAX46Y46*%
G04 Gerber Fmt 4.6, Leading zero omitted, Abs format (unit mm)*
G04 Created by KiCad (PCBNEW (6.0.0)) date 2022-03-11 17:00:34*
%MOMM*%
%LPD*%
G01*
G04 APERTURE LIST*
G04 Aperture macros list*
%AMFreePoly0*
4,1,22,0.550000,-0.750000,0.000000,-0.750000,0.000000,-0.745033,-0.079941,-0.743568,-0.215256,-0.701293,-0.333266,-0.622738,-0.424486,-0.514219,-0.481581,-0.384460,-0.499164,-0.250000,-0.500000,-0.250000,-0.500000,0.250000,-0.499164,0.250000,-0.499963,0.256109,-0.478152,0.396186,-0.417904,0.524511,-0.324060,0.630769,-0.204165,0.706417,-0.067858,0.745374,0.000000,0.744959,0.000000,0.750000,
0.550000,0.750000,0.550000,-0.750000,0.550000,-0.750000,$1*%
%AMFreePoly1*
4,1,20,0.000000,0.744959,0.073905,0.744508,0.209726,0.703889,0.328688,0.626782,0.421226,0.519385,0.479903,0.390333,0.500000,0.250000,0.500000,-0.250000,0.499851,-0.262216,0.476331,-0.402017,0.414519,-0.529596,0.319384,-0.634700,0.198574,-0.708877,0.061801,-0.746166,0.000000,-0.745033,0.000000,-0.750000,-0.550000,-0.750000,-0.550000,0.750000,0.000000,0.750000,0.000000,0.744959,
0.000000,0.744959,$1*%
G04 Aperture macros list end*
%TA.AperFunction,ComponentPad*%
%ADD10C,6.000000*%
%TD*%
%TA.AperFunction,SMDPad,CuDef*%
%ADD11FreePoly0,180.000000*%
%TD*%
%TA.AperFunction,SMDPad,CuDef*%
%ADD12R,1.000000X1.500000*%
%TD*%
%TA.AperFunction,SMDPad,CuDef*%
%ADD13FreePoly1,180.000000*%
%TD*%
%TA.AperFunction,SMDPad,CuDef*%
%ADD14R,4.000000X4.000000*%
%TD*%
%TA.AperFunction,SMDPad,CuDef*%
%ADD15R,0.900000X2.000000*%
%TD*%
%TA.AperFunction,SMDPad,CuDef*%
%ADD16R,2.000000X0.900000*%
%TD*%
%TA.AperFunction,SMDPad,CuDef*%
%ADD17R,5.000000X5.000000*%
%TD*%
%TA.AperFunction,ComponentPad*%
%ADD18R,1.700000X1.700000*%
%TD*%
%TA.AperFunction,ComponentPad*%
%ADD19O,1.700000X1.700000*%
%TD*%
%TA.AperFunction,ViaPad*%
%ADD20C,0.600000*%
%TD*%
%TA.AperFunction,Conductor*%
%ADD21C,0.120000*%
%TD*%
%TA.AperFunction,Conductor*%
%ADD22C,0.300000*%
%TD*%
G04 APERTURE END LIST*
D10*
%TO.P, ,*%
%TO.N,VM*%
X26543000Y-6223000D03*
%TD*%
%TO.P, ,*%
%TO.N,GNDREF*%
X26416000Y-34798000D03*
%TD*%
D11*
%TO.P,JP2,1,A*%
%TO.N,DCIN_CFG5*%
X18445000Y-26924000D03*
D12*
%TO.P,JP2,2,C*%
%TO.N,Net-(JP2-Pad2)*%
X17145000Y-26924000D03*
D13*
%TO.P,JP2,3,B*%
%TO.N,GNDREF*%
X15845000Y-26924000D03*
%TD*%
D10*
%TO.P, ,*%
%TO.N,VM*%
X9017000Y-4699000D03*
%TD*%
D14*
%TO.P,TP1,1,1*%
%TO.N,GNDREF*%
X22860000Y-20574000D03*
%TD*%
D10*
%TO.P, ,*%
%TO.N,GNDREF*%
X9017000Y-36449000D03*
%TD*%
D15*
%TO.P,U1,1,GND*%
%TO.N,GNDREF*%
X-5672000Y-29150000D03*
%TO.P,U1,2,VDD*%
%TO.N,3V3*%
X-4402000Y-29150000D03*
%TO.P,U1,3,EN*%
%TO.N,EN*%
X-3132000Y-29150000D03*
%TO.P,U1,4,SENSOR_VP*%
%TO.N,SENSOR_VP*%
X-1862000Y-29150000D03*
%TO.P,U1,5,SENSOR_VN*%
%TO.N,SENSOR_VN*%
X-592000Y-29150000D03*
%TO.P,U1,6,IO34*%
%TO.N,DIAG0*%
X678000Y-29150000D03*
%TO.P,U1,7,IO35*%
%TO.N,DIAG1*%
X1948000Y-29150000D03*
%TO.P,U1,8,IO32*%
%TO.N,Net-(JP1-Pad2)*%
X3218000Y-29150000D03*
%TO.P,U1,9,IO33*%
%TO.N,Net-(JP2-Pad2)*%
X4488000Y-29150000D03*
%TO.P,U1,10,IO25*%
%TO.N,STALLPLUS*%
X5758000Y-29150000D03*
%TO.P,U1,11,IO26*%
%TO.N,STALLMINUS*%
X7028000Y-29150000D03*
%TO.P,U1,12,IO27*%
%TO.N,DC0*%
X8298000Y-29150000D03*
%TO.P,U1,13,IO14*%
%TO.N,IO14*%
X9568000Y-29150000D03*
%TO.P,U1,14,IO12*%
%TO.N,IO12*%
X10838000Y-29150000D03*
D16*
%TO.P,U1,15,GND*%
%TO.N,GNDREF*%
X11838000Y-26365000D03*
%TO.P,U1,16,IO13*%
%TO.N,IO13*%
X11838000Y-25095000D03*
%TO.P,U1,17,SHD/SD2*%
%TO.N,SHD{slash}SD2*%
X11838000Y-23825000D03*
%TO.P,U1,18,SWP/SD3*%
%TO.N,SWP{slash}SD3*%
X11838000Y-22555000D03*
%TO.P,U1,19,SCS/CMD*%
%TO.N,SCS{slash}CMD*%
X11838000Y-21285000D03*
%TO.P,U1,20,SCK/CLK*%
%TO.N,SCK{slash}CLK*%
X11838000Y-20015000D03*
%TO.P,U1,21,SDO/SD0*%
%TO.N,SDO{slash}SD0*%
X11838000Y-18745000D03*
%TO.P,U1,22,SDI/SD1*%
%TO.N,SDI{slash}SD1*%
X11838000Y-17475000D03*
%TO.P,U1,23,IO15*%
%TO.N,IO15*%
X11838000Y-16205000D03*
%TO.P,U1,24,IO2*%
%TO.N,IO2*%
X11838000Y-14935000D03*
D15*
%TO.P,U1,25,IO0*%
%TO.N,IO0*%
X10838000Y-12150000D03*
%TO.P,U1,26,IO4*%
%TO.N,DIR*%
X9568000Y-12150000D03*
%TO.P,U1,27,IO16*%
%TO.N,STEP*%
X8298000Y-12150000D03*
%TO.P,U1,28,IO17*%
%TO.N,TMC_EN*%
X7028000Y-12150000D03*
%TO.P,U1,29,IO5*%
%TO.N,CS*%
X5758000Y-12150000D03*
%TO.P,U1,30,IO18*%
%TO.N,SCK*%
X4488000Y-12150000D03*
%TO.P,U1,31,IO19*%
%TO.N,MISO*%
X3218000Y-12150000D03*
%TO.P,U1,32,NC*%
%TO.N,unconnected-(U1-Pad32)*%
X1948000Y-12150000D03*
%TO.P,U1,33,IO21*%
%TO.N,Net-(R7-Pad1)*%
X678000Y-12150000D03*
%TO.P,U1,34,RXD0/IO3*%
%TO.N,RXD0*%
X-592000Y-12150000D03*
%TO.P,U1,35,TXD0/IO1*%
%TO.N,TXD0*%
X-1862000Y-12150000D03*
%TO.P,U1,36,IO22*%
%TO.N,Net-(R8-Pad1)*%
X-3132000Y-12150000D03*
%TO.P,U1,37,IO23*%
%TO.N,MOSI*%
X-4402000Y-12150000D03*
%TO.P,U1,38,GND*%
%TO.N,GNDREF*%
X-5672000Y-12150000D03*
D17*
%TO.P,U1,39,GND*%
X1828000Y-21650000D03*
%TD*%
D11*
%TO.P,JP1,1,A*%
%TO.N,DCEN_CFG4*%
X18445000Y-24257000D03*
D12*
%TO.P,JP1,2,C*%
%TO.N,Net-(JP1-Pad2)*%
X17145000Y-24257000D03*
D13*
%TO.P,JP1,3,B*%
%TO.N,GNDREF*%
X15845000Y-24257000D03*
%TD*%
D18*
%TO.P,J8,1,Pin_1*%
%TO.N,STALLPLUS*%
X3175000Y-39497000D03*
%TD*%
%TO.P,J2,1,Pin_1*%
%TO.N,RXD0*%
X4445000Y-4567000D03*
D19*
%TO.P,J2,2,Pin_2*%
%TO.N,TXD0*%
X4445000Y-7107000D03*
%TD*%
D18*
%TO.P,J7,1,Pin_1*%
%TO.N,5V0*%
X3175000Y-1778000D03*
%TD*%
%TO.P,J6,1,Pin_1*%
%TO.N,STALLMINUS*%
X30226000Y-43434000D03*
%TD*%
%TO.P,J1,1,Pin_1*%
%TO.N,Net-(J1-Pad1)*%
X22860000Y-2794000D03*
D19*
%TO.P,J1,2,Pin_2*%
%TO.N,Net-(J1-Pad2)*%
X20320000Y-2794000D03*
%TO.P,J1,3,Pin_3*%
%TO.N,Net-(J1-Pad3)*%
X17780000Y-2794000D03*
%TO.P,J1,4,Pin_4*%
%TO.N,Net-(J1-Pad4)*%
X15240000Y-2794000D03*
%TD*%
D18*
%TO.P,J5,1,Pin_1*%
%TO.N,5V0*%
X29210000Y2413000D03*
%TD*%
%TO.P,J3,1,Pin_1*%
%TO.N,GNDREF*%
X4445000Y-34163000D03*
D19*
%TO.P,J3,2,Pin_2*%
%TO.N,IO0*%
X4445000Y-36703000D03*
%TD*%
D20*
%TO.N,5V0*%
X19304000Y-18796000D03*
X15113000Y-28956000D03*
X29210000Y-15989000D03*
X29337000Y-12446000D03*
X20320000Y-39751000D03*
X27940000Y-1143000D03*
X27940000Y-17456000D03*
%TO.N,GNDREF*%
X1128000Y-23750000D03*
X-272000Y-21650000D03*
X13589000Y-26416000D03*
X428000Y-22350000D03*
X19304000Y-14732000D03*
X21360000Y-22150000D03*
X23610000Y-20650000D03*
X1828000Y-20250000D03*
X24360000Y-22150000D03*
X1828000Y-22350000D03*
X428000Y-20950000D03*
X21082000Y-16510000D03*
X1828000Y-23050000D03*
X2528000Y-20950000D03*
X1828000Y-23750000D03*
X1828000Y-21650000D03*
X3928000Y-20950000D03*
X23610000Y-22150000D03*
X3928000Y-23750000D03*
X24360000Y-19150000D03*
X20828000Y-10795000D03*
X-5669550Y-12065000D03*
X29210000Y-17526000D03*
X2528000Y-22350000D03*
X3228000Y-23750000D03*
X-272000Y-20250000D03*
X21360000Y-19900000D03*
X1828000Y-20950000D03*
X428000Y-23050000D03*
X22860000Y-20650000D03*
X-272000Y-20950000D03*
X3228000Y-20250000D03*
X18288000Y-40005000D03*
X22860000Y-21400000D03*
X428000Y-19550000D03*
X27686000Y-25260000D03*
X-5588000Y-30861000D03*
X23610000Y-19150000D03*
X15875000Y-24257000D03*
X3928000Y-20250000D03*
X2528000Y-23750000D03*
X3228000Y-19550000D03*
X15113000Y-11557000D03*
X21360000Y-21400000D03*
X2528000Y-21650000D03*
X2528000Y-23050000D03*
X1128000Y-23050000D03*
X20828000Y-30480000D03*
X-272000Y-19550000D03*
X29210000Y-19050000D03*
X27686000Y-26784000D03*
X24360000Y-21400000D03*
X428000Y-20250000D03*
X26289000Y-13335000D03*
X24360000Y-19900000D03*
X-272000Y-23050000D03*
X21360000Y-19150000D03*
X3928000Y-21650000D03*
X3228000Y-21650000D03*
X22110000Y-20650000D03*
X26289000Y-15240000D03*
X22110000Y-19900000D03*
X22110000Y-19150000D03*
X1128000Y-20250000D03*
X1128000Y-20950000D03*
X24360000Y-20650000D03*
X24892000Y-29402500D03*
X26416000Y-40005000D03*
X15875000Y-26924000D03*
X1128000Y-19550000D03*
X22860000Y-19900000D03*
X22860000Y-19150000D03*
X23610000Y-21400000D03*
X3228000Y-20950000D03*
X1828000Y-19550000D03*
X22860000Y-22150000D03*
X3228000Y-23050000D03*
X2528000Y-19550000D03*
X2528000Y-20250000D03*
X22110000Y-21400000D03*
X1128000Y-21650000D03*
X428000Y-21650000D03*
X428000Y-23750000D03*
X6223000Y-8255000D03*
X-272000Y-23750000D03*
X1128000Y-22350000D03*
X-272000Y-22350000D03*
X21360000Y-20650000D03*
X3928000Y-23050000D03*
X3228000Y-22350000D03*
X22110000Y-22150000D03*
X23610000Y-19900000D03*
X3928000Y-19550000D03*
X3928000Y-22350000D03*
X28702000Y-29464000D03*
%TO.N,3V3*%
X-4191000Y-30861000D03*
%TO.N,EN*%
X-2413000Y-30861000D03*
%TO.N,IO0*%
X2159000Y-31115000D03*
X10838000Y-12150000D03*
%TO.N,STALLPLUS*%
X5758000Y-29150000D03*
X10414000Y-31848500D03*
%TO.N,STALLMINUS*%
X11811000Y-31877000D03*
X7028000Y-29150000D03*
%TO.N,SCK*%
X16383000Y-21209000D03*
%TO.N,DIR*%
X18669000Y-11557000D03*
X18796000Y-19685000D03*
X16411500Y-10795000D03*
%TO.N,STEP*%
X18542000Y-12319000D03*
X17850015Y-19939000D03*
X15367000Y-10258500D03*
%TO.N,TMC_EN*%
X12446000Y-8255000D03*
X26785876Y-18542990D03*
X8255000Y-10258500D03*
%TO.N,CS*%
X15240000Y-21844000D03*
%TO.N,MISO*%
X16891004Y-20320000D03*
%TO.N,MOSI*%
X17780000Y-21336000D03*
%TO.N,DC0*%
X20701000Y-28067000D03*
X24257000Y-16891000D03*
X21336000Y-26416000D03*
X8298000Y-29150000D03*
X13610558Y-30374558D03*
%TO.N,DCEN_CFG4*%
X25527000Y-16383000D03*
%TO.N,DCIN_CFG5*%
X26416000Y-16256000D03*
%TO.N,DIAG0*%
X19304000Y-13462000D03*
X678000Y-29150000D03*
X24257000Y-11811000D03*
X15113000Y-21082000D03*
X13589000Y-22479000D03*
%TO.N,DIAG1*%
X26670000Y-17653000D03*
X19558000Y-23114000D03*
X1948000Y-29150000D03*
X17272000Y-22879500D03*
X13589000Y-24892000D03*
%TO.N,Net-(J1-Pad1)*%
X31280519Y-4229519D03*
%TO.N,VM*%
X18415000Y-4699000D03*
X17145000Y-4699000D03*
X15875000Y-4699000D03*
X14351000Y-4699000D03*
%TO.N,Net-(JP2-Pad2)*%
X4488000Y-29150000D03*
X3848393Y-31128129D03*
%TO.N,Net-(R7-Pad1)*%
X678000Y-12150000D03*
%TO.N,Net-(R8-Pad1)*%
X-3132000Y-12150000D03*
%TD*%
D21*
%TO.N,5V0*%
X29210000Y2413000D02*
X29210000Y127000D01*
X29210000Y127000D02*
X27940000Y-1143000D01*
%TO.N,GNDREF*%
X15845000Y-26924000D02*
X15875000Y-26924000D01*
X11838000Y-26365000D02*
X13538000Y-26365000D01*
X15845000Y-24257000D02*
X15875000Y-24257000D01*
X6731000Y-34163000D02*
X9017000Y-36449000D01*
X-5672000Y-29150000D02*
X-5672000Y-30777000D01*
X13538000Y-26365000D02*
X13589000Y-26416000D01*
X4445000Y-34163000D02*
X6731000Y-34163000D01*
X-5672000Y-30777000D02*
X-5588000Y-30861000D01*
%TO.N,3V3*%
X-4402000Y-30650000D02*
X-4402000Y-29150000D01*
X-4191000Y-30861000D02*
X-4402000Y-30650000D01*
%TO.N,EN*%
X-3132000Y-30142000D02*
X-2413000Y-30861000D01*
X-3132000Y-29150000D02*
X-3132000Y-30142000D01*
%TO.N,IO0*%
X2159000Y-34417000D02*
X2159000Y-31115000D01*
X4445000Y-36703000D02*
X2159000Y-34417000D01*
%TO.N,STALLPLUS*%
X10922000Y-40640000D02*
X12827000Y-38735000D01*
X3175000Y-39497000D02*
X3306511Y-39628511D01*
X5084511Y-39628511D02*
X6096000Y-40640000D01*
X10766500Y-31848500D02*
X12827000Y-33909000D01*
X3306511Y-39628511D02*
X5084511Y-39628511D01*
X10766500Y-31848500D02*
X10414000Y-31848500D01*
X6096000Y-40640000D02*
X10922000Y-40640000D01*
X12827000Y-38735000D02*
X12827000Y-33909000D01*
%TO.N,STALLMINUS*%
X18542000Y-38608000D02*
X11811000Y-31877000D01*
X30226000Y-43434000D02*
X30226000Y-41783000D01*
X27051000Y-38608000D02*
X18542000Y-38608000D01*
X30226000Y-41783000D02*
X27051000Y-38608000D01*
%TO.N,SCK*%
X16692383Y-20799511D02*
X16411493Y-20518621D01*
X16383000Y-21209000D02*
X16792489Y-20799511D01*
X16792489Y-20799511D02*
X16692383Y-20799511D01*
X4488000Y-10752000D02*
X4488000Y-12150000D01*
X16891464Y-19641408D02*
X16891466Y-12699338D01*
X16383000Y-9525000D02*
X5715000Y-9525000D01*
X5715000Y-9525000D02*
X4488000Y-10752000D01*
X16411493Y-20121379D02*
X16891464Y-19641408D01*
X16891466Y-12699338D02*
X17145000Y-12445804D01*
X17145000Y-10287000D02*
X16383000Y-9525000D01*
X17145000Y-12445804D02*
X17145000Y-10287000D01*
X16411493Y-20518621D02*
X16411493Y-20121379D01*
%TO.N,RXD0*%
X-6068212Y-10174480D02*
X762000Y-10174480D01*
X2032000Y-6223000D02*
X3688000Y-4567000D01*
X-592000Y-13546000D02*
X-1255520Y-14209520D01*
X-6068212Y-14209520D02*
X-6731000Y-13546732D01*
X3688000Y-4567000D02*
X4445000Y-4567000D01*
X762000Y-10174480D02*
X2032000Y-8904480D01*
X-6731000Y-10837268D02*
X-6068212Y-10174480D01*
X-592000Y-12150000D02*
X-592000Y-13546000D01*
X2032000Y-8904480D02*
X2032000Y-6223000D01*
X-6731000Y-13546732D02*
X-6731000Y-10837268D01*
X-1255520Y-14209520D02*
X-6068212Y-14209520D01*
%TO.N,TXD0*%
X-5969000Y-13970000D02*
X-6477000Y-13462000D01*
X-6477000Y-13462000D02*
X-6477000Y-11145978D01*
X-1862000Y-13038000D02*
X-2794000Y-13970000D01*
X-2794000Y-13970000D02*
X-5969000Y-13970000D01*
X889000Y-10414000D02*
X4196000Y-7107000D01*
X-5745022Y-10414000D02*
X889000Y-10414000D01*
X4196000Y-7107000D02*
X4445000Y-7107000D01*
X-1862000Y-12150000D02*
X-1862000Y-13038000D01*
X-6477000Y-11145978D02*
X-5745022Y-10414000D01*
%TO.N,DIR*%
X18669000Y-11767868D02*
X19021511Y-12120379D01*
X18669000Y-11557000D02*
X18669000Y-11767868D01*
X10754000Y-10414000D02*
X9568000Y-11600000D01*
X18542000Y-12997132D02*
X18542000Y-19431000D01*
X19021511Y-12120379D02*
X19021511Y-12517621D01*
X19021511Y-12517621D02*
X18542000Y-12997132D01*
X9568000Y-11600000D02*
X9568000Y-12150000D01*
X14605000Y-10795000D02*
X14224000Y-10414000D01*
X16411500Y-10795000D02*
X14605000Y-10795000D01*
X14224000Y-10414000D02*
X10754000Y-10414000D01*
X18542000Y-19431000D02*
X18796000Y-19685000D01*
%TO.N,STEP*%
X15367000Y-10258500D02*
X15268500Y-10160000D01*
X18288000Y-12319000D02*
X18542000Y-12319000D01*
X17850015Y-12756985D02*
X18288000Y-12319000D01*
X9738000Y-10160000D02*
X8298000Y-11600000D01*
X17850015Y-19939000D02*
X17850015Y-12756985D01*
X15268500Y-10160000D02*
X9738000Y-10160000D01*
X8298000Y-11600000D02*
X8298000Y-12150000D01*
%TO.N,TMC_EN*%
X20828000Y-8255000D02*
X12446000Y-8255000D01*
X27178000Y-18150866D02*
X27178000Y-11303000D01*
X7028000Y-12150000D02*
X7028000Y-11485500D01*
X27178000Y-11303000D02*
X23876000Y-11303000D01*
X23876000Y-11303000D02*
X20828000Y-8255000D01*
X7028000Y-11485500D02*
X8255000Y-10258500D01*
X26785876Y-18542990D02*
X27178000Y-18150866D01*
%TO.N,CS*%
X16651946Y-12600126D02*
X16891000Y-12361072D01*
X16891000Y-10414000D02*
X16256000Y-9779000D01*
X15903489Y-20290651D02*
X16651944Y-19542196D01*
X15240000Y-21844000D02*
X15903489Y-21180511D01*
X16891000Y-12361072D02*
X16891000Y-10414000D01*
X16256000Y-9779000D02*
X6477000Y-9779000D01*
X5758000Y-10498000D02*
X5758000Y-12150000D01*
X16651944Y-19542196D02*
X16651946Y-12600126D01*
X15903489Y-21180511D02*
X15903489Y-20290651D01*
X6477000Y-9779000D02*
X5758000Y-10498000D01*
%TO.N,MISO*%
X17399000Y-10160000D02*
X16383000Y-9144000D01*
X3218000Y-10752000D02*
X3218000Y-12150000D01*
X16891004Y-20320000D02*
X17130984Y-20080020D01*
X4826000Y-9144000D02*
X3218000Y-10752000D01*
X17399000Y-12530536D02*
X17399000Y-10160000D01*
X17130985Y-12798551D02*
X17399000Y-12530536D01*
X17130984Y-20080020D02*
X17130985Y-12798551D01*
X16383000Y-9144000D02*
X4826000Y-9144000D01*
%TO.N,MOSI*%
X17370504Y-12897764D02*
X17653000Y-12615268D01*
X17370504Y-20926504D02*
X17370504Y-12897764D01*
X-4402000Y-11600000D02*
X-4402000Y-12150000D01*
X2582268Y-10668000D02*
X-3470000Y-10668000D01*
X16510000Y-8763000D02*
X4487268Y-8763000D01*
X17780000Y-21336000D02*
X17370504Y-20926504D01*
X17653000Y-9906000D02*
X16510000Y-8763000D01*
X4487268Y-8763000D02*
X2582268Y-10668000D01*
X-3470000Y-10668000D02*
X-4402000Y-11600000D01*
X17653000Y-12615268D02*
X17653000Y-9906000D01*
%TO.N,DC0*%
X24257000Y-16891000D02*
X25400000Y-18034000D01*
X20701000Y-29083000D02*
X18669000Y-31115000D01*
X18669000Y-31115000D02*
X14351000Y-31115000D01*
X14351000Y-31115000D02*
X13610558Y-30374558D01*
X24003000Y-26416000D02*
X21336000Y-26416000D01*
X20701000Y-28067000D02*
X20701000Y-29083000D01*
X25400000Y-18034000D02*
X25400000Y-25019000D01*
X25400000Y-25019000D02*
X24003000Y-26416000D01*
%TO.N,DCEN_CFG4*%
X20066000Y-24003000D02*
X18699000Y-24003000D01*
X20447000Y-18161000D02*
X20447000Y-23622000D01*
X25527000Y-16383000D02*
X22225000Y-16383000D01*
X18699000Y-24003000D02*
X18445000Y-24257000D01*
X22225000Y-16383000D02*
X20447000Y-18161000D01*
X20447000Y-23622000D02*
X20066000Y-24003000D01*
%TO.N,DCIN_CFG5*%
X26035000Y-24722732D02*
X23833732Y-26924000D01*
X23833732Y-26924000D02*
X18445000Y-26924000D01*
X26035000Y-16637000D02*
X26035000Y-24722732D01*
X26416000Y-16256000D02*
X26035000Y-16637000D01*
%TO.N,DIAG0*%
X22606000Y-13462000D02*
X19304000Y-13462000D01*
X14986000Y-21082000D02*
X15113000Y-21082000D01*
X24257000Y-11811000D02*
X22606000Y-13462000D01*
X13589000Y-22479000D02*
X14986000Y-21082000D01*
%TO.N,DIAG1*%
X20447000Y-16129000D02*
X20066000Y-16510000D01*
X14478000Y-22352000D02*
X13589000Y-23241000D01*
X20701000Y-16129000D02*
X24511000Y-12319000D01*
X17272000Y-22879500D02*
X16656500Y-22879500D01*
X26895511Y-17427489D02*
X26895511Y-12798511D01*
X26895511Y-12798511D02*
X26416000Y-12319000D01*
X20066000Y-22606000D02*
X19558000Y-23114000D01*
X20701000Y-16129000D02*
X20447000Y-16129000D01*
X26670000Y-17653000D02*
X26895511Y-17427489D01*
X26416000Y-12319000D02*
X24511000Y-12319000D01*
X16656500Y-22879500D02*
X16129000Y-22352000D01*
X20066000Y-16510000D02*
X20066000Y-22606000D01*
X13589000Y-23241000D02*
X13589000Y-24892000D01*
X16129000Y-22352000D02*
X14478000Y-22352000D01*
D22*
%TO.N,Net-(J1-Pad1)*%
X27432000Y-2667000D02*
X22733000Y-2667000D01*
X28067000Y-3302000D02*
X30353000Y-3302000D01*
X28067000Y-3302000D02*
X27432000Y-2667000D01*
X30353000Y-3302000D02*
X31280519Y-4229519D01*
%TO.N,VM*%
X17145000Y-4699000D02*
X18415000Y-4699000D01*
X14351000Y-4699000D02*
X15875000Y-4699000D01*
D21*
%TO.N,Net-(JP1-Pad2)*%
X11811000Y-30861000D02*
X4379000Y-30861000D01*
X16129000Y-22733000D02*
X14732000Y-22733000D01*
X17145000Y-23749000D02*
X16129000Y-22733000D01*
X14097000Y-23368000D02*
X14097000Y-28575000D01*
X3218000Y-29700000D02*
X3218000Y-29150000D01*
X14097000Y-28575000D02*
X11811000Y-30861000D01*
X14732000Y-22733000D02*
X14097000Y-23368000D01*
X4379000Y-30861000D02*
X3218000Y-29700000D01*
X17145000Y-24257000D02*
X17145000Y-23749000D01*
%TO.N,Net-(JP2-Pad2)*%
X3848393Y-31128129D02*
X4089264Y-31369000D01*
X17145000Y-26543120D02*
X17145000Y-26924000D01*
X15113000Y-25654000D02*
X16256000Y-25654000D01*
X14478000Y-28829000D02*
X14478000Y-26289000D01*
X16256000Y-25654120D02*
X17145000Y-26543120D01*
X14478000Y-26289000D02*
X15113000Y-25654000D01*
X16256000Y-25654000D02*
X16256000Y-25654120D01*
X11938000Y-31369000D02*
X14478000Y-28829000D01*
X4089264Y-31369000D02*
X11938000Y-31369000D01*
%TD*%
M02*
