%TF.GenerationSoftware,KiCad,Pcbnew,(6.0.0)*%
%TF.CreationDate,2022-03-11T17:00:34+01:00*%
%TF.ProjectId,CompactMotor,436f6d70-6163-4744-9d6f-746f722e6b69,rev?*%
%TF.SameCoordinates,Original*%
%TF.FileFunction,Copper,L4,Bot*%
%TF.FilePolarity,Positive*%
%FSLAX46Y46*%
G04 Gerber Fmt 4.6, Leading zero omitted, Abs format (unit mm)*
G04 Created by KiCad (PCBNEW (6.0.0)) date 2022-03-11 17:00:34*
%MOMM*%
%LPD*%
G01*
G04 APERTURE LIST*
G04 Aperture macros list*
%AMRoundRect*
0 Rectangle with rounded corners*
0 $1 Rounding radius*
0 $2 $3 $4 $5 $6 $7 $8 $9 X,Y pos of 4 corners*
0 Add a 4 corners polygon primitive as box body*
4,1,4,$2,$3,$4,$5,$6,$7,$8,$9,$2,$3,0*
0 Add four circle primitives for the rounded corners*
1,1,$1+$1,$2,$3*
1,1,$1+$1,$4,$5*
1,1,$1+$1,$6,$7*
1,1,$1+$1,$8,$9*
0 Add four rect primitives between the rounded corners*
20,1,$1+$1,$2,$3,$4,$5,0*
20,1,$1+$1,$4,$5,$6,$7,0*
20,1,$1+$1,$6,$7,$8,$9,0*
20,1,$1+$1,$8,$9,$2,$3,0*%
G04 Aperture macros list end*
%TA.AperFunction,SMDPad,CuDef*%
%ADD10RoundRect,0.147500X0.147500X0.172500X-0.147500X0.172500X-0.147500X-0.172500X0.147500X-0.172500X0*%
%TD*%
%TA.AperFunction,ComponentPad*%
%ADD11C,6.000000*%
%TD*%
%TA.AperFunction,ComponentPad*%
%ADD12R,1.700000X1.700000*%
%TD*%
%TA.AperFunction,SMDPad,CuDef*%
%ADD13RoundRect,0.135000X-0.135000X-0.185000X0.135000X-0.185000X0.135000X0.185000X-0.135000X0.185000X0*%
%TD*%
%TA.AperFunction,ComponentPad*%
%ADD14O,1.700000X1.700000*%
%TD*%
%TA.AperFunction,SMDPad,CuDef*%
%ADD15RoundRect,0.135000X0.226274X0.035355X0.035355X0.226274X-0.226274X-0.035355X-0.035355X-0.226274X0*%
%TD*%
%TA.AperFunction,SMDPad,CuDef*%
%ADD16RoundRect,0.225000X0.225000X0.250000X-0.225000X0.250000X-0.225000X-0.250000X0.225000X-0.250000X0*%
%TD*%
%TA.AperFunction,SMDPad,CuDef*%
%ADD17RoundRect,0.225000X-0.225000X-0.250000X0.225000X-0.250000X0.225000X0.250000X-0.225000X0.250000X0*%
%TD*%
%TA.AperFunction,SMDPad,CuDef*%
%ADD18RoundRect,0.225000X-0.250000X0.225000X-0.250000X-0.225000X0.250000X-0.225000X0.250000X0.225000X0*%
%TD*%
%TA.AperFunction,SMDPad,CuDef*%
%ADD19R,2.000000X1.500000*%
%TD*%
%TA.AperFunction,SMDPad,CuDef*%
%ADD20R,2.000000X3.800000*%
%TD*%
%TA.AperFunction,SMDPad,CuDef*%
%ADD21RoundRect,0.250000X-0.450000X-0.250000X0.450000X-0.250000X0.450000X0.250000X-0.450000X0.250000X0*%
%TD*%
%TA.AperFunction,SMDPad,CuDef*%
%ADD22RoundRect,0.135000X-0.185000X0.135000X-0.185000X-0.135000X0.185000X-0.135000X0.185000X0.135000X0*%
%TD*%
%TA.AperFunction,SMDPad,CuDef*%
%ADD23RoundRect,0.062500X-0.362500X-0.062500X0.362500X-0.062500X0.362500X0.062500X-0.362500X0.062500X0*%
%TD*%
%TA.AperFunction,SMDPad,CuDef*%
%ADD24RoundRect,0.062500X-0.062500X-0.362500X0.062500X-0.362500X0.062500X0.362500X-0.062500X0.362500X0*%
%TD*%
%TA.AperFunction,SMDPad,CuDef*%
%ADD25R,3.600000X4.100000*%
%TD*%
%TA.AperFunction,SMDPad,CuDef*%
%ADD26RoundRect,0.225000X0.335876X0.017678X0.017678X0.335876X-0.335876X-0.017678X-0.017678X-0.335876X0*%
%TD*%
%TA.AperFunction,SMDPad,CuDef*%
%ADD27RoundRect,0.135000X0.035355X-0.226274X0.226274X-0.035355X-0.035355X0.226274X-0.226274X0.035355X0*%
%TD*%
%TA.AperFunction,SMDPad,CuDef*%
%ADD28RoundRect,0.225000X0.250000X-0.225000X0.250000X0.225000X-0.250000X0.225000X-0.250000X-0.225000X0*%
%TD*%
%TA.AperFunction,ViaPad*%
%ADD29C,0.600000*%
%TD*%
%TA.AperFunction,Conductor*%
%ADD30C,0.120000*%
%TD*%
%TA.AperFunction,Conductor*%
%ADD31C,0.300000*%
%TD*%
G04 APERTURE END LIST*
D10*
%TO.P,D3,1,K*%
%TO.N,GNDREF*%
X3914000Y-9779000D03*
%TO.P,D3,2,A*%
%TO.N,Net-(D3-Pad2)*%
X2944000Y-9779000D03*
%TD*%
%TO.P,D2,1,K*%
%TO.N,GNDREF*%
X7597000Y-9779000D03*
%TO.P,D2,2,A*%
%TO.N,Net-(D2-Pad2)*%
X6627000Y-9779000D03*
%TD*%
%TO.P,D1,1,K*%
%TO.N,GNDREF*%
X19027000Y-28956000D03*
%TO.P,D1,2,A*%
%TO.N,Net-(D1-Pad2)*%
X18057000Y-28956000D03*
%TD*%
D11*
%TO.P, ,*%
%TO.N,VM*%
X26543000Y-6223000D03*
%TD*%
%TO.P, ,*%
%TO.N,GNDREF*%
X26416000Y-34798000D03*
%TD*%
%TO.P, ,*%
%TO.N,VM*%
X9017000Y-4699000D03*
%TD*%
%TO.P, ,*%
%TO.N,GNDREF*%
X9017000Y-36449000D03*
%TD*%
D12*
%TO.P,J8,1,Pin_1*%
%TO.N,STALLPLUS*%
X3175000Y-39497000D03*
%TD*%
D13*
%TO.P,R1,1*%
%TO.N,5V0*%
X16000000Y-28956000D03*
%TO.P,R1,2*%
%TO.N,Net-(D1-Pad2)*%
X17020000Y-28956000D03*
%TD*%
D12*
%TO.P,J2,1,Pin_1*%
%TO.N,RXD0*%
X4445000Y-4567000D03*
D14*
%TO.P,J2,2,Pin_2*%
%TO.N,TXD0*%
X4445000Y-7107000D03*
%TD*%
D13*
%TO.P,R6,1*%
%TO.N,3V3*%
X4697000Y-32385000D03*
%TO.P,R6,2*%
%TO.N,EN*%
X5717000Y-32385000D03*
%TD*%
D15*
%TO.P,R4,1*%
%TO.N,GNDREF*%
X23855624Y-29062624D03*
%TO.P,R4,2*%
%TO.N,Net-(R4-Pad2)*%
X23134376Y-28341376D03*
%TD*%
D16*
%TO.P,C9,1*%
%TO.N,EN*%
X8649000Y-32385000D03*
%TO.P,C9,2*%
%TO.N,GNDREF*%
X7099000Y-32385000D03*
%TD*%
D17*
%TO.P,C12,1*%
%TO.N,VM*%
X24752000Y-15240000D03*
%TO.P,C12,2*%
%TO.N,GNDREF*%
X26302000Y-15240000D03*
%TD*%
%TO.P,C2,1*%
%TO.N,3V3*%
X15481000Y-40005000D03*
%TO.P,C2,2*%
%TO.N,GNDREF*%
X17031000Y-40005000D03*
%TD*%
D16*
%TO.P,C7,1*%
%TO.N,VM*%
X29223000Y-23736000D03*
%TO.P,C7,2*%
%TO.N,Net-(C7-Pad2)*%
X27673000Y-23736000D03*
%TD*%
D18*
%TO.P,C10,1*%
%TO.N,3V3*%
X13081000Y-35293000D03*
%TO.P,C10,2*%
%TO.N,GNDREF*%
X13081000Y-36843000D03*
%TD*%
D12*
%TO.P,J7,1,Pin_1*%
%TO.N,5V0*%
X3175000Y-1778000D03*
%TD*%
D19*
%TO.P,U2,1,GND*%
%TO.N,GNDREF*%
X21692000Y-33260000D03*
D20*
%TO.P,U2,2,VO*%
%TO.N,3V3*%
X15392000Y-35560000D03*
D19*
X21692000Y-35560000D03*
%TO.P,U2,3,VI*%
%TO.N,5V0*%
X21692000Y-37860000D03*
%TD*%
D12*
%TO.P,J6,1,Pin_1*%
%TO.N,STALLMINUS*%
X30226000Y-43434000D03*
%TD*%
%TO.P,J1,1,Pin_1*%
%TO.N,Net-(J1-Pad1)*%
X22860000Y-2794000D03*
D14*
%TO.P,J1,2,Pin_2*%
%TO.N,Net-(J1-Pad2)*%
X20320000Y-2794000D03*
%TO.P,J1,3,Pin_3*%
%TO.N,Net-(J1-Pad3)*%
X17780000Y-2794000D03*
%TO.P,J1,4,Pin_4*%
%TO.N,Net-(J1-Pad4)*%
X15240000Y-2794000D03*
%TD*%
D13*
%TO.P,R7,1*%
%TO.N,Net-(R7-Pad1)*%
X4824000Y-9779000D03*
%TO.P,R7,2*%
%TO.N,Net-(D2-Pad2)*%
X5844000Y-9779000D03*
%TD*%
D16*
%TO.P,C11,1*%
%TO.N,3V3*%
X13348000Y-33274000D03*
%TO.P,C11,2*%
%TO.N,GNDREF*%
X11798000Y-33274000D03*
%TD*%
D21*
%TO.P,SW1,1,1*%
%TO.N,EN*%
X16383000Y-16764000D03*
X13983000Y-16764000D03*
%TO.P,SW1,2,2*%
%TO.N,GNDREF*%
X16383000Y-12464000D03*
X13983000Y-12464000D03*
%TD*%
D16*
%TO.P,C13,1*%
%TO.N,GNDREF*%
X26302000Y-13335000D03*
%TO.P,C13,2*%
%TO.N,VM*%
X24752000Y-13335000D03*
%TD*%
D22*
%TO.P,R2,1*%
%TO.N,5V0*%
X29337000Y-13206000D03*
%TO.P,R2,2*%
%TO.N,Net-(R2-Pad2)*%
X29337000Y-14226000D03*
%TD*%
D18*
%TO.P,C5,1*%
%TO.N,GNDREF*%
X29210000Y-19037000D03*
%TO.P,C5,2*%
%TO.N,Net-(C5-Pad2)*%
X29210000Y-20587000D03*
%TD*%
D23*
%TO.P,U3,1,CLK*%
%TO.N,GNDREF*%
X20410000Y-22900000D03*
%TO.P,U3,2,~{CS}_CFG3*%
%TO.N,CS*%
X20410000Y-22400000D03*
%TO.P,U3,3,SCK_CFG2*%
%TO.N,SCK*%
X20410000Y-21900000D03*
%TO.P,U3,4,SDI_CFG1*%
%TO.N,MOSI*%
X20410000Y-21400000D03*
%TO.P,U3,5,SDO_CFG0*%
%TO.N,MISO*%
X20410000Y-20900000D03*
%TO.P,U3,6,STEP*%
%TO.N,STEP*%
X20410000Y-20400000D03*
%TO.P,U3,7,DIR*%
%TO.N,DIR*%
X20410000Y-19900000D03*
%TO.P,U3,8,VCC_IO*%
%TO.N,5V0*%
X20410000Y-19400000D03*
%TO.P,U3,9,DNC*%
%TO.N,unconnected-(U3-Pad9)*%
X20410000Y-18900000D03*
%TO.P,U3,10,SPI_MODE*%
%TO.N,SPI_MODE*%
X20410000Y-18400000D03*
D24*
%TO.P,U3,11,NC*%
%TO.N,unconnected-(U3-Pad11)*%
X21110000Y-17700000D03*
%TO.P,U3,12,GNDP*%
%TO.N,GNDREF*%
X21610000Y-17700000D03*
%TO.P,U3,13,OB1*%
%TO.N,Net-(J1-Pad4)*%
X22110000Y-17700000D03*
%TO.P,U3,14,BRB*%
%TO.N,Net-(R5-Pad1)*%
X22610000Y-17700000D03*
%TO.P,U3,15,OB2*%
%TO.N,Net-(J1-Pad3)*%
X23110000Y-17700000D03*
%TO.P,U3,16,VS*%
%TO.N,VM*%
X23610000Y-17700000D03*
%TO.P,U3,17,DCO*%
%TO.N,DC0*%
X24110000Y-17700000D03*
%TO.P,U3,18,DCEN_CFG4*%
%TO.N,DCEN_CFG4*%
X24610000Y-17700000D03*
D23*
%TO.P,U3,19,DCIN_CFG5*%
%TO.N,DCIN_CFG5*%
X25310000Y-18400000D03*
%TO.P,U3,20,DIAG0*%
%TO.N,DIAG0*%
X25310000Y-18900000D03*
%TO.P,U3,21,DIAG1*%
%TO.N,DIAG1*%
X25310000Y-19400000D03*
%TO.P,U3,22,~{DRV_EN}_CFG6*%
%TO.N,TMC_EN*%
X25310000Y-19900000D03*
%TO.P,U3,23,AIN_IREF*%
%TO.N,Net-(R2-Pad2)*%
X25310000Y-20400000D03*
%TO.P,U3,24,GNDA*%
%TO.N,GNDREF*%
X25310000Y-20900000D03*
%TO.P,U3,25,5VOUT*%
%TO.N,5V0*%
X25310000Y-21400000D03*
%TO.P,U3,26,VCC*%
%TO.N,Net-(C5-Pad2)*%
X25310000Y-21900000D03*
%TO.P,U3,27,CPO*%
%TO.N,Net-(C3-Pad2)*%
X25310000Y-22400000D03*
%TO.P,U3,28,CPI*%
%TO.N,Net-(C3-Pad1)*%
X25310000Y-22900000D03*
D24*
%TO.P,U3,29,VCP*%
%TO.N,Net-(C7-Pad2)*%
X24610000Y-23600000D03*
%TO.P,U3,30,VSA*%
%TO.N,VM*%
X24110000Y-23600000D03*
%TO.P,U3,31,VS*%
X23610000Y-23600000D03*
%TO.P,U3,32,OA2*%
%TO.N,Net-(J1-Pad2)*%
X23110000Y-23600000D03*
%TO.P,U3,33,BRA*%
%TO.N,Net-(R4-Pad2)*%
X22610000Y-23600000D03*
%TO.P,U3,34,OA1*%
%TO.N,Net-(J1-Pad1)*%
X22110000Y-23600000D03*
%TO.P,U3,35,GNDP*%
%TO.N,GNDREF*%
X21610000Y-23600000D03*
%TO.P,U3,36,TST_MODE*%
X21110000Y-23600000D03*
D25*
%TO.P,U3,37,EP*%
X22860000Y-20650000D03*
%TD*%
D16*
%TO.P,C3,1*%
%TO.N,Net-(C3-Pad1)*%
X29223000Y-22098000D03*
%TO.P,C3,2*%
%TO.N,Net-(C3-Pad2)*%
X27673000Y-22098000D03*
%TD*%
D12*
%TO.P,J5,1,Pin_1*%
%TO.N,5V0*%
X29210000Y2413000D03*
%TD*%
D15*
%TO.P,R5,1*%
%TO.N,Net-(R5-Pad1)*%
X22225000Y-12192000D03*
%TO.P,R5,2*%
%TO.N,GNDREF*%
X21503752Y-11470752D03*
%TD*%
D26*
%TO.P,C8,1*%
%TO.N,GNDREF*%
X26964008Y-28996008D03*
%TO.P,C8,2*%
%TO.N,VM*%
X25867992Y-27899992D03*
%TD*%
D13*
%TO.P,R8,1*%
%TO.N,Net-(R8-Pad1)*%
X1141000Y-9779000D03*
%TO.P,R8,2*%
%TO.N,Net-(D3-Pad2)*%
X2161000Y-9779000D03*
%TD*%
D18*
%TO.P,C4,1*%
%TO.N,GNDREF*%
X19304000Y-14719000D03*
%TO.P,C4,2*%
%TO.N,5V0*%
X19304000Y-16269000D03*
%TD*%
D16*
%TO.P,C14,1*%
%TO.N,VM*%
X29223000Y-25260000D03*
%TO.P,C14,2*%
%TO.N,GNDREF*%
X27673000Y-25260000D03*
%TD*%
D17*
%TO.P,C1,1*%
%TO.N,5V0*%
X23863000Y-40005000D03*
%TO.P,C1,2*%
%TO.N,GNDREF*%
X25413000Y-40005000D03*
%TD*%
D27*
%TO.P,R3,1*%
%TO.N,Net-(C5-Pad2)*%
X27198376Y-20553624D03*
%TO.P,R3,2*%
%TO.N,5V0*%
X27919624Y-19832376D03*
%TD*%
D17*
%TO.P,C15,1*%
%TO.N,GNDREF*%
X27673000Y-26784000D03*
%TO.P,C15,2*%
%TO.N,VM*%
X29223000Y-26784000D03*
%TD*%
D28*
%TO.P,C6,1*%
%TO.N,GNDREF*%
X29210000Y-17539000D03*
%TO.P,C6,2*%
%TO.N,5V0*%
X29210000Y-15989000D03*
%TD*%
D12*
%TO.P,J3,1,Pin_1*%
%TO.N,GNDREF*%
X4445000Y-34163000D03*
D14*
%TO.P,J3,2,Pin_2*%
%TO.N,IO0*%
X4445000Y-36703000D03*
%TD*%
D29*
%TO.N,5V0*%
X19304000Y-18796000D03*
X15113000Y-28956000D03*
X29210000Y-15989000D03*
X29337000Y-12446000D03*
X20320000Y-39751000D03*
X27940000Y-1143000D03*
X27940000Y-17456000D03*
%TO.N,GNDREF*%
X1128000Y-23750000D03*
X-272000Y-21650000D03*
X13589000Y-26416000D03*
X428000Y-22350000D03*
X19304000Y-14732000D03*
X21360000Y-22150000D03*
X23610000Y-20650000D03*
X1828000Y-20250000D03*
X24360000Y-22150000D03*
X1828000Y-22350000D03*
X428000Y-20950000D03*
X21082000Y-16510000D03*
X1828000Y-23050000D03*
X2528000Y-20950000D03*
X1828000Y-23750000D03*
X1828000Y-21650000D03*
X3928000Y-20950000D03*
X23610000Y-22150000D03*
X3928000Y-23750000D03*
X24360000Y-19150000D03*
X20828000Y-10795000D03*
X-5669550Y-12065000D03*
X29210000Y-17526000D03*
X2528000Y-22350000D03*
X3228000Y-23750000D03*
X-272000Y-20250000D03*
X21360000Y-19900000D03*
X1828000Y-20950000D03*
X428000Y-23050000D03*
X22860000Y-20650000D03*
X-272000Y-20950000D03*
X3228000Y-20250000D03*
X18288000Y-40005000D03*
X22860000Y-21400000D03*
X428000Y-19550000D03*
X27686000Y-25260000D03*
X-5588000Y-30861000D03*
X23610000Y-19150000D03*
X15875000Y-24257000D03*
X3928000Y-20250000D03*
X2528000Y-23750000D03*
X3228000Y-19550000D03*
X15113000Y-11557000D03*
X21360000Y-21400000D03*
X2528000Y-21650000D03*
X2528000Y-23050000D03*
X1128000Y-23050000D03*
X20828000Y-30480000D03*
X-272000Y-19550000D03*
X29210000Y-19050000D03*
X27686000Y-26784000D03*
X24360000Y-21400000D03*
X428000Y-20250000D03*
X26289000Y-13335000D03*
X24360000Y-19900000D03*
X-272000Y-23050000D03*
X21360000Y-19150000D03*
X3928000Y-21650000D03*
X3228000Y-21650000D03*
X22110000Y-20650000D03*
X26289000Y-15240000D03*
X22110000Y-19900000D03*
X22110000Y-19150000D03*
X1128000Y-20250000D03*
X1128000Y-20950000D03*
X24360000Y-20650000D03*
X24892000Y-29402500D03*
X26416000Y-40005000D03*
X15875000Y-26924000D03*
X1128000Y-19550000D03*
X22860000Y-19900000D03*
X22860000Y-19150000D03*
X23610000Y-21400000D03*
X3228000Y-20950000D03*
X1828000Y-19550000D03*
X22860000Y-22150000D03*
X3228000Y-23050000D03*
X2528000Y-19550000D03*
X2528000Y-20250000D03*
X22110000Y-21400000D03*
X1128000Y-21650000D03*
X428000Y-21650000D03*
X428000Y-23750000D03*
X6223000Y-8255000D03*
X-272000Y-23750000D03*
X1128000Y-22350000D03*
X-272000Y-22350000D03*
X21360000Y-20650000D03*
X3928000Y-23050000D03*
X3228000Y-22350000D03*
X22110000Y-22150000D03*
X23610000Y-19900000D03*
X3928000Y-19550000D03*
X3928000Y-22350000D03*
X28702000Y-29464000D03*
%TO.N,3V3*%
X-4191000Y-30861000D03*
%TO.N,EN*%
X-2413000Y-30861000D03*
%TO.N,IO0*%
X2159000Y-31115000D03*
X10838000Y-12150000D03*
%TO.N,STALLPLUS*%
X5758000Y-29150000D03*
X10414000Y-31848500D03*
%TO.N,STALLMINUS*%
X11811000Y-31877000D03*
X7028000Y-29150000D03*
%TO.N,SCK*%
X16383000Y-21209000D03*
%TO.N,DIR*%
X18669000Y-11557000D03*
X18796000Y-19685000D03*
X16411500Y-10795000D03*
%TO.N,STEP*%
X18542000Y-12319000D03*
X17850015Y-19939000D03*
X15367000Y-10258500D03*
%TO.N,TMC_EN*%
X12446000Y-8255000D03*
X26785876Y-18542990D03*
X8255000Y-10258500D03*
%TO.N,CS*%
X15240000Y-21844000D03*
%TO.N,MISO*%
X16891004Y-20320000D03*
%TO.N,MOSI*%
X17780000Y-21336000D03*
%TO.N,DC0*%
X20701000Y-28067000D03*
X24257000Y-16891000D03*
X21336000Y-26416000D03*
X8298000Y-29150000D03*
X13610558Y-30374558D03*
%TO.N,DCEN_CFG4*%
X25527000Y-16383000D03*
%TO.N,DCIN_CFG5*%
X26416000Y-16256000D03*
%TO.N,DIAG0*%
X19304000Y-13462000D03*
X678000Y-29150000D03*
X24257000Y-11811000D03*
X15113000Y-21082000D03*
X13589000Y-22479000D03*
%TO.N,DIAG1*%
X26670000Y-17653000D03*
X19558000Y-23114000D03*
X1948000Y-29150000D03*
X17272000Y-22879500D03*
X13589000Y-24892000D03*
%TO.N,Net-(J1-Pad1)*%
X31280519Y-4229519D03*
%TO.N,VM*%
X18415000Y-4699000D03*
X17145000Y-4699000D03*
X15875000Y-4699000D03*
X14351000Y-4699000D03*
%TO.N,Net-(JP2-Pad2)*%
X4488000Y-29150000D03*
X3848393Y-31128129D03*
%TO.N,Net-(R7-Pad1)*%
X678000Y-12150000D03*
%TO.N,Net-(R8-Pad1)*%
X-3132000Y-12150000D03*
%TD*%
D30*
%TO.N,5V0*%
X23863000Y-40005000D02*
X21718000Y-37860000D01*
X21692000Y-37860000D02*
X20320000Y-39232000D01*
X19908000Y-19400000D02*
X19304000Y-18796000D01*
X26035000Y-21082000D02*
X25717000Y-21400000D01*
X29337000Y-13206000D02*
X29337000Y-12446000D01*
X27940000Y-18923000D02*
X26035000Y-20828000D01*
X27919624Y-18816376D02*
X27940000Y-18796000D01*
X20320000Y-39232000D02*
X20320000Y-39751000D01*
X19304000Y-16269000D02*
X19304000Y-18796000D01*
X21718000Y-37860000D02*
X21692000Y-37860000D01*
X27940000Y-17259000D02*
X29210000Y-15989000D01*
X27940000Y-18796000D02*
X27940000Y-18923000D01*
X27919624Y-19832376D02*
X27919624Y-18816376D01*
X27940000Y-17456000D02*
X27940000Y-17259000D01*
X20410000Y-19400000D02*
X19908000Y-19400000D01*
X27940000Y-17456000D02*
X27940000Y-18796000D01*
X26035000Y-20828000D02*
X26035000Y-21082000D01*
X25717000Y-21400000D02*
X25310000Y-21400000D01*
X16000000Y-28956000D02*
X15113000Y-28956000D01*
%TO.N,GNDREF*%
X13081000Y-36843000D02*
X9411000Y-36843000D01*
D31*
X26964008Y-28996008D02*
X27432000Y-29464000D01*
D30*
X29210000Y-17539000D02*
X29210000Y-17526000D01*
X16020000Y-12464000D02*
X15113000Y-11557000D01*
X21610000Y-17700000D02*
X21610000Y-19400000D01*
D31*
X27432000Y-29464000D02*
X28702000Y-29464000D01*
D30*
X21503752Y-11470752D02*
X20828000Y-10795000D01*
X25413000Y-40005000D02*
X26416000Y-40005000D01*
X21110000Y-23600000D02*
X21110000Y-22400000D01*
X20860000Y-22900000D02*
X22860000Y-20900000D01*
X21610000Y-17038000D02*
X21082000Y-16510000D01*
X21610000Y-19400000D02*
X22860000Y-20650000D01*
X21610000Y-17700000D02*
X21610000Y-17038000D01*
X24384000Y-29464000D02*
X24830500Y-29464000D01*
X20386000Y-30480000D02*
X18862000Y-28956000D01*
X27673000Y-26784000D02*
X27686000Y-26784000D01*
X21610000Y-23600000D02*
X21610000Y-21900000D01*
X27673000Y-25260000D02*
X27686000Y-25260000D01*
X15113000Y-11557000D02*
X14206000Y-12464000D01*
X21110000Y-22400000D02*
X22860000Y-20650000D01*
X11798000Y-33274000D02*
X11798000Y-33668000D01*
X5273000Y-8255000D02*
X3749000Y-9779000D01*
X22860000Y-20900000D02*
X22860000Y-20650000D01*
X7099000Y-34531000D02*
X9017000Y-36449000D01*
X29210000Y-19037000D02*
X29210000Y-19050000D01*
X7099000Y-32385000D02*
X7099000Y-34531000D01*
X24830500Y-29464000D02*
X24892000Y-29402500D01*
X20828000Y-30480000D02*
X20828000Y-32396000D01*
X25310000Y-20900000D02*
X23110000Y-20900000D01*
X23982624Y-29062624D02*
X24384000Y-29464000D01*
X6223000Y-8255000D02*
X5273000Y-8255000D01*
X23855624Y-29062624D02*
X23982624Y-29062624D01*
X13983000Y-12464000D02*
X16383000Y-12464000D01*
X20828000Y-32396000D02*
X21692000Y-33260000D01*
X19304000Y-14719000D02*
X19304000Y-14732000D01*
X11798000Y-33668000D02*
X9017000Y-36449000D01*
X26302000Y-15240000D02*
X26289000Y-15240000D01*
X26302000Y-13335000D02*
X26289000Y-13335000D01*
X23110000Y-20900000D02*
X22860000Y-20650000D01*
X17031000Y-40005000D02*
X18288000Y-40005000D01*
X6223000Y-8255000D02*
X6223000Y-8584700D01*
X20410000Y-22900000D02*
X20860000Y-22900000D01*
X9411000Y-36843000D02*
X9017000Y-36449000D01*
X20828000Y-30480000D02*
X20386000Y-30480000D01*
X7417300Y-9779000D02*
X7432000Y-9779000D01*
X6223000Y-8584700D02*
X7417300Y-9779000D01*
%TO.N,3V3*%
X-2540000Y-31496000D02*
X-3175000Y-30861000D01*
X4697000Y-32385000D02*
X3683000Y-32385000D01*
X889000Y-31496000D02*
X-2540000Y-31496000D01*
X13348000Y-35560000D02*
X13081000Y-35293000D01*
X21692000Y-35560000D02*
X15392000Y-35560000D01*
X-3175000Y-30861000D02*
X-4191000Y-30861000D01*
X14973000Y-39497000D02*
X15481000Y-40005000D01*
X1269999Y-31876999D02*
X889000Y-31496000D01*
X3683000Y-32385000D02*
X3174999Y-31876999D01*
X4191000Y-37973000D02*
X2794000Y-37973000D01*
X1651000Y-36830000D02*
X1651000Y-31877000D01*
X13970000Y-35560000D02*
X13970000Y-39497000D01*
X6223000Y-40005000D02*
X4191000Y-37973000D01*
X13462000Y-40005000D02*
X6223000Y-40005000D01*
X13970000Y-39497000D02*
X13462000Y-40005000D01*
X3174999Y-31876999D02*
X1269999Y-31876999D01*
X15392000Y-35318000D02*
X13348000Y-33274000D01*
X13970000Y-39497000D02*
X14973000Y-39497000D01*
X15392000Y-35560000D02*
X15392000Y-35318000D01*
X2794000Y-37973000D02*
X1651000Y-36830000D01*
X15392000Y-35560000D02*
X13348000Y-35560000D01*
%TO.N,Net-(D1-Pad2)*%
X17020000Y-28956000D02*
X18222000Y-28956000D01*
%TO.N,EN*%
X889000Y-30861000D02*
X1665480Y-31637480D01*
X8649000Y-32385000D02*
X8776000Y-32512000D01*
X14478000Y-18669000D02*
X16383000Y-16764000D01*
X7901480Y-31637480D02*
X8649000Y-32385000D01*
X5717000Y-31653960D02*
X5700520Y-31637480D01*
X14478000Y-30226000D02*
X14478000Y-18669000D01*
X16383000Y-16764000D02*
X13983000Y-16764000D01*
X13983000Y-18174000D02*
X14478000Y-18669000D01*
X13983000Y-16764000D02*
X13983000Y-18174000D01*
X12192000Y-32512000D02*
X14478000Y-30226000D01*
X-2413000Y-30861000D02*
X889000Y-30861000D01*
X1665480Y-31637480D02*
X5700520Y-31637480D01*
X8776000Y-32512000D02*
X12192000Y-32512000D01*
X5717000Y-32385000D02*
X5717000Y-31653960D01*
X5700520Y-31637480D02*
X7901480Y-31637480D01*
%TO.N,Net-(D2-Pad2)*%
X5844000Y-9779000D02*
X6792000Y-9779000D01*
%TO.N,Net-(D3-Pad2)*%
X2161000Y-9779000D02*
X3109000Y-9779000D01*
%TO.N,IO0*%
X9525000Y-25273000D02*
X9525000Y-15113000D01*
X-1016000Y-26543000D02*
X8255000Y-26543000D01*
X10838000Y-13800000D02*
X10838000Y-12150000D01*
X-635000Y-30480000D02*
X-1778000Y-29337000D01*
X-1778000Y-27305000D02*
X-1016000Y-26543000D01*
X-1778000Y-29337000D02*
X-1778000Y-27305000D01*
X9525000Y-15113000D02*
X10838000Y-13800000D01*
X1524000Y-30480000D02*
X-635000Y-30480000D01*
X8255000Y-26543000D02*
X9525000Y-25273000D01*
X2159000Y-31115000D02*
X1524000Y-30480000D01*
%TO.N,STALLPLUS*%
X7493000Y-31115000D02*
X5758000Y-29380000D01*
X5758000Y-29380000D02*
X5758000Y-29150000D01*
X9680500Y-31115000D02*
X7493000Y-31115000D01*
X10414000Y-31848500D02*
X9680500Y-31115000D01*
%TO.N,STALLMINUS*%
X7493000Y-30607000D02*
X7028000Y-30142000D01*
X7028000Y-30142000D02*
X7028000Y-29150000D01*
X11811000Y-31877000D02*
X10541000Y-30607000D01*
X10541000Y-30607000D02*
X7493000Y-30607000D01*
%TO.N,SCK*%
X16383000Y-21209000D02*
X17074000Y-21900000D01*
X17074000Y-21900000D02*
X20410000Y-21900000D01*
%TO.N,DIR*%
X17907000Y-10795000D02*
X18669000Y-11557000D01*
X18796000Y-19685000D02*
X19011000Y-19900000D01*
X19011000Y-19900000D02*
X20410000Y-19900000D01*
X16411500Y-10795000D02*
X17907000Y-10795000D01*
%TO.N,STEP*%
X18669000Y-12319000D02*
X18542000Y-12319000D01*
X19431000Y-11557000D02*
X18669000Y-12319000D01*
X17850015Y-19939000D02*
X18311015Y-20400000D01*
X18182558Y-10308558D02*
X19431000Y-11557000D01*
X18311015Y-20400000D02*
X20410000Y-20400000D01*
X15367000Y-10258500D02*
X15417058Y-10308558D01*
X15417058Y-10308558D02*
X18182558Y-10308558D01*
%TO.N,TMC_EN*%
X10258500Y-8255000D02*
X12446000Y-8255000D01*
X26785876Y-18691391D02*
X25577267Y-19900000D01*
X26785876Y-18542990D02*
X26785876Y-18691391D01*
X25577267Y-19900000D02*
X25310000Y-19900000D01*
X8255000Y-10258500D02*
X10258500Y-8255000D01*
%TO.N,CS*%
X15796000Y-22400000D02*
X20410000Y-22400000D01*
X15240000Y-21844000D02*
X15796000Y-22400000D01*
%TO.N,MISO*%
X20410000Y-20900000D02*
X20366489Y-20856489D01*
X20366489Y-20856489D02*
X17427493Y-20856489D01*
X17427493Y-20856489D02*
X16891004Y-20320000D01*
%TO.N,MOSI*%
X17780000Y-21336000D02*
X17844000Y-21400000D01*
X17844000Y-21400000D02*
X20410000Y-21400000D01*
%TO.N,DC0*%
X8298000Y-28278000D02*
X8298000Y-29150000D01*
X13610558Y-30374558D02*
X13610558Y-29612558D01*
X24110000Y-17700000D02*
X24110000Y-17038000D01*
X11557000Y-27559000D02*
X9017000Y-27559000D01*
X24110000Y-17038000D02*
X24257000Y-16891000D01*
X20701000Y-27051000D02*
X20701000Y-28067000D01*
X21336000Y-26416000D02*
X20701000Y-27051000D01*
X13610558Y-29612558D02*
X11557000Y-27559000D01*
X9017000Y-27559000D02*
X8298000Y-28278000D01*
%TO.N,DCEN_CFG4*%
X25527000Y-16383000D02*
X24610000Y-17300000D01*
X24610000Y-17300000D02*
X24610000Y-17700000D01*
%TO.N,DCIN_CFG5*%
X26416000Y-16256000D02*
X25310000Y-17362000D01*
X25310000Y-17362000D02*
X25310000Y-18400000D01*
%TO.N,DIAG0*%
X26035000Y-17399000D02*
X27559000Y-15875000D01*
X25577267Y-18900000D02*
X26035000Y-18442267D01*
X27559000Y-15875000D02*
X27559000Y-12700000D01*
X678000Y-27897000D02*
X678000Y-29150000D01*
X15113000Y-21082000D02*
X17780000Y-18415000D01*
X17780000Y-14986000D02*
X19304000Y-13462000D01*
X25310000Y-18900000D02*
X25577267Y-18900000D01*
X26035000Y-18442267D02*
X26035000Y-17399000D01*
X27559000Y-12700000D02*
X26670000Y-11811000D01*
X17780000Y-18415000D02*
X17780000Y-14986000D01*
X13589000Y-22479000D02*
X13589000Y-22606000D01*
X1651000Y-26924000D02*
X678000Y-27897000D01*
X13589000Y-22606000D02*
X9271000Y-26924000D01*
X26670000Y-11811000D02*
X24257000Y-11811000D01*
X9271000Y-26924000D02*
X1651000Y-26924000D01*
%TO.N,DIAG1*%
X1905000Y-27940000D02*
X1905000Y-29107000D01*
X13589000Y-24892000D02*
X11176000Y-27305000D01*
X17506500Y-23114000D02*
X17272000Y-22879500D01*
X2540000Y-27305000D02*
X1905000Y-27940000D01*
X19558000Y-23114000D02*
X17506500Y-23114000D01*
X25310000Y-19400000D02*
X25594022Y-19400000D01*
X26274520Y-18048480D02*
X26670000Y-17653000D01*
X1905000Y-29107000D02*
X1948000Y-29150000D01*
X26274520Y-18719502D02*
X26274520Y-18048480D01*
X25594022Y-19400000D02*
X26274520Y-18719502D01*
X11176000Y-27305000D02*
X2540000Y-27305000D01*
%TO.N,Net-(C3-Pad1)*%
X25310000Y-22900000D02*
X28421000Y-22900000D01*
X28421000Y-22900000D02*
X29223000Y-22098000D01*
%TO.N,Net-(C3-Pad2)*%
X27673000Y-22098000D02*
X27371000Y-22400000D01*
X27371000Y-22400000D02*
X25310000Y-22400000D01*
%TO.N,Net-(C5-Pad2)*%
X26487000Y-21900000D02*
X25310000Y-21900000D01*
X27198376Y-20553624D02*
X27231752Y-20587000D01*
X26487000Y-21900000D02*
X26487000Y-21265000D01*
X26487000Y-21265000D02*
X27198376Y-20553624D01*
X27231752Y-20587000D02*
X29210000Y-20587000D01*
%TO.N,Net-(C7-Pad2)*%
X27043480Y-24365520D02*
X25375520Y-24365520D01*
X25375520Y-24365520D02*
X24610000Y-23600000D01*
X27673000Y-23736000D02*
X27043480Y-24365520D01*
D31*
%TO.N,Net-(J1-Pad1)*%
X22110000Y-28150707D02*
X22110000Y-23600000D01*
X31280519Y-28875771D02*
X29383770Y-30772520D01*
X29383770Y-30772520D02*
X24731813Y-30772520D01*
X31280519Y-4229519D02*
X31280519Y-28875771D01*
X24731813Y-30772520D02*
X22110000Y-28150707D01*
%TO.N,Net-(J1-Pad2)*%
X23110000Y-23600000D02*
X23110000Y-26793000D01*
X25400000Y-635000D02*
X22225000Y-635000D01*
X29210000Y-30353000D02*
X30861000Y-28702000D01*
X27813000Y-3048000D02*
X25400000Y-635000D01*
X30861000Y-5207000D02*
X28702000Y-3048000D01*
X28702000Y-3048000D02*
X27813000Y-3048000D01*
X26670000Y-30353000D02*
X29210000Y-30353000D01*
X22225000Y-635000D02*
X20193000Y-2667000D01*
X30861000Y-28702000D02*
X30861000Y-5207000D01*
X23110000Y-26793000D02*
X26670000Y-30353000D01*
%TO.N,Net-(J1-Pad3)*%
X20447000Y-9144000D02*
X19050000Y-9144000D01*
X23110000Y-17700000D02*
X23110000Y-11807000D01*
X17714511Y-4934900D02*
X17714511Y-2728511D01*
X17653000Y-7747000D02*
X17653000Y-4996411D01*
X23110000Y-11807000D02*
X20447000Y-9144000D01*
X17653000Y-4996411D02*
X17714511Y-4934900D01*
X19050000Y-9144000D02*
X17653000Y-7747000D01*
%TO.N,Net-(J1-Pad4)*%
X22110000Y-13474000D02*
X17399000Y-8763000D01*
X15113000Y-7366000D02*
X15113000Y-2667000D01*
X17399000Y-8763000D02*
X16510000Y-8763000D01*
X16510000Y-8763000D02*
X15113000Y-7366000D01*
X22110000Y-17700000D02*
X22110000Y-13474000D01*
D30*
%TO.N,Net-(R2-Pad2)*%
X27432000Y-18669000D02*
X27432000Y-16934132D01*
X27940000Y-15113000D02*
X28827000Y-14226000D01*
X27940000Y-16426132D02*
X27940000Y-15113000D01*
X25701000Y-20400000D02*
X27432000Y-18669000D01*
X28827000Y-14226000D02*
X29337000Y-14226000D01*
X27432000Y-16934132D02*
X27940000Y-16426132D01*
X25310000Y-20400000D02*
X25701000Y-20400000D01*
%TO.N,Net-(R4-Pad2)*%
X22610000Y-23600000D02*
X22610000Y-27817000D01*
X22610000Y-27817000D02*
X23134376Y-28341376D01*
%TO.N,Net-(R5-Pad1)*%
X22610000Y-12577000D02*
X22610000Y-17700000D01*
X22225000Y-12192000D02*
X22610000Y-12577000D01*
D31*
%TO.N,VM*%
X9017000Y-4699000D02*
X14351000Y-4699000D01*
X23610000Y-15252000D02*
X23610000Y-13323000D01*
X25486992Y-27899992D02*
X25867992Y-27899992D01*
X30353000Y-26784000D02*
X30353000Y-27800000D01*
X30226000Y-25260000D02*
X30353000Y-25387000D01*
X23610000Y-25134000D02*
X23610000Y-23600000D01*
X22860000Y-6096000D02*
X22860000Y-8001000D01*
X29223000Y-23736000D02*
X30226000Y-23736000D01*
X30353000Y-23609000D02*
X30353000Y-25387000D01*
X24658000Y-25420000D02*
X24110000Y-25420000D01*
X24752000Y-15240000D02*
X23622000Y-15240000D01*
X30353000Y-23609000D02*
X30353000Y-10033000D01*
X27292000Y-28054000D02*
X24658000Y-25420000D01*
X21463000Y-4699000D02*
X22860000Y-6096000D01*
X23622000Y-15240000D02*
X23610000Y-15252000D01*
X23622000Y-13335000D02*
X23610000Y-13323000D01*
X22860000Y-8001000D02*
X23610000Y-8751000D01*
X29223000Y-26784000D02*
X30353000Y-26784000D01*
X30099000Y-28054000D02*
X27292000Y-28054000D01*
X24110000Y-25634000D02*
X23610000Y-25134000D01*
X30353000Y-10033000D02*
X26543000Y-6223000D01*
X15875000Y-4699000D02*
X17145000Y-4699000D01*
X30353000Y-25387000D02*
X30353000Y-26784000D01*
X18415000Y-4699000D02*
X21463000Y-4699000D01*
X30226000Y-23736000D02*
X30353000Y-23609000D01*
X24110000Y-26523000D02*
X25486992Y-27899992D01*
X24110000Y-26523000D02*
X24110000Y-23600000D01*
X29223000Y-25260000D02*
X30226000Y-25260000D01*
X23610000Y-8751000D02*
X23610000Y-13323000D01*
X23610000Y-9156000D02*
X26543000Y-6223000D01*
X23610000Y-17700000D02*
X23610000Y-15252000D01*
X30353000Y-27800000D02*
X30099000Y-28054000D01*
X24752000Y-13335000D02*
X23622000Y-13335000D01*
D30*
%TO.N,Net-(JP2-Pad2)*%
X3848393Y-31128129D02*
X4488000Y-30488522D01*
X4488000Y-30488522D02*
X4488000Y-29150000D01*
%TO.N,Net-(R7-Pad1)*%
X1524000Y-10668000D02*
X3935000Y-10668000D01*
X3935000Y-10668000D02*
X4824000Y-9779000D01*
X678000Y-12150000D02*
X678000Y-11514000D01*
X678000Y-11514000D02*
X1524000Y-10668000D01*
%TO.N,Net-(R8-Pad1)*%
X-2413000Y-10541000D02*
X379000Y-10541000D01*
X-3132000Y-12150000D02*
X-3132000Y-11260000D01*
X379000Y-10541000D02*
X1141000Y-9779000D01*
X-3132000Y-11260000D02*
X-2413000Y-10541000D01*
%TD*%
M02*
