M48
; DRILL file {KiCad (6.0.0)} date Fri Mar 11 17:00:32 2022
; FORMAT={-:-/ absolute / inch / decimal}
; #@! TF.CreationDate,2022-03-11T17:00:32+01:00
; #@! TF.GenerationSoftware,Kicad,Pcbnew,(6.0.0)
; #@! TF.FileFunction,Plated,1,4,PTH
FMAT,2
INCH
; #@! TA.AperFunction,Plated,PTH,ViaDrill
T1C0.0118
; #@! TA.AperFunction,Plated,PTH,ComponentDrill
T2C0.0394
; #@! TA.AperFunction,Plated,PTH,ComponentDrill
T3C0.1693
%
G90
G05
T1
X-0.2232Y-0.475
X-0.22Y-1.215
X-0.165Y-1.215
X-0.1233Y-0.4783
X-0.095Y-1.215
X-0.0107Y-0.7697
X-0.0107Y-0.7972
X-0.0107Y-0.8248
X-0.0107Y-0.8524
X-0.0107Y-0.8799
X-0.0107Y-0.9075
X-0.0107Y-0.935
X0.0169Y-0.7697
X0.0169Y-0.7972
X0.0169Y-0.8248
X0.0169Y-0.8524
X0.0169Y-0.8799
X0.0169Y-0.9075
X0.0169Y-0.935
X0.0267Y-0.4783
X0.0267Y-1.1476
X0.0444Y-0.7697
X0.0444Y-0.7972
X0.0444Y-0.8248
X0.0444Y-0.8524
X0.0444Y-0.8799
X0.0444Y-0.9075
X0.0444Y-0.935
X0.072Y-0.7697
X0.072Y-0.7972
X0.072Y-0.8248
X0.072Y-0.8524
X0.072Y-0.8799
X0.072Y-0.9075
X0.072Y-0.935
X0.0767Y-1.1476
X0.085Y-1.225
X0.0995Y-0.7697
X0.0995Y-0.7972
X0.0995Y-0.8248
X0.0995Y-0.8524
X0.0995Y-0.8799
X0.0995Y-0.9075
X0.0995Y-0.935
X0.1271Y-0.7697
X0.1271Y-0.7972
X0.1271Y-0.8248
X0.1271Y-0.8524
X0.1271Y-0.8799
X0.1271Y-0.9075
X0.1271Y-0.935
X0.1515Y-1.2255
X0.1546Y-0.7697
X0.1546Y-0.7972
X0.1546Y-0.8248
X0.1546Y-0.8524
X0.1546Y-0.8799
X0.1546Y-0.9075
X0.1546Y-0.935
X0.1767Y-1.1476
X0.2267Y-1.1476
X0.245Y-0.325
X0.2767Y-1.1476
X0.325Y-0.4039
X0.3267Y-1.1476
X0.41Y-1.2539
X0.4267Y-0.4783
X0.465Y-1.255
X0.49Y-0.325
X0.535Y-0.885
X0.535Y-0.98
X0.535Y-1.04
X0.5358Y-1.1958
X0.565Y-0.185
X0.595Y-0.455
X0.595Y-0.83
X0.595Y-1.14
X0.6Y-0.86
X0.605Y-0.4039
X0.625Y-0.185
X0.625Y-0.955
X0.625Y-1.06
X0.645Y-0.835
X0.6461Y-0.425
X0.665Y-0.8
X0.675Y-0.185
X0.68Y-0.9008
X0.7Y-0.84
X0.7028Y-0.785
X0.72Y-1.575
X0.725Y-0.185
X0.73Y-0.485
X0.735Y-0.455
X0.74Y-0.775
X0.76Y-0.53
X0.76Y-0.58
X0.76Y-0.74
X0.77Y-0.91
X0.8Y-1.565
X0.815Y-1.105
X0.82Y-0.425
X0.82Y-1.2
X0.83Y-0.65
X0.84Y-1.04
X0.8409Y-0.7539
X0.8409Y-0.7835
X0.8409Y-0.813
X0.8409Y-0.8425
X0.8409Y-0.872
X0.8705Y-0.7539
X0.8705Y-0.7835
X0.8705Y-0.813
X0.8705Y-0.8425
X0.8705Y-0.872
X0.9Y-0.7539
X0.9Y-0.7835
X0.9Y-0.813
X0.9Y-0.8425
X0.9Y-0.872
X0.9295Y-0.7539
X0.9295Y-0.7835
X0.9295Y-0.813
X0.9295Y-0.8425
X0.9295Y-0.872
X0.955Y-0.465
X0.955Y-0.665
X0.9591Y-0.7539
X0.9591Y-0.7835
X0.9591Y-0.813
X0.9591Y-0.8425
X0.9591Y-0.872
X0.98Y-1.1576
X1.005Y-0.645
X1.035Y-0.525
X1.035Y-0.6
X1.04Y-0.64
X1.04Y-1.575
X1.05Y-0.695
X1.0546Y-0.73
X1.09Y-0.9945
X1.09Y-1.0545
X1.1Y-0.045
X1.1Y-0.6872
X1.13Y-1.16
X1.15Y-0.6295
X1.15Y-0.69
X1.15Y-0.75
X1.155Y-0.49
X1.2315Y-0.1665
T2
X0.125Y-0.07
X0.125Y-1.555
X0.175Y-0.1798
X0.175Y-0.2798
X0.175Y-1.345
X0.175Y-1.445
X0.6Y-0.11
X0.7Y-0.11
X0.8Y-0.11
X0.9Y-0.11
X1.15Y0.095
X1.19Y-1.71
T3
X0.355Y-0.185
X0.355Y-1.435
X1.04Y-1.37
X1.045Y-0.245
T0
M30
