%TF.GenerationSoftware,KiCad,Pcbnew,(6.0.0)*%
%TF.CreationDate,2022-03-11T17:00:34+01:00*%
%TF.ProjectId,CompactMotor,436f6d70-6163-4744-9d6f-746f722e6b69,rev?*%
%TF.SameCoordinates,Original*%
%TF.FileFunction,Legend,Bot*%
%TF.FilePolarity,Positive*%
%FSLAX46Y46*%
G04 Gerber Fmt 4.6, Leading zero omitted, Abs format (unit mm)*
G04 Created by KiCad (PCBNEW (6.0.0)) date 2022-03-11 17:00:34*
%MOMM*%
%LPD*%
G01*
G04 APERTURE LIST*
%ADD10C,0.125000*%
%ADD11C,0.150000*%
%ADD12C,0.100000*%
%ADD13C,0.120000*%
G04 APERTURE END LIST*
D10*
X6722904Y-40588380D02*
X6651476Y-40612190D01*
X6532428Y-40612190D01*
X6484809Y-40588380D01*
X6461000Y-40564571D01*
X6437190Y-40516952D01*
X6437190Y-40469333D01*
X6461000Y-40421714D01*
X6484809Y-40397904D01*
X6532428Y-40374095D01*
X6627666Y-40350285D01*
X6675285Y-40326476D01*
X6699095Y-40302666D01*
X6722904Y-40255047D01*
X6722904Y-40207428D01*
X6699095Y-40159809D01*
X6675285Y-40136000D01*
X6627666Y-40112190D01*
X6508619Y-40112190D01*
X6437190Y-40136000D01*
X6294333Y-40112190D02*
X6008619Y-40112190D01*
X6151476Y-40612190D02*
X6151476Y-40112190D01*
X5865761Y-40469333D02*
X5627666Y-40469333D01*
X5913380Y-40612190D02*
X5746714Y-40112190D01*
X5580047Y-40612190D01*
X5175285Y-40612190D02*
X5413380Y-40612190D01*
X5413380Y-40112190D01*
X4770523Y-40612190D02*
X5008619Y-40612190D01*
X5008619Y-40112190D01*
X4603857Y-40421714D02*
X4222904Y-40421714D01*
X4413380Y-40612190D02*
X4413380Y-40231238D01*
X5778428Y-3147190D02*
X5945095Y-2909095D01*
X6064142Y-3147190D02*
X6064142Y-2647190D01*
X5873666Y-2647190D01*
X5826047Y-2671000D01*
X5802238Y-2694809D01*
X5778428Y-2742428D01*
X5778428Y-2813857D01*
X5802238Y-2861476D01*
X5826047Y-2885285D01*
X5873666Y-2909095D01*
X6064142Y-2909095D01*
X5611761Y-2647190D02*
X5278428Y-3147190D01*
X5278428Y-2647190D02*
X5611761Y-3147190D01*
X5087952Y-3147190D02*
X5087952Y-2647190D01*
X4968904Y-2647190D01*
X4897476Y-2671000D01*
X4849857Y-2718619D01*
X4826047Y-2766238D01*
X4802238Y-2861476D01*
X4802238Y-2932904D01*
X4826047Y-3028142D01*
X4849857Y-3075761D01*
X4897476Y-3123380D01*
X4968904Y-3147190D01*
X5087952Y-3147190D01*
X4492714Y-2647190D02*
X4445095Y-2647190D01*
X4397476Y-2671000D01*
X4373666Y-2694809D01*
X4349857Y-2742428D01*
X4326047Y-2837666D01*
X4326047Y-2956714D01*
X4349857Y-3051952D01*
X4373666Y-3099571D01*
X4397476Y-3123380D01*
X4445095Y-3147190D01*
X4492714Y-3147190D01*
X4540333Y-3123380D01*
X4564142Y-3099571D01*
X4587952Y-3051952D01*
X4611761Y-2956714D01*
X4611761Y-2837666D01*
X4587952Y-2742428D01*
X4564142Y-2694809D01*
X4540333Y-2671000D01*
X4492714Y-2647190D01*
X6346000Y-34162952D02*
X6369809Y-34210571D01*
X6369809Y-34282000D01*
X6346000Y-34353428D01*
X6298380Y-34401047D01*
X6250761Y-34424857D01*
X6155523Y-34448666D01*
X6084095Y-34448666D01*
X5988857Y-34424857D01*
X5941238Y-34401047D01*
X5893619Y-34353428D01*
X5869809Y-34282000D01*
X5869809Y-34234380D01*
X5893619Y-34162952D01*
X5917428Y-34139142D01*
X6084095Y-34139142D01*
X6084095Y-34234380D01*
X5869809Y-33924857D02*
X6369809Y-33924857D01*
X5869809Y-33639142D01*
X6369809Y-33639142D01*
X5869809Y-33401047D02*
X6369809Y-33401047D01*
X6369809Y-33282000D01*
X6346000Y-33210571D01*
X6298380Y-33162952D01*
X6250761Y-33139142D01*
X6155523Y-33115333D01*
X6084095Y-33115333D01*
X5988857Y-33139142D01*
X5941238Y-33162952D01*
X5893619Y-33210571D01*
X5869809Y-33282000D01*
X5869809Y-33401047D01*
X4834000Y-37873809D02*
X4834000Y-38373809D01*
X5167333Y-38373809D02*
X5262571Y-38373809D01*
X5310190Y-38350000D01*
X5357809Y-38302380D01*
X5381619Y-38207142D01*
X5381619Y-38040476D01*
X5357809Y-37945238D01*
X5310190Y-37897619D01*
X5262571Y-37873809D01*
X5167333Y-37873809D01*
X5119714Y-37897619D01*
X5072095Y-37945238D01*
X5048285Y-38040476D01*
X5048285Y-38207142D01*
X5072095Y-38302380D01*
X5119714Y-38350000D01*
X5167333Y-38373809D01*
X5691142Y-38373809D02*
X5738761Y-38373809D01*
X5786380Y-38350000D01*
X5810190Y-38326190D01*
X5834000Y-38278571D01*
X5857809Y-38183333D01*
X5857809Y-38064285D01*
X5834000Y-37969047D01*
X5810190Y-37921428D01*
X5786380Y-37897619D01*
X5738761Y-37873809D01*
X5691142Y-37873809D01*
X5643523Y-37897619D01*
X5619714Y-37921428D01*
X5595904Y-37969047D01*
X5572095Y-38064285D01*
X5572095Y-38183333D01*
X5595904Y-38278571D01*
X5619714Y-38326190D01*
X5643523Y-38350000D01*
X5691142Y-38373809D01*
X30813333Y4591809D02*
X31051428Y4591809D01*
X31075238Y4353714D01*
X31051428Y4377523D01*
X31003809Y4401333D01*
X30884761Y4401333D01*
X30837142Y4377523D01*
X30813333Y4353714D01*
X30789523Y4306095D01*
X30789523Y4187047D01*
X30813333Y4139428D01*
X30837142Y4115619D01*
X30884761Y4091809D01*
X31003809Y4091809D01*
X31051428Y4115619D01*
X31075238Y4139428D01*
X30646666Y4591809D02*
X30480000Y4091809D01*
X30313333Y4591809D01*
X30051428Y4591809D02*
X30003809Y4591809D01*
X29956190Y4568000D01*
X29932380Y4544190D01*
X29908571Y4496571D01*
X29884761Y4401333D01*
X29884761Y4282285D01*
X29908571Y4187047D01*
X29932380Y4139428D01*
X29956190Y4115619D01*
X30003809Y4091809D01*
X30051428Y4091809D01*
X30099047Y4115619D01*
X30122857Y4139428D01*
X30146666Y4187047D01*
X30170476Y4282285D01*
X30170476Y4401333D01*
X30146666Y4496571D01*
X30122857Y4544190D01*
X30099047Y4568000D01*
X30051428Y4591809D01*
X22233000Y-4718809D02*
X22328238Y-4718809D01*
X22375857Y-4695000D01*
X22423476Y-4647380D01*
X22447285Y-4552142D01*
X22447285Y-4385476D01*
X22423476Y-4290238D01*
X22375857Y-4242619D01*
X22328238Y-4218809D01*
X22233000Y-4218809D01*
X22185380Y-4242619D01*
X22137761Y-4290238D01*
X22113952Y-4385476D01*
X22113952Y-4552142D01*
X22137761Y-4647380D01*
X22185380Y-4695000D01*
X22233000Y-4718809D01*
X22637761Y-4361666D02*
X22875857Y-4361666D01*
X22590142Y-4218809D02*
X22756809Y-4718809D01*
X22923476Y-4218809D01*
X23352047Y-4218809D02*
X23066333Y-4218809D01*
X23209190Y-4218809D02*
X23209190Y-4718809D01*
X23161571Y-4647380D01*
X23113952Y-4599761D01*
X23066333Y-4575952D01*
X4679190Y-809666D02*
X4679190Y-571571D01*
X4917285Y-547761D01*
X4893476Y-571571D01*
X4869666Y-619190D01*
X4869666Y-738238D01*
X4893476Y-785857D01*
X4917285Y-809666D01*
X4964904Y-833476D01*
X5083952Y-833476D01*
X5131571Y-809666D01*
X5155380Y-785857D01*
X5179190Y-738238D01*
X5179190Y-619190D01*
X5155380Y-571571D01*
X5131571Y-547761D01*
X4679190Y-976333D02*
X5179190Y-1143000D01*
X4679190Y-1309666D01*
X4679190Y-1571571D02*
X4679190Y-1619190D01*
X4703000Y-1666809D01*
X4726809Y-1690619D01*
X4774428Y-1714428D01*
X4869666Y-1738238D01*
X4988714Y-1738238D01*
X5083952Y-1714428D01*
X5131571Y-1690619D01*
X5155380Y-1666809D01*
X5179190Y-1619190D01*
X5179190Y-1571571D01*
X5155380Y-1523952D01*
X5131571Y-1500142D01*
X5083952Y-1476333D01*
X4988714Y-1452523D01*
X4869666Y-1452523D01*
X4774428Y-1476333D01*
X4726809Y-1500142D01*
X4703000Y-1523952D01*
X4679190Y-1571571D01*
X8191380Y-9092380D02*
X8119952Y-9116190D01*
X8000904Y-9116190D01*
X7953285Y-9092380D01*
X7929476Y-9068571D01*
X7905666Y-9020952D01*
X7905666Y-8973333D01*
X7929476Y-8925714D01*
X7953285Y-8901904D01*
X8000904Y-8878095D01*
X8096142Y-8854285D01*
X8143761Y-8830476D01*
X8167571Y-8806666D01*
X8191380Y-8759047D01*
X8191380Y-8711428D01*
X8167571Y-8663809D01*
X8143761Y-8640000D01*
X8096142Y-8616190D01*
X7977095Y-8616190D01*
X7905666Y-8640000D01*
X7762809Y-8616190D02*
X7477095Y-8616190D01*
X7619952Y-9116190D02*
X7619952Y-8616190D01*
X7334238Y-8973333D02*
X7096142Y-8973333D01*
X7381857Y-9116190D02*
X7215190Y-8616190D01*
X7048523Y-9116190D01*
X6643761Y-9116190D02*
X6881857Y-9116190D01*
X6881857Y-8616190D01*
X6239000Y-9116190D02*
X6477095Y-9116190D01*
X6477095Y-8616190D01*
X4095666Y-10267190D02*
X3976619Y-10767190D01*
X3881380Y-10410047D01*
X3786142Y-10767190D01*
X3667095Y-10267190D01*
X3476619Y-10767190D02*
X3476619Y-10267190D01*
X3071857Y-10505285D02*
X3238523Y-10505285D01*
X3238523Y-10767190D02*
X3238523Y-10267190D01*
X3000428Y-10267190D01*
X2809952Y-10767190D02*
X2809952Y-10267190D01*
X18776190Y-3310000D02*
X18776190Y-3405238D01*
X18800000Y-3452857D01*
X18847619Y-3500476D01*
X18942857Y-3524285D01*
X19109523Y-3524285D01*
X19204761Y-3500476D01*
X19252380Y-3452857D01*
X19276190Y-3405238D01*
X19276190Y-3310000D01*
X19252380Y-3262380D01*
X19204761Y-3214761D01*
X19109523Y-3190952D01*
X18942857Y-3190952D01*
X18847619Y-3214761D01*
X18800000Y-3262380D01*
X18776190Y-3310000D01*
X19133333Y-3714761D02*
X19133333Y-3952857D01*
X19276190Y-3667142D02*
X18776190Y-3833809D01*
X19276190Y-4000476D01*
X18823809Y-4143333D02*
X18800000Y-4167142D01*
X18776190Y-4214761D01*
X18776190Y-4333809D01*
X18800000Y-4381428D01*
X18823809Y-4405238D01*
X18871428Y-4429047D01*
X18919047Y-4429047D01*
X18990476Y-4405238D01*
X19276190Y-4119523D01*
X19276190Y-4429047D01*
X16783809Y-4472714D02*
X16783809Y-4377476D01*
X16760000Y-4329857D01*
X16712380Y-4282238D01*
X16617142Y-4258428D01*
X16450476Y-4258428D01*
X16355238Y-4282238D01*
X16307619Y-4329857D01*
X16283809Y-4377476D01*
X16283809Y-4472714D01*
X16307619Y-4520333D01*
X16355238Y-4567952D01*
X16450476Y-4591761D01*
X16617142Y-4591761D01*
X16712380Y-4567952D01*
X16760000Y-4520333D01*
X16783809Y-4472714D01*
X16545714Y-3877476D02*
X16521904Y-3806047D01*
X16498095Y-3782238D01*
X16450476Y-3758428D01*
X16379047Y-3758428D01*
X16331428Y-3782238D01*
X16307619Y-3806047D01*
X16283809Y-3853666D01*
X16283809Y-4044142D01*
X16783809Y-4044142D01*
X16783809Y-3877476D01*
X16760000Y-3829857D01*
X16736190Y-3806047D01*
X16688571Y-3782238D01*
X16640952Y-3782238D01*
X16593333Y-3806047D01*
X16569523Y-3829857D01*
X16545714Y-3877476D01*
X16545714Y-4044142D01*
X16736190Y-3567952D02*
X16760000Y-3544142D01*
X16783809Y-3496523D01*
X16783809Y-3377476D01*
X16760000Y-3329857D01*
X16736190Y-3306047D01*
X16688571Y-3282238D01*
X16640952Y-3282238D01*
X16569523Y-3306047D01*
X16283809Y-3591761D01*
X16283809Y-3282238D01*
X5988809Y-7854047D02*
X5988809Y-7568333D01*
X5488809Y-7711190D02*
X5988809Y-7711190D01*
X5988809Y-7449285D02*
X5488809Y-7115952D01*
X5988809Y-7115952D02*
X5488809Y-7449285D01*
X5488809Y-6925476D02*
X5988809Y-6925476D01*
X5988809Y-6806428D01*
X5965000Y-6735000D01*
X5917380Y-6687380D01*
X5869761Y-6663571D01*
X5774523Y-6639761D01*
X5703095Y-6639761D01*
X5607857Y-6663571D01*
X5560238Y-6687380D01*
X5512619Y-6735000D01*
X5488809Y-6806428D01*
X5488809Y-6925476D01*
X5988809Y-6330238D02*
X5988809Y-6282619D01*
X5965000Y-6235000D01*
X5941190Y-6211190D01*
X5893571Y-6187380D01*
X5798333Y-6163571D01*
X5679285Y-6163571D01*
X5584047Y-6187380D01*
X5536428Y-6211190D01*
X5512619Y-6235000D01*
X5488809Y-6282619D01*
X5488809Y-6330238D01*
X5512619Y-6377857D01*
X5536428Y-6401666D01*
X5584047Y-6425476D01*
X5679285Y-6449285D01*
X5798333Y-6449285D01*
X5893571Y-6425476D01*
X5941190Y-6401666D01*
X5965000Y-6377857D01*
X5988809Y-6330238D01*
X13188190Y-2385285D02*
X13188190Y-2480523D01*
X13212000Y-2528142D01*
X13259619Y-2575761D01*
X13354857Y-2599571D01*
X13521523Y-2599571D01*
X13616761Y-2575761D01*
X13664380Y-2528142D01*
X13688190Y-2480523D01*
X13688190Y-2385285D01*
X13664380Y-2337666D01*
X13616761Y-2290047D01*
X13521523Y-2266238D01*
X13354857Y-2266238D01*
X13259619Y-2290047D01*
X13212000Y-2337666D01*
X13188190Y-2385285D01*
X13426285Y-2980523D02*
X13450095Y-3051952D01*
X13473904Y-3075761D01*
X13521523Y-3099571D01*
X13592952Y-3099571D01*
X13640571Y-3075761D01*
X13664380Y-3051952D01*
X13688190Y-3004333D01*
X13688190Y-2813857D01*
X13188190Y-2813857D01*
X13188190Y-2980523D01*
X13212000Y-3028142D01*
X13235809Y-3051952D01*
X13283428Y-3075761D01*
X13331047Y-3075761D01*
X13378666Y-3051952D01*
X13402476Y-3028142D01*
X13426285Y-2980523D01*
X13426285Y-2813857D01*
X13688190Y-3575761D02*
X13688190Y-3290047D01*
X13688190Y-3432904D02*
X13188190Y-3432904D01*
X13259619Y-3385285D01*
X13307238Y-3337666D01*
X13331047Y-3290047D01*
X31995904Y-45541380D02*
X31924476Y-45565190D01*
X31805428Y-45565190D01*
X31757809Y-45541380D01*
X31734000Y-45517571D01*
X31710190Y-45469952D01*
X31710190Y-45422333D01*
X31734000Y-45374714D01*
X31757809Y-45350904D01*
X31805428Y-45327095D01*
X31900666Y-45303285D01*
X31948285Y-45279476D01*
X31972095Y-45255666D01*
X31995904Y-45208047D01*
X31995904Y-45160428D01*
X31972095Y-45112809D01*
X31948285Y-45089000D01*
X31900666Y-45065190D01*
X31781619Y-45065190D01*
X31710190Y-45089000D01*
X31567333Y-45065190D02*
X31281619Y-45065190D01*
X31424476Y-45565190D02*
X31424476Y-45065190D01*
X31138761Y-45422333D02*
X30900666Y-45422333D01*
X31186380Y-45565190D02*
X31019714Y-45065190D01*
X30853047Y-45565190D01*
X30448285Y-45565190D02*
X30686380Y-45565190D01*
X30686380Y-45065190D01*
X30043523Y-45565190D02*
X30281619Y-45565190D01*
X30281619Y-45065190D01*
X29876857Y-45374714D02*
X29495904Y-45374714D01*
%TO.C,D3*%
X3798047Y-9116190D02*
X3798047Y-8616190D01*
X3679000Y-8616190D01*
X3607571Y-8640000D01*
X3559952Y-8687619D01*
X3536142Y-8735238D01*
X3512333Y-8830476D01*
X3512333Y-8901904D01*
X3536142Y-8997142D01*
X3559952Y-9044761D01*
X3607571Y-9092380D01*
X3679000Y-9116190D01*
X3798047Y-9116190D01*
X3345666Y-8616190D02*
X3036142Y-8616190D01*
X3202809Y-8806666D01*
X3131380Y-8806666D01*
X3083761Y-8830476D01*
X3059952Y-8854285D01*
X3036142Y-8901904D01*
X3036142Y-9020952D01*
X3059952Y-9068571D01*
X3083761Y-9092380D01*
X3131380Y-9116190D01*
X3274238Y-9116190D01*
X3321857Y-9092380D01*
X3345666Y-9068571D01*
%TO.C,D2*%
X7481047Y-10894190D02*
X7481047Y-10394190D01*
X7362000Y-10394190D01*
X7290571Y-10418000D01*
X7242952Y-10465619D01*
X7219142Y-10513238D01*
X7195333Y-10608476D01*
X7195333Y-10679904D01*
X7219142Y-10775142D01*
X7242952Y-10822761D01*
X7290571Y-10870380D01*
X7362000Y-10894190D01*
X7481047Y-10894190D01*
X7004857Y-10441809D02*
X6981047Y-10418000D01*
X6933428Y-10394190D01*
X6814380Y-10394190D01*
X6766761Y-10418000D01*
X6742952Y-10441809D01*
X6719142Y-10489428D01*
X6719142Y-10537047D01*
X6742952Y-10608476D01*
X7028666Y-10894190D01*
X6719142Y-10894190D01*
D11*
%TO.C,D1*%
X19280095Y-28238380D02*
X19280095Y-27238380D01*
X19042000Y-27238380D01*
X18899142Y-27286000D01*
X18803904Y-27381238D01*
X18756285Y-27476476D01*
X18708666Y-27666952D01*
X18708666Y-27809809D01*
X18756285Y-28000285D01*
X18803904Y-28095523D01*
X18899142Y-28190761D01*
X19042000Y-28238380D01*
X19280095Y-28238380D01*
X17756285Y-28238380D02*
X18327714Y-28238380D01*
X18042000Y-28238380D02*
X18042000Y-27238380D01*
X18137238Y-27381238D01*
X18232476Y-27476476D01*
X18327714Y-27524095D01*
%TO.C, *%
%TO.C,J8*%
X-876666Y-36679380D02*
X-876666Y-37393666D01*
X-829047Y-37536523D01*
X-733809Y-37631761D01*
X-590952Y-37679380D01*
X-495714Y-37679380D01*
X-1495714Y-37107952D02*
X-1400476Y-37060333D01*
X-1352857Y-37012714D01*
X-1305238Y-36917476D01*
X-1305238Y-36869857D01*
X-1352857Y-36774619D01*
X-1400476Y-36727000D01*
X-1495714Y-36679380D01*
X-1686190Y-36679380D01*
X-1781428Y-36727000D01*
X-1829047Y-36774619D01*
X-1876666Y-36869857D01*
X-1876666Y-36917476D01*
X-1829047Y-37012714D01*
X-1781428Y-37060333D01*
X-1686190Y-37107952D01*
X-1495714Y-37107952D01*
X-1400476Y-37155571D01*
X-1352857Y-37203190D01*
X-1305238Y-37298428D01*
X-1305238Y-37488904D01*
X-1352857Y-37584142D01*
X-1400476Y-37631761D01*
X-1495714Y-37679380D01*
X-1686190Y-37679380D01*
X-1781428Y-37631761D01*
X-1829047Y-37584142D01*
X-1876666Y-37488904D01*
X-1876666Y-37298428D01*
X-1829047Y-37203190D01*
X-1781428Y-37155571D01*
X-1686190Y-37107952D01*
D10*
%TO.C,R1*%
X16593333Y-30198190D02*
X16760000Y-29960095D01*
X16879047Y-30198190D02*
X16879047Y-29698190D01*
X16688571Y-29698190D01*
X16640952Y-29722000D01*
X16617142Y-29745809D01*
X16593333Y-29793428D01*
X16593333Y-29864857D01*
X16617142Y-29912476D01*
X16640952Y-29936285D01*
X16688571Y-29960095D01*
X16879047Y-29960095D01*
X16117142Y-30198190D02*
X16402857Y-30198190D01*
X16260000Y-30198190D02*
X16260000Y-29698190D01*
X16307619Y-29769619D01*
X16355238Y-29817238D01*
X16402857Y-29841047D01*
D11*
%TO.C,J2*%
X393333Y-1749380D02*
X393333Y-2463666D01*
X440952Y-2606523D01*
X536190Y-2701761D01*
X679047Y-2749380D01*
X774285Y-2749380D01*
X-35238Y-1844619D02*
X-82857Y-1797000D01*
X-178095Y-1749380D01*
X-416190Y-1749380D01*
X-511428Y-1797000D01*
X-559047Y-1844619D01*
X-606666Y-1939857D01*
X-606666Y-2035095D01*
X-559047Y-2177952D01*
X12380Y-2749380D01*
X-606666Y-2749380D01*
D10*
%TO.C,R6*%
X6957190Y-32301666D02*
X6719095Y-32135000D01*
X6957190Y-32015952D02*
X6457190Y-32015952D01*
X6457190Y-32206428D01*
X6481000Y-32254047D01*
X6504809Y-32277857D01*
X6552428Y-32301666D01*
X6623857Y-32301666D01*
X6671476Y-32277857D01*
X6695285Y-32254047D01*
X6719095Y-32206428D01*
X6719095Y-32015952D01*
X6457190Y-32730238D02*
X6457190Y-32635000D01*
X6481000Y-32587380D01*
X6504809Y-32563571D01*
X6576238Y-32515952D01*
X6671476Y-32492142D01*
X6861952Y-32492142D01*
X6909571Y-32515952D01*
X6933380Y-32539761D01*
X6957190Y-32587380D01*
X6957190Y-32682619D01*
X6933380Y-32730238D01*
X6909571Y-32754047D01*
X6861952Y-32777857D01*
X6742904Y-32777857D01*
X6695285Y-32754047D01*
X6671476Y-32730238D01*
X6647666Y-32682619D01*
X6647666Y-32587380D01*
X6671476Y-32539761D01*
X6695285Y-32515952D01*
X6742904Y-32492142D01*
%TO.C,R4*%
X24763448Y-29650566D02*
X24477238Y-29701074D01*
X24561417Y-29448536D02*
X24207864Y-29802089D01*
X24342551Y-29936776D01*
X24393058Y-29953612D01*
X24426730Y-29953612D01*
X24477238Y-29936776D01*
X24527745Y-29886268D01*
X24544581Y-29835761D01*
X24544581Y-29802089D01*
X24527745Y-29751581D01*
X24393058Y-29616894D01*
X24830791Y-30189314D02*
X25066494Y-29953612D01*
X24611925Y-30239822D02*
X24780284Y-29903104D01*
X24999150Y-30121971D01*
%TO.C,C9*%
X9957571Y-32241666D02*
X9981380Y-32217857D01*
X10005190Y-32146428D01*
X10005190Y-32098809D01*
X9981380Y-32027380D01*
X9933761Y-31979761D01*
X9886142Y-31955952D01*
X9790904Y-31932142D01*
X9719476Y-31932142D01*
X9624238Y-31955952D01*
X9576619Y-31979761D01*
X9529000Y-32027380D01*
X9505190Y-32098809D01*
X9505190Y-32146428D01*
X9529000Y-32217857D01*
X9552809Y-32241666D01*
X10005190Y-32479761D02*
X10005190Y-32575000D01*
X9981380Y-32622619D01*
X9957571Y-32646428D01*
X9886142Y-32694047D01*
X9790904Y-32717857D01*
X9600428Y-32717857D01*
X9552809Y-32694047D01*
X9529000Y-32670238D01*
X9505190Y-32622619D01*
X9505190Y-32527380D01*
X9529000Y-32479761D01*
X9552809Y-32455952D01*
X9600428Y-32432142D01*
X9719476Y-32432142D01*
X9767095Y-32455952D01*
X9790904Y-32479761D01*
X9814714Y-32527380D01*
X9814714Y-32622619D01*
X9790904Y-32670238D01*
X9767095Y-32694047D01*
X9719476Y-32717857D01*
%TO.C,C12*%
X25848428Y-16434571D02*
X25872238Y-16458380D01*
X25943666Y-16482190D01*
X25991285Y-16482190D01*
X26062714Y-16458380D01*
X26110333Y-16410761D01*
X26134142Y-16363142D01*
X26157952Y-16267904D01*
X26157952Y-16196476D01*
X26134142Y-16101238D01*
X26110333Y-16053619D01*
X26062714Y-16006000D01*
X25991285Y-15982190D01*
X25943666Y-15982190D01*
X25872238Y-16006000D01*
X25848428Y-16029809D01*
X25372238Y-16482190D02*
X25657952Y-16482190D01*
X25515095Y-16482190D02*
X25515095Y-15982190D01*
X25562714Y-16053619D01*
X25610333Y-16101238D01*
X25657952Y-16125047D01*
X25181761Y-16029809D02*
X25157952Y-16006000D01*
X25110333Y-15982190D01*
X24991285Y-15982190D01*
X24943666Y-16006000D01*
X24919857Y-16029809D01*
X24896047Y-16077428D01*
X24896047Y-16125047D01*
X24919857Y-16196476D01*
X25205571Y-16482190D01*
X24896047Y-16482190D01*
%TO.C,C2*%
X14529571Y-39921666D02*
X14553380Y-39897857D01*
X14577190Y-39826428D01*
X14577190Y-39778809D01*
X14553380Y-39707380D01*
X14505761Y-39659761D01*
X14458142Y-39635952D01*
X14362904Y-39612142D01*
X14291476Y-39612142D01*
X14196238Y-39635952D01*
X14148619Y-39659761D01*
X14101000Y-39707380D01*
X14077190Y-39778809D01*
X14077190Y-39826428D01*
X14101000Y-39897857D01*
X14124809Y-39921666D01*
X14124809Y-40112142D02*
X14101000Y-40135952D01*
X14077190Y-40183571D01*
X14077190Y-40302619D01*
X14101000Y-40350238D01*
X14124809Y-40374047D01*
X14172428Y-40397857D01*
X14220047Y-40397857D01*
X14291476Y-40374047D01*
X14577190Y-40088333D01*
X14577190Y-40397857D01*
%TO.C,C7*%
X30404571Y-23652666D02*
X30428380Y-23628857D01*
X30452190Y-23557428D01*
X30452190Y-23509809D01*
X30428380Y-23438380D01*
X30380761Y-23390761D01*
X30333142Y-23366952D01*
X30237904Y-23343142D01*
X30166476Y-23343142D01*
X30071238Y-23366952D01*
X30023619Y-23390761D01*
X29976000Y-23438380D01*
X29952190Y-23509809D01*
X29952190Y-23557428D01*
X29976000Y-23628857D01*
X29999809Y-23652666D01*
X29952190Y-23819333D02*
X29952190Y-24152666D01*
X30452190Y-23938380D01*
%TO.C,C10*%
X13402428Y-34214571D02*
X13426238Y-34238380D01*
X13497666Y-34262190D01*
X13545285Y-34262190D01*
X13616714Y-34238380D01*
X13664333Y-34190761D01*
X13688142Y-34143142D01*
X13711952Y-34047904D01*
X13711952Y-33976476D01*
X13688142Y-33881238D01*
X13664333Y-33833619D01*
X13616714Y-33786000D01*
X13545285Y-33762190D01*
X13497666Y-33762190D01*
X13426238Y-33786000D01*
X13402428Y-33809809D01*
X12926238Y-34262190D02*
X13211952Y-34262190D01*
X13069095Y-34262190D02*
X13069095Y-33762190D01*
X13116714Y-33833619D01*
X13164333Y-33881238D01*
X13211952Y-33905047D01*
X12616714Y-33762190D02*
X12569095Y-33762190D01*
X12521476Y-33786000D01*
X12497666Y-33809809D01*
X12473857Y-33857428D01*
X12450047Y-33952666D01*
X12450047Y-34071714D01*
X12473857Y-34166952D01*
X12497666Y-34214571D01*
X12521476Y-34238380D01*
X12569095Y-34262190D01*
X12616714Y-34262190D01*
X12664333Y-34238380D01*
X12688142Y-34214571D01*
X12711952Y-34166952D01*
X12735761Y-34071714D01*
X12735761Y-33952666D01*
X12711952Y-33857428D01*
X12688142Y-33809809D01*
X12664333Y-33786000D01*
X12616714Y-33762190D01*
D11*
%TO.C,J7*%
X-876666Y1039619D02*
X-876666Y325333D01*
X-829047Y182476D01*
X-733809Y87238D01*
X-590952Y39619D01*
X-495714Y39619D01*
X-1257619Y1039619D02*
X-1924285Y1039619D01*
X-1495714Y39619D01*
%TO.C,U2*%
X15938428Y-32355285D02*
X15938428Y-32962428D01*
X15902714Y-33033857D01*
X15867000Y-33069571D01*
X15795571Y-33105285D01*
X15652714Y-33105285D01*
X15581285Y-33069571D01*
X15545571Y-33033857D01*
X15509857Y-32962428D01*
X15509857Y-32355285D01*
X15188428Y-32426714D02*
X15152714Y-32391000D01*
X15081285Y-32355285D01*
X14902714Y-32355285D01*
X14831285Y-32391000D01*
X14795571Y-32426714D01*
X14759857Y-32498142D01*
X14759857Y-32569571D01*
X14795571Y-32676714D01*
X15224142Y-33105285D01*
X14759857Y-33105285D01*
D10*
%TO.C,J6*%
X28741666Y-41636190D02*
X28741666Y-41993333D01*
X28765476Y-42064761D01*
X28813095Y-42112380D01*
X28884523Y-42136190D01*
X28932142Y-42136190D01*
X28289285Y-41636190D02*
X28384523Y-41636190D01*
X28432142Y-41660000D01*
X28455952Y-41683809D01*
X28503571Y-41755238D01*
X28527380Y-41850476D01*
X28527380Y-42040952D01*
X28503571Y-42088571D01*
X28479761Y-42112380D01*
X28432142Y-42136190D01*
X28336904Y-42136190D01*
X28289285Y-42112380D01*
X28265476Y-42088571D01*
X28241666Y-42040952D01*
X28241666Y-41921904D01*
X28265476Y-41874285D01*
X28289285Y-41850476D01*
X28336904Y-41826666D01*
X28432142Y-41826666D01*
X28479761Y-41850476D01*
X28503571Y-41874285D01*
X28527380Y-41921904D01*
%TO.C,J1*%
X13204000Y-224285D02*
X13204000Y-760000D01*
X13239714Y-867142D01*
X13311142Y-938571D01*
X13418285Y-974285D01*
X13489714Y-974285D01*
X12454000Y-974285D02*
X12882571Y-974285D01*
X12668285Y-974285D02*
X12668285Y-224285D01*
X12739714Y-331428D01*
X12811142Y-402857D01*
X12882571Y-438571D01*
%TO.C,R7*%
X5417333Y-10894190D02*
X5584000Y-10656095D01*
X5703047Y-10894190D02*
X5703047Y-10394190D01*
X5512571Y-10394190D01*
X5464952Y-10418000D01*
X5441142Y-10441809D01*
X5417333Y-10489428D01*
X5417333Y-10560857D01*
X5441142Y-10608476D01*
X5464952Y-10632285D01*
X5512571Y-10656095D01*
X5703047Y-10656095D01*
X5250666Y-10394190D02*
X4917333Y-10394190D01*
X5131619Y-10894190D01*
%TO.C,C11*%
X14656571Y-32952571D02*
X14680380Y-32928761D01*
X14704190Y-32857333D01*
X14704190Y-32809714D01*
X14680380Y-32738285D01*
X14632761Y-32690666D01*
X14585142Y-32666857D01*
X14489904Y-32643047D01*
X14418476Y-32643047D01*
X14323238Y-32666857D01*
X14275619Y-32690666D01*
X14228000Y-32738285D01*
X14204190Y-32809714D01*
X14204190Y-32857333D01*
X14228000Y-32928761D01*
X14251809Y-32952571D01*
X14704190Y-33428761D02*
X14704190Y-33143047D01*
X14704190Y-33285904D02*
X14204190Y-33285904D01*
X14275619Y-33238285D01*
X14323238Y-33190666D01*
X14347047Y-33143047D01*
X14704190Y-33904952D02*
X14704190Y-33619238D01*
X14704190Y-33762095D02*
X14204190Y-33762095D01*
X14275619Y-33714476D01*
X14323238Y-33666857D01*
X14347047Y-33619238D01*
D11*
%TO.C,SW1*%
X14183000Y-18230428D02*
X14290142Y-18194714D01*
X14468714Y-18194714D01*
X14540142Y-18230428D01*
X14575857Y-18266142D01*
X14611571Y-18337571D01*
X14611571Y-18409000D01*
X14575857Y-18480428D01*
X14540142Y-18516142D01*
X14468714Y-18551857D01*
X14325857Y-18587571D01*
X14254428Y-18623285D01*
X14218714Y-18659000D01*
X14183000Y-18730428D01*
X14183000Y-18801857D01*
X14218714Y-18873285D01*
X14254428Y-18909000D01*
X14325857Y-18944714D01*
X14504428Y-18944714D01*
X14611571Y-18909000D01*
X14861571Y-18944714D02*
X15040142Y-18194714D01*
X15183000Y-18730428D01*
X15325857Y-18194714D01*
X15504428Y-18944714D01*
X16182999Y-18194714D02*
X15754428Y-18194714D01*
X15968714Y-18194714D02*
X15968714Y-18944714D01*
X15897285Y-18837571D01*
X15825857Y-18766142D01*
X15754428Y-18730428D01*
D10*
%TO.C,C13*%
X25848428Y-12497571D02*
X25872238Y-12521380D01*
X25943666Y-12545190D01*
X25991285Y-12545190D01*
X26062714Y-12521380D01*
X26110333Y-12473761D01*
X26134142Y-12426142D01*
X26157952Y-12330904D01*
X26157952Y-12259476D01*
X26134142Y-12164238D01*
X26110333Y-12116619D01*
X26062714Y-12069000D01*
X25991285Y-12045190D01*
X25943666Y-12045190D01*
X25872238Y-12069000D01*
X25848428Y-12092809D01*
X25372238Y-12545190D02*
X25657952Y-12545190D01*
X25515095Y-12545190D02*
X25515095Y-12045190D01*
X25562714Y-12116619D01*
X25610333Y-12164238D01*
X25657952Y-12188047D01*
X25205571Y-12045190D02*
X24896047Y-12045190D01*
X25062714Y-12235666D01*
X24991285Y-12235666D01*
X24943666Y-12259476D01*
X24919857Y-12283285D01*
X24896047Y-12330904D01*
X24896047Y-12449952D01*
X24919857Y-12497571D01*
X24943666Y-12521380D01*
X24991285Y-12545190D01*
X25134142Y-12545190D01*
X25181761Y-12521380D01*
X25205571Y-12497571D01*
%TO.C,R2*%
X28674190Y-13632666D02*
X28436095Y-13466000D01*
X28674190Y-13346952D02*
X28174190Y-13346952D01*
X28174190Y-13537428D01*
X28198000Y-13585047D01*
X28221809Y-13608857D01*
X28269428Y-13632666D01*
X28340857Y-13632666D01*
X28388476Y-13608857D01*
X28412285Y-13585047D01*
X28436095Y-13537428D01*
X28436095Y-13346952D01*
X28221809Y-13823142D02*
X28198000Y-13846952D01*
X28174190Y-13894571D01*
X28174190Y-14013619D01*
X28198000Y-14061238D01*
X28221809Y-14085047D01*
X28269428Y-14108857D01*
X28317047Y-14108857D01*
X28388476Y-14085047D01*
X28674190Y-13799333D01*
X28674190Y-14108857D01*
%TO.C,C5*%
X30531571Y-19728666D02*
X30555380Y-19704857D01*
X30579190Y-19633428D01*
X30579190Y-19585809D01*
X30555380Y-19514380D01*
X30507761Y-19466761D01*
X30460142Y-19442952D01*
X30364904Y-19419142D01*
X30293476Y-19419142D01*
X30198238Y-19442952D01*
X30150619Y-19466761D01*
X30103000Y-19514380D01*
X30079190Y-19585809D01*
X30079190Y-19633428D01*
X30103000Y-19704857D01*
X30126809Y-19728666D01*
X30079190Y-20181047D02*
X30079190Y-19942952D01*
X30317285Y-19919142D01*
X30293476Y-19942952D01*
X30269666Y-19990571D01*
X30269666Y-20109619D01*
X30293476Y-20157238D01*
X30317285Y-20181047D01*
X30364904Y-20204857D01*
X30483952Y-20204857D01*
X30531571Y-20181047D01*
X30555380Y-20157238D01*
X30579190Y-20109619D01*
X30579190Y-19990571D01*
X30555380Y-19942952D01*
X30531571Y-19919142D01*
D11*
%TO.C,U3*%
X23431428Y-24481285D02*
X23431428Y-25088428D01*
X23395714Y-25159857D01*
X23360000Y-25195571D01*
X23288571Y-25231285D01*
X23145714Y-25231285D01*
X23074285Y-25195571D01*
X23038571Y-25159857D01*
X23002857Y-25088428D01*
X23002857Y-24481285D01*
X22717142Y-24481285D02*
X22252857Y-24481285D01*
X22502857Y-24767000D01*
X22395714Y-24767000D01*
X22324285Y-24802714D01*
X22288571Y-24838428D01*
X22252857Y-24909857D01*
X22252857Y-25088428D01*
X22288571Y-25159857D01*
X22324285Y-25195571D01*
X22395714Y-25231285D01*
X22610000Y-25231285D01*
X22681428Y-25195571D01*
X22717142Y-25159857D01*
D10*
%TO.C,C3*%
X30531571Y-22014666D02*
X30555380Y-21990857D01*
X30579190Y-21919428D01*
X30579190Y-21871809D01*
X30555380Y-21800380D01*
X30507761Y-21752761D01*
X30460142Y-21728952D01*
X30364904Y-21705142D01*
X30293476Y-21705142D01*
X30198238Y-21728952D01*
X30150619Y-21752761D01*
X30103000Y-21800380D01*
X30079190Y-21871809D01*
X30079190Y-21919428D01*
X30103000Y-21990857D01*
X30126809Y-22014666D01*
X30079190Y-22181333D02*
X30079190Y-22490857D01*
X30269666Y-22324190D01*
X30269666Y-22395619D01*
X30293476Y-22443238D01*
X30317285Y-22467047D01*
X30364904Y-22490857D01*
X30483952Y-22490857D01*
X30531571Y-22467047D01*
X30555380Y-22443238D01*
X30579190Y-22395619D01*
X30579190Y-22252761D01*
X30555380Y-22205142D01*
X30531571Y-22181333D01*
%TO.C,J5*%
X30138666Y1035809D02*
X30138666Y678666D01*
X30162476Y607238D01*
X30210095Y559619D01*
X30281523Y535809D01*
X30329142Y535809D01*
X29662476Y1035809D02*
X29900571Y1035809D01*
X29924380Y797714D01*
X29900571Y821523D01*
X29852952Y845333D01*
X29733904Y845333D01*
X29686285Y821523D01*
X29662476Y797714D01*
X29638666Y750095D01*
X29638666Y631047D01*
X29662476Y583428D01*
X29686285Y559619D01*
X29733904Y535809D01*
X29852952Y535809D01*
X29900571Y559619D01*
X29924380Y583428D01*
%TO.C,R5*%
X22580015Y-10957133D02*
X22293805Y-11007641D01*
X22377984Y-10755103D02*
X22024431Y-11108656D01*
X22159118Y-11243343D01*
X22209625Y-11260179D01*
X22243297Y-11260179D01*
X22293805Y-11243343D01*
X22344312Y-11192835D01*
X22361148Y-11142328D01*
X22361148Y-11108656D01*
X22344312Y-11058148D01*
X22209625Y-10923461D01*
X22546343Y-11630568D02*
X22377984Y-11462209D01*
X22529507Y-11277015D01*
X22529507Y-11310687D01*
X22546343Y-11361194D01*
X22630522Y-11445374D01*
X22681030Y-11462209D01*
X22714702Y-11462209D01*
X22765209Y-11445374D01*
X22849389Y-11361194D01*
X22866225Y-11310687D01*
X22866225Y-11277015D01*
X22849389Y-11226507D01*
X22765209Y-11142328D01*
X22714702Y-11125492D01*
X22681030Y-11125492D01*
%TO.C,C8*%
X27858430Y-29772579D02*
X27892102Y-29772579D01*
X27959445Y-29738907D01*
X27993117Y-29705236D01*
X28026789Y-29637892D01*
X28026789Y-29570548D01*
X28009953Y-29520041D01*
X27959445Y-29435861D01*
X27908938Y-29385354D01*
X27824758Y-29334846D01*
X27774251Y-29318010D01*
X27706907Y-29318010D01*
X27639564Y-29351682D01*
X27605892Y-29385354D01*
X27572220Y-29452697D01*
X27572220Y-29486369D01*
X27488041Y-29806251D02*
X27504877Y-29755743D01*
X27504877Y-29722071D01*
X27488041Y-29671564D01*
X27471205Y-29654728D01*
X27420697Y-29637892D01*
X27387026Y-29637892D01*
X27336518Y-29654728D01*
X27269174Y-29722071D01*
X27252339Y-29772579D01*
X27252339Y-29806251D01*
X27269174Y-29856758D01*
X27286010Y-29873594D01*
X27336518Y-29890430D01*
X27370190Y-29890430D01*
X27420697Y-29873594D01*
X27488041Y-29806251D01*
X27538548Y-29789415D01*
X27572220Y-29789415D01*
X27622728Y-29806251D01*
X27690071Y-29873594D01*
X27706907Y-29924102D01*
X27706907Y-29957774D01*
X27690071Y-30008281D01*
X27622728Y-30075625D01*
X27572220Y-30092461D01*
X27538548Y-30092461D01*
X27488041Y-30075625D01*
X27420697Y-30008281D01*
X27403861Y-29957774D01*
X27403861Y-29924102D01*
X27420697Y-29873594D01*
%TO.C,R8*%
X1732333Y-10894190D02*
X1899000Y-10656095D01*
X2018047Y-10894190D02*
X2018047Y-10394190D01*
X1827571Y-10394190D01*
X1779952Y-10418000D01*
X1756142Y-10441809D01*
X1732333Y-10489428D01*
X1732333Y-10560857D01*
X1756142Y-10608476D01*
X1779952Y-10632285D01*
X1827571Y-10656095D01*
X2018047Y-10656095D01*
X1446619Y-10608476D02*
X1494238Y-10584666D01*
X1518047Y-10560857D01*
X1541857Y-10513238D01*
X1541857Y-10489428D01*
X1518047Y-10441809D01*
X1494238Y-10418000D01*
X1446619Y-10394190D01*
X1351380Y-10394190D01*
X1303761Y-10418000D01*
X1279952Y-10441809D01*
X1256142Y-10489428D01*
X1256142Y-10513238D01*
X1279952Y-10560857D01*
X1303761Y-10584666D01*
X1351380Y-10608476D01*
X1446619Y-10608476D01*
X1494238Y-10632285D01*
X1518047Y-10656095D01*
X1541857Y-10703714D01*
X1541857Y-10798952D01*
X1518047Y-10846571D01*
X1494238Y-10870380D01*
X1446619Y-10894190D01*
X1351380Y-10894190D01*
X1303761Y-10870380D01*
X1279952Y-10846571D01*
X1256142Y-10798952D01*
X1256142Y-10703714D01*
X1279952Y-10656095D01*
X1303761Y-10632285D01*
X1351380Y-10608476D01*
%TO.C,C4*%
X20498571Y-15410666D02*
X20522380Y-15386857D01*
X20546190Y-15315428D01*
X20546190Y-15267809D01*
X20522380Y-15196380D01*
X20474761Y-15148761D01*
X20427142Y-15124952D01*
X20331904Y-15101142D01*
X20260476Y-15101142D01*
X20165238Y-15124952D01*
X20117619Y-15148761D01*
X20070000Y-15196380D01*
X20046190Y-15267809D01*
X20046190Y-15315428D01*
X20070000Y-15386857D01*
X20093809Y-15410666D01*
X20212857Y-15839238D02*
X20546190Y-15839238D01*
X20022380Y-15720190D02*
X20379523Y-15601142D01*
X20379523Y-15910666D01*
%TO.C,C14*%
X26721571Y-24951571D02*
X26745380Y-24927761D01*
X26769190Y-24856333D01*
X26769190Y-24808714D01*
X26745380Y-24737285D01*
X26697761Y-24689666D01*
X26650142Y-24665857D01*
X26554904Y-24642047D01*
X26483476Y-24642047D01*
X26388238Y-24665857D01*
X26340619Y-24689666D01*
X26293000Y-24737285D01*
X26269190Y-24808714D01*
X26269190Y-24856333D01*
X26293000Y-24927761D01*
X26316809Y-24951571D01*
X26769190Y-25427761D02*
X26769190Y-25142047D01*
X26769190Y-25284904D02*
X26269190Y-25284904D01*
X26340619Y-25237285D01*
X26388238Y-25189666D01*
X26412047Y-25142047D01*
X26435857Y-25856333D02*
X26769190Y-25856333D01*
X26245380Y-25737285D02*
X26602523Y-25618238D01*
X26602523Y-25927761D01*
%TO.C,C1*%
X22816333Y-40183571D02*
X22840142Y-40207380D01*
X22911571Y-40231190D01*
X22959190Y-40231190D01*
X23030619Y-40207380D01*
X23078238Y-40159761D01*
X23102047Y-40112142D01*
X23125857Y-40016904D01*
X23125857Y-39945476D01*
X23102047Y-39850238D01*
X23078238Y-39802619D01*
X23030619Y-39755000D01*
X22959190Y-39731190D01*
X22911571Y-39731190D01*
X22840142Y-39755000D01*
X22816333Y-39778809D01*
X22340142Y-40231190D02*
X22625857Y-40231190D01*
X22483000Y-40231190D02*
X22483000Y-39731190D01*
X22530619Y-39802619D01*
X22578238Y-39850238D01*
X22625857Y-39874047D01*
%TO.C,R3*%
X27059446Y-19575595D02*
X27008938Y-19289385D01*
X27261476Y-19373564D02*
X26907923Y-19020011D01*
X26773236Y-19154698D01*
X26756400Y-19205205D01*
X26756400Y-19238877D01*
X26773236Y-19289385D01*
X26823744Y-19339892D01*
X26874251Y-19356728D01*
X26907923Y-19356728D01*
X26958431Y-19339892D01*
X27093118Y-19205205D01*
X26588041Y-19339892D02*
X26369175Y-19558759D01*
X26621713Y-19575595D01*
X26571205Y-19626102D01*
X26554370Y-19676610D01*
X26554370Y-19710282D01*
X26571205Y-19760789D01*
X26655385Y-19844969D01*
X26705892Y-19861805D01*
X26739564Y-19861805D01*
X26790072Y-19844969D01*
X26891087Y-19743954D01*
X26907923Y-19693446D01*
X26907923Y-19659774D01*
%TO.C,C15*%
X28769428Y-28245571D02*
X28793238Y-28269380D01*
X28864666Y-28293190D01*
X28912285Y-28293190D01*
X28983714Y-28269380D01*
X29031333Y-28221761D01*
X29055142Y-28174142D01*
X29078952Y-28078904D01*
X29078952Y-28007476D01*
X29055142Y-27912238D01*
X29031333Y-27864619D01*
X28983714Y-27817000D01*
X28912285Y-27793190D01*
X28864666Y-27793190D01*
X28793238Y-27817000D01*
X28769428Y-27840809D01*
X28293238Y-28293190D02*
X28578952Y-28293190D01*
X28436095Y-28293190D02*
X28436095Y-27793190D01*
X28483714Y-27864619D01*
X28531333Y-27912238D01*
X28578952Y-27936047D01*
X27840857Y-27793190D02*
X28078952Y-27793190D01*
X28102761Y-28031285D01*
X28078952Y-28007476D01*
X28031333Y-27983666D01*
X27912285Y-27983666D01*
X27864666Y-28007476D01*
X27840857Y-28031285D01*
X27817047Y-28078904D01*
X27817047Y-28197952D01*
X27840857Y-28245571D01*
X27864666Y-28269380D01*
X27912285Y-28293190D01*
X28031333Y-28293190D01*
X28078952Y-28269380D01*
X28102761Y-28245571D01*
%TO.C,C6*%
X30531571Y-16680666D02*
X30555380Y-16656857D01*
X30579190Y-16585428D01*
X30579190Y-16537809D01*
X30555380Y-16466380D01*
X30507761Y-16418761D01*
X30460142Y-16394952D01*
X30364904Y-16371142D01*
X30293476Y-16371142D01*
X30198238Y-16394952D01*
X30150619Y-16418761D01*
X30103000Y-16466380D01*
X30079190Y-16537809D01*
X30079190Y-16585428D01*
X30103000Y-16656857D01*
X30126809Y-16680666D01*
X30079190Y-17109238D02*
X30079190Y-17014000D01*
X30103000Y-16966380D01*
X30126809Y-16942571D01*
X30198238Y-16894952D01*
X30293476Y-16871142D01*
X30483952Y-16871142D01*
X30531571Y-16894952D01*
X30555380Y-16918761D01*
X30579190Y-16966380D01*
X30579190Y-17061619D01*
X30555380Y-17109238D01*
X30531571Y-17133047D01*
X30483952Y-17156857D01*
X30364904Y-17156857D01*
X30317285Y-17133047D01*
X30293476Y-17109238D01*
X30269666Y-17061619D01*
X30269666Y-16966380D01*
X30293476Y-16918761D01*
X30317285Y-16894952D01*
X30364904Y-16871142D01*
D11*
%TO.C,J3*%
X393333Y-31345380D02*
X393333Y-32059666D01*
X440952Y-32202523D01*
X536190Y-32297761D01*
X679047Y-32345380D01*
X774285Y-32345380D01*
X12380Y-31345380D02*
X-606666Y-31345380D01*
X-273333Y-31726333D01*
X-416190Y-31726333D01*
X-511428Y-31773952D01*
X-559047Y-31821571D01*
X-606666Y-31916809D01*
X-606666Y-32154904D01*
X-559047Y-32250142D01*
X-511428Y-32297761D01*
X-416190Y-32345380D01*
X-130476Y-32345380D01*
X-35238Y-32297761D01*
X12380Y-32250142D01*
D12*
%TO.C,D3*%
X4569000Y-9779000D02*
G75*
G03*
X4569000Y-9779000I-50000J0D01*
G01*
%TO.C,D2*%
X8252000Y-9779000D02*
G75*
G03*
X8252000Y-9779000I-50000J0D01*
G01*
%TO.C,D1*%
X19682000Y-28956000D02*
G75*
G03*
X19682000Y-28956000I-50000J0D01*
G01*
D13*
%TO.C,J8*%
X-925000Y-39297000D02*
X-6925000Y-39297000D01*
X4445000Y-39497000D02*
X4445000Y-38227000D01*
X1735000Y-40827000D02*
X-925000Y-40827000D01*
X-925000Y-39177000D02*
X-6925000Y-39177000D01*
X-925000Y-39117000D02*
X-6925000Y-39117000D01*
X-925000Y-39657000D02*
X-6925000Y-39657000D01*
X2065000Y-39117000D02*
X1735000Y-39117000D01*
X-925000Y-39777000D02*
X-6925000Y-39777000D01*
X2065000Y-39877000D02*
X1735000Y-39877000D01*
X-925000Y-40827000D02*
X-925000Y-38167000D01*
X-925000Y-39537000D02*
X-6925000Y-39537000D01*
X4445000Y-38227000D02*
X3175000Y-38227000D01*
X-6925000Y-39877000D02*
X-925000Y-39877000D01*
X-925000Y-39417000D02*
X-6925000Y-39417000D01*
X1735000Y-38167000D02*
X1735000Y-40827000D01*
X-6925000Y-39117000D02*
X-6925000Y-39877000D01*
X-925000Y-38167000D02*
X1735000Y-38167000D01*
%TO.C,R1*%
X16356359Y-28576000D02*
X16663641Y-28576000D01*
X16356359Y-29336000D02*
X16663641Y-29336000D01*
%TO.C,J2*%
X3402071Y-6727000D02*
X3005000Y-6727000D01*
X345000Y-4367000D02*
X-5655000Y-4367000D01*
X5715000Y-4567000D02*
X5715000Y-3297000D01*
X5715000Y-3297000D02*
X4445000Y-3297000D01*
X345000Y-4487000D02*
X-5655000Y-4487000D01*
X345000Y-4187000D02*
X-5655000Y-4187000D01*
X345000Y-4847000D02*
X-5655000Y-4847000D01*
X3005000Y-3237000D02*
X3005000Y-8437000D01*
X-5655000Y-4187000D02*
X-5655000Y-4947000D01*
X-5655000Y-7487000D02*
X345000Y-7487000D01*
X3005000Y-5837000D02*
X345000Y-5837000D01*
X3335000Y-4187000D02*
X3005000Y-4187000D01*
X345000Y-4727000D02*
X-5655000Y-4727000D01*
X-5655000Y-6727000D02*
X-5655000Y-7487000D01*
X345000Y-4607000D02*
X-5655000Y-4607000D01*
X3335000Y-4947000D02*
X3005000Y-4947000D01*
X3402071Y-7487000D02*
X3005000Y-7487000D01*
X3005000Y-8437000D02*
X345000Y-8437000D01*
X345000Y-3237000D02*
X3005000Y-3237000D01*
X345000Y-6727000D02*
X-5655000Y-6727000D01*
X-5655000Y-4947000D02*
X345000Y-4947000D01*
X345000Y-8437000D02*
X345000Y-3237000D01*
X345000Y-4247000D02*
X-5655000Y-4247000D01*
%TO.C,R6*%
X5053359Y-32765000D02*
X5360641Y-32765000D01*
X5053359Y-32005000D02*
X5360641Y-32005000D01*
%TO.C,R4*%
X23334940Y-29079341D02*
X23117659Y-28862060D01*
X23872341Y-28541940D02*
X23655060Y-28324659D01*
%TO.C,C9*%
X8014580Y-31875000D02*
X7733420Y-31875000D01*
X8014580Y-32895000D02*
X7733420Y-32895000D01*
%TO.C,C12*%
X25386420Y-14730000D02*
X25667580Y-14730000D01*
X25386420Y-15750000D02*
X25667580Y-15750000D01*
%TO.C,C2*%
X16115420Y-40515000D02*
X16396580Y-40515000D01*
X16115420Y-39495000D02*
X16396580Y-39495000D01*
%TO.C,C7*%
X28588580Y-24246000D02*
X28307420Y-24246000D01*
X28588580Y-23226000D02*
X28307420Y-23226000D01*
%TO.C,C10*%
X12571000Y-35927420D02*
X12571000Y-36208580D01*
X13591000Y-35927420D02*
X13591000Y-36208580D01*
%TO.C,J7*%
X1735000Y-3108000D02*
X-925000Y-3108000D01*
X-6925000Y-1398000D02*
X-6925000Y-2158000D01*
X-925000Y-1818000D02*
X-6925000Y-1818000D01*
X2065000Y-2158000D02*
X1735000Y-2158000D01*
X4445000Y-1778000D02*
X4445000Y-508000D01*
X-925000Y-2058000D02*
X-6925000Y-2058000D01*
X-925000Y-1578000D02*
X-6925000Y-1578000D01*
X-925000Y-1698000D02*
X-6925000Y-1698000D01*
X4445000Y-508000D02*
X3175000Y-508000D01*
X1735000Y-448000D02*
X1735000Y-3108000D01*
X-925000Y-1938000D02*
X-6925000Y-1938000D01*
X-925000Y-448000D02*
X1735000Y-448000D01*
X-925000Y-3108000D02*
X-925000Y-448000D01*
X-925000Y-1398000D02*
X-6925000Y-1398000D01*
X-925000Y-1458000D02*
X-6925000Y-1458000D01*
X-6925000Y-2158000D02*
X-925000Y-2158000D01*
X2065000Y-1398000D02*
X1735000Y-1398000D01*
%TO.C,U2*%
X16632000Y-32150000D02*
X16632000Y-33410000D01*
X20392000Y-38970000D02*
X16632000Y-38970000D01*
X22642000Y-32150000D02*
X16632000Y-32150000D01*
X16632000Y-38970000D02*
X16632000Y-37710000D01*
%TO.C,J6*%
X34326000Y-43514000D02*
X40326000Y-43514000D01*
X34326000Y-43274000D02*
X40326000Y-43274000D01*
X28956000Y-44704000D02*
X30226000Y-44704000D01*
X31336000Y-43054000D02*
X31666000Y-43054000D01*
X34326000Y-43814000D02*
X40326000Y-43814000D01*
X31336000Y-43814000D02*
X31666000Y-43814000D01*
X31666000Y-44764000D02*
X31666000Y-42104000D01*
X34326000Y-43634000D02*
X40326000Y-43634000D01*
X34326000Y-43394000D02*
X40326000Y-43394000D01*
X31666000Y-42104000D02*
X34326000Y-42104000D01*
X34326000Y-43154000D02*
X40326000Y-43154000D01*
X28956000Y-43434000D02*
X28956000Y-44704000D01*
X34326000Y-44764000D02*
X31666000Y-44764000D01*
X40326000Y-43814000D02*
X40326000Y-43054000D01*
X34326000Y-43754000D02*
X40326000Y-43754000D01*
X40326000Y-43054000D02*
X34326000Y-43054000D01*
X34326000Y-42104000D02*
X34326000Y-44764000D01*
%TO.C,J1*%
X24130000Y-4064000D02*
X24130000Y-2794000D01*
X16510000Y-1354000D02*
X16510000Y1306000D01*
X20700000Y-1751071D02*
X20700000Y-1354000D01*
X22860000Y-4064000D02*
X24130000Y-4064000D01*
X20700000Y1306000D02*
X20700000Y7306000D01*
X24190000Y-1354000D02*
X13910000Y-1354000D01*
X17400000Y7306000D02*
X17400000Y1306000D01*
X22580000Y1306000D02*
X22580000Y7306000D01*
X19940000Y-1751071D02*
X19940000Y-1354000D01*
X14860000Y-1751071D02*
X14860000Y-1354000D01*
X15620000Y1306000D02*
X15620000Y7306000D01*
X23060000Y1306000D02*
X23060000Y7306000D01*
X23180000Y1306000D02*
X23180000Y7306000D01*
X15620000Y7306000D02*
X14860000Y7306000D01*
X19050000Y-1354000D02*
X19050000Y1306000D01*
X22700000Y1306000D02*
X22700000Y7306000D01*
X18160000Y7306000D02*
X17400000Y7306000D01*
X19940000Y7306000D02*
X19940000Y1306000D01*
X23240000Y1306000D02*
X23240000Y7306000D01*
X18160000Y1306000D02*
X18160000Y7306000D01*
X17400000Y-1751071D02*
X17400000Y-1354000D01*
X13910000Y1306000D02*
X24190000Y1306000D01*
X13910000Y-1354000D02*
X13910000Y1306000D01*
X21590000Y-1354000D02*
X21590000Y1306000D01*
X22480000Y-1684000D02*
X22480000Y-1354000D01*
X18160000Y-1751071D02*
X18160000Y-1354000D01*
X23240000Y-1684000D02*
X23240000Y-1354000D01*
X20700000Y7306000D02*
X19940000Y7306000D01*
X22480000Y7306000D02*
X22480000Y1306000D01*
X23240000Y7306000D02*
X22480000Y7306000D01*
X24190000Y1306000D02*
X24190000Y-1354000D01*
X15620000Y-1751071D02*
X15620000Y-1354000D01*
X22940000Y1306000D02*
X22940000Y7306000D01*
X22820000Y1306000D02*
X22820000Y7306000D01*
X14860000Y7306000D02*
X14860000Y1306000D01*
%TO.C,R7*%
X5180359Y-9399000D02*
X5487641Y-9399000D01*
X5180359Y-10159000D02*
X5487641Y-10159000D01*
%TO.C,C11*%
X12713580Y-32764000D02*
X12432420Y-32764000D01*
X12713580Y-33784000D02*
X12432420Y-33784000D01*
%TO.C,SW1*%
X12833000Y-16364000D02*
X17533000Y-16364000D01*
X17533000Y-16364000D02*
X17533000Y-12864000D01*
X17533000Y-12864000D02*
X12833000Y-12864000D01*
X12833000Y-12864000D02*
X12833000Y-16364000D01*
X15183000Y-13964000D02*
X16983000Y-13964000D01*
X16983000Y-13964000D02*
X16983000Y-15264000D01*
X16983000Y-15264000D02*
X15183000Y-15264000D01*
X15183000Y-15264000D02*
X15183000Y-13964000D01*
%TO.C,C13*%
X25667580Y-13845000D02*
X25386420Y-13845000D01*
X25667580Y-12825000D02*
X25386420Y-12825000D01*
%TO.C,R2*%
X28957000Y-13562359D02*
X28957000Y-13869641D01*
X29717000Y-13562359D02*
X29717000Y-13869641D01*
%TO.C,C5*%
X29720000Y-19671420D02*
X29720000Y-19952580D01*
X28700000Y-19671420D02*
X28700000Y-19952580D01*
%TO.C,U3*%
X25470000Y-17540000D02*
X25470000Y-18015000D01*
X24995000Y-23760000D02*
X25470000Y-23760000D01*
X20725000Y-17540000D02*
X20250000Y-17540000D01*
X24995000Y-17540000D02*
X25470000Y-17540000D01*
X25470000Y-23760000D02*
X25470000Y-23285000D01*
X20250000Y-17540000D02*
X20250000Y-18015000D01*
X20725000Y-23760000D02*
X20250000Y-23760000D01*
%TO.C,C3*%
X28588580Y-22608000D02*
X28307420Y-22608000D01*
X28588580Y-21588000D02*
X28307420Y-21588000D01*
%TO.C,J5*%
X33310000Y2573000D02*
X39310000Y2573000D01*
X27940000Y1143000D02*
X29210000Y1143000D01*
X30650000Y1083000D02*
X30650000Y3743000D01*
X30320000Y2793000D02*
X30650000Y2793000D01*
X33310000Y2033000D02*
X39310000Y2033000D01*
X30320000Y2033000D02*
X30650000Y2033000D01*
X33310000Y2693000D02*
X39310000Y2693000D01*
X39310000Y2793000D02*
X33310000Y2793000D01*
X33310000Y1083000D02*
X30650000Y1083000D01*
X27940000Y2413000D02*
X27940000Y1143000D01*
X33310000Y3743000D02*
X33310000Y1083000D01*
X33310000Y2093000D02*
X39310000Y2093000D01*
X30650000Y3743000D02*
X33310000Y3743000D01*
X33310000Y2213000D02*
X39310000Y2213000D01*
X39310000Y2033000D02*
X39310000Y2793000D01*
X33310000Y2333000D02*
X39310000Y2333000D01*
X33310000Y2453000D02*
X39310000Y2453000D01*
%TO.C,R5*%
X22241717Y-11671316D02*
X22024436Y-11454035D01*
X21704316Y-12208717D02*
X21487035Y-11991436D01*
%TO.C,C8*%
X26876030Y-28186781D02*
X26677219Y-27987970D01*
X26154781Y-28908030D02*
X25955970Y-28709219D01*
%TO.C,R8*%
X1497359Y-9399000D02*
X1804641Y-9399000D01*
X1497359Y-10159000D02*
X1804641Y-10159000D01*
%TO.C,C4*%
X18794000Y-15353420D02*
X18794000Y-15634580D01*
X19814000Y-15353420D02*
X19814000Y-15634580D01*
%TO.C,C14*%
X28588580Y-24750000D02*
X28307420Y-24750000D01*
X28588580Y-25770000D02*
X28307420Y-25770000D01*
%TO.C,C1*%
X24497420Y-40515000D02*
X24778580Y-40515000D01*
X24497420Y-39495000D02*
X24778580Y-39495000D01*
%TO.C,R3*%
X27181659Y-20032940D02*
X27398940Y-19815659D01*
X27719060Y-20570341D02*
X27936341Y-20353060D01*
%TO.C,C15*%
X28307420Y-26274000D02*
X28588580Y-26274000D01*
X28307420Y-27294000D02*
X28588580Y-27294000D01*
%TO.C,C6*%
X28700000Y-16904580D02*
X28700000Y-16623420D01*
X29720000Y-16904580D02*
X29720000Y-16623420D01*
%TO.C,J3*%
X345000Y-32833000D02*
X3005000Y-32833000D01*
X5715000Y-34163000D02*
X5715000Y-32893000D01*
X345000Y-33843000D02*
X-5655000Y-33843000D01*
X3335000Y-33783000D02*
X3005000Y-33783000D01*
X-5655000Y-37083000D02*
X345000Y-37083000D01*
X345000Y-33783000D02*
X-5655000Y-33783000D01*
X3402071Y-36323000D02*
X3005000Y-36323000D01*
X-5655000Y-33783000D02*
X-5655000Y-34543000D01*
X3005000Y-32833000D02*
X3005000Y-38033000D01*
X-5655000Y-34543000D02*
X345000Y-34543000D01*
X345000Y-34443000D02*
X-5655000Y-34443000D01*
X345000Y-36323000D02*
X-5655000Y-36323000D01*
X5715000Y-32893000D02*
X4445000Y-32893000D01*
X345000Y-34083000D02*
X-5655000Y-34083000D01*
X3005000Y-38033000D02*
X345000Y-38033000D01*
X3005000Y-35433000D02*
X345000Y-35433000D01*
X3335000Y-34543000D02*
X3005000Y-34543000D01*
X3402071Y-37083000D02*
X3005000Y-37083000D01*
X-5655000Y-36323000D02*
X-5655000Y-37083000D01*
X345000Y-33963000D02*
X-5655000Y-33963000D01*
X345000Y-34203000D02*
X-5655000Y-34203000D01*
X345000Y-38033000D02*
X345000Y-32833000D01*
X345000Y-34323000D02*
X-5655000Y-34323000D01*
%TD*%
M02*
