%TF.GenerationSoftware,KiCad,Pcbnew,(6.0.0-0)*%
%TF.CreationDate,2022-03-10T17:30:30+01:00*%
%TF.ProjectId,CompactMotor,436f6d70-6163-4744-9d6f-746f722e6b69,rev?*%
%TF.SameCoordinates,Original*%
%TF.FileFunction,Paste,Bot*%
%TF.FilePolarity,Positive*%
%FSLAX46Y46*%
G04 Gerber Fmt 4.6, Leading zero omitted, Abs format (unit mm)*
G04 Created by KiCad (PCBNEW (6.0.0-0)) date 2022-03-10 17:30:30*
%MOMM*%
%LPD*%
G01*
G04 APERTURE LIST*
G04 Aperture macros list*
%AMRoundRect*
0 Rectangle with rounded corners*
0 $1 Rounding radius*
0 $2 $3 $4 $5 $6 $7 $8 $9 X,Y pos of 4 corners*
0 Add a 4 corners polygon primitive as box body*
4,1,4,$2,$3,$4,$5,$6,$7,$8,$9,$2,$3,0*
0 Add four circle primitives for the rounded corners*
1,1,$1+$1,$2,$3*
1,1,$1+$1,$4,$5*
1,1,$1+$1,$6,$7*
1,1,$1+$1,$8,$9*
0 Add four rect primitives between the rounded corners*
20,1,$1+$1,$2,$3,$4,$5,0*
20,1,$1+$1,$4,$5,$6,$7,0*
20,1,$1+$1,$6,$7,$8,$9,0*
20,1,$1+$1,$8,$9,$2,$3,0*%
G04 Aperture macros list end*
%ADD10RoundRect,0.135000X-0.135000X-0.185000X0.135000X-0.185000X0.135000X0.185000X-0.135000X0.185000X0*%
%ADD11RoundRect,0.079500X0.079500X0.100500X-0.079500X0.100500X-0.079500X-0.100500X0.079500X-0.100500X0*%
%ADD12RoundRect,0.135000X0.226274X0.035355X0.035355X0.226274X-0.226274X-0.035355X-0.035355X-0.226274X0*%
%ADD13RoundRect,0.225000X0.225000X0.250000X-0.225000X0.250000X-0.225000X-0.250000X0.225000X-0.250000X0*%
%ADD14RoundRect,0.225000X-0.225000X-0.250000X0.225000X-0.250000X0.225000X0.250000X-0.225000X0.250000X0*%
%ADD15R,2.000000X1.500000*%
%ADD16R,2.000000X3.800000*%
%ADD17RoundRect,0.135000X-0.185000X0.135000X-0.185000X-0.135000X0.185000X-0.135000X0.185000X0.135000X0*%
%ADD18RoundRect,0.225000X-0.250000X0.225000X-0.250000X-0.225000X0.250000X-0.225000X0.250000X0.225000X0*%
%ADD19RoundRect,0.062500X-0.062500X-0.362500X0.062500X-0.362500X0.062500X0.362500X-0.062500X0.362500X0*%
%ADD20RoundRect,0.062500X-0.362500X-0.062500X0.362500X-0.062500X0.362500X0.062500X-0.362500X0.062500X0*%
%ADD21RoundRect,0.242500X-0.242500X-0.307500X0.242500X-0.307500X0.242500X0.307500X-0.242500X0.307500X0*%
%ADD22RoundRect,0.225000X0.335876X0.017678X0.017678X0.335876X-0.335876X-0.017678X-0.017678X-0.335876X0*%
%ADD23RoundRect,0.135000X0.035355X-0.226274X0.226274X-0.035355X-0.035355X0.226274X-0.226274X0.035355X0*%
%ADD24RoundRect,0.225000X0.250000X-0.225000X0.250000X0.225000X-0.250000X0.225000X-0.250000X-0.225000X0*%
G04 APERTURE END LIST*
D10*
%TO.C,R8*%
X1016000Y-4572000D03*
X2036000Y-4572000D03*
%TD*%
%TO.C,R7*%
X1014000Y-9652000D03*
X2034000Y-9652000D03*
%TD*%
D11*
%TO.C,D3*%
X3647000Y-4572000D03*
X2957000Y-4572000D03*
%TD*%
%TO.C,D2*%
X3647000Y-9652000D03*
X2957000Y-9652000D03*
%TD*%
D10*
%TO.C,R1*%
X16000000Y-28956000D03*
X17020000Y-28956000D03*
%TD*%
%TO.C,R6*%
X2792000Y-32385000D03*
X3812000Y-32385000D03*
%TD*%
D12*
%TO.C,R4*%
X23855624Y-29062624D03*
X23134376Y-28341376D03*
%TD*%
D13*
%TO.C,C9*%
X4077000Y-33909000D03*
X2527000Y-33909000D03*
%TD*%
D14*
%TO.C,C12*%
X24752000Y-15240000D03*
X26302000Y-15240000D03*
%TD*%
%TO.C,C2*%
X15481000Y-40005000D03*
X17031000Y-40005000D03*
%TD*%
D13*
%TO.C,C7*%
X29223000Y-23736000D03*
X27673000Y-23736000D03*
%TD*%
%TO.C,C10*%
X2527000Y-35560000D03*
X4077000Y-35560000D03*
%TD*%
D15*
%TO.C,U2*%
X21184000Y-33260000D03*
D16*
X14884000Y-35560000D03*
D15*
X21184000Y-35560000D03*
X21184000Y-37860000D03*
%TD*%
D13*
%TO.C,C11*%
X4077000Y-37211000D03*
X2527000Y-37211000D03*
%TD*%
%TO.C,C13*%
X26302000Y-13335000D03*
X24752000Y-13335000D03*
%TD*%
D17*
%TO.C,R2*%
X29337000Y-13206000D03*
X29337000Y-14226000D03*
%TD*%
D18*
%TO.C,C5*%
X29210000Y-19037000D03*
X29210000Y-20587000D03*
%TD*%
D19*
%TO.C,U3*%
X21110000Y-23600000D03*
X21610000Y-23600000D03*
X22110000Y-23600000D03*
X22610000Y-23600000D03*
X23110000Y-23600000D03*
X23610000Y-23600000D03*
X24110000Y-23600000D03*
X24610000Y-23600000D03*
D20*
X25310000Y-22900000D03*
X25310000Y-22400000D03*
X25310000Y-21900000D03*
X25310000Y-21400000D03*
X25310000Y-20900000D03*
X25310000Y-20400000D03*
X25310000Y-19900000D03*
X25310000Y-19400000D03*
X25310000Y-18900000D03*
X25310000Y-18400000D03*
D19*
X24610000Y-17700000D03*
X24110000Y-17700000D03*
X23610000Y-17700000D03*
X23110000Y-17700000D03*
X22610000Y-17700000D03*
X22110000Y-17700000D03*
X21610000Y-17700000D03*
X21110000Y-17700000D03*
D20*
X20410000Y-18400000D03*
X20410000Y-18900000D03*
X20410000Y-19400000D03*
X20410000Y-19900000D03*
X20410000Y-20400000D03*
X20410000Y-20900000D03*
X20410000Y-21400000D03*
X20410000Y-21900000D03*
X20410000Y-22400000D03*
X20410000Y-22900000D03*
D21*
X22860000Y-22020000D03*
X24060000Y-22020000D03*
X22860000Y-19280000D03*
X21660000Y-22020000D03*
X24060000Y-20650000D03*
X21660000Y-19280000D03*
X22860000Y-20650000D03*
X21660000Y-20650000D03*
X24060000Y-19280000D03*
%TD*%
D11*
%TO.C,D1*%
X18197000Y-28956000D03*
X18887000Y-28956000D03*
%TD*%
D13*
%TO.C,C3*%
X29223000Y-22098000D03*
X27673000Y-22098000D03*
%TD*%
D12*
%TO.C,R5*%
X22225000Y-12192000D03*
X21503752Y-11470752D03*
%TD*%
D22*
%TO.C,C8*%
X26964008Y-28996008D03*
X25867992Y-27899992D03*
%TD*%
D18*
%TO.C,C4*%
X19304000Y-14719000D03*
X19304000Y-16269000D03*
%TD*%
D13*
%TO.C,C14*%
X29223000Y-25260000D03*
X27673000Y-25260000D03*
%TD*%
D14*
%TO.C,C1*%
X23863000Y-40005000D03*
X25413000Y-40005000D03*
%TD*%
D23*
%TO.C,R3*%
X27198376Y-20553624D03*
X27919624Y-19832376D03*
%TD*%
D14*
%TO.C,C15*%
X27673000Y-26784000D03*
X29223000Y-26784000D03*
%TD*%
D24*
%TO.C,C6*%
X29210000Y-17539000D03*
X29210000Y-15989000D03*
%TD*%
M02*
