%TF.GenerationSoftware,KiCad,Pcbnew,(6.0.0)*%
%TF.CreationDate,2022-03-11T17:00:34+01:00*%
%TF.ProjectId,CompactMotor,436f6d70-6163-4744-9d6f-746f722e6b69,rev?*%
%TF.SameCoordinates,Original*%
%TF.FileFunction,Copper,L3,Inr*%
%TF.FilePolarity,Positive*%
%FSLAX46Y46*%
G04 Gerber Fmt 4.6, Leading zero omitted, Abs format (unit mm)*
G04 Created by KiCad (PCBNEW (6.0.0)) date 2022-03-11 17:00:34*
%MOMM*%
%LPD*%
G01*
G04 APERTURE LIST*
%TA.AperFunction,ComponentPad*%
%ADD10R,1.700000X1.700000*%
%TD*%
%TA.AperFunction,ComponentPad*%
%ADD11O,1.700000X1.700000*%
%TD*%
%TA.AperFunction,ViaPad*%
%ADD12C,0.600000*%
%TD*%
G04 APERTURE END LIST*
D10*
%TO.N,STALLPLUS*%
%TO.C,J8*%
X3175000Y-39497000D03*
%TD*%
%TO.N,RXD0*%
%TO.C,J2*%
X4445000Y-4567000D03*
D11*
%TO.N,TXD0*%
X4445000Y-7107000D03*
%TD*%
D10*
%TO.N,5V0*%
%TO.C,J7*%
X3175000Y-1778000D03*
%TD*%
%TO.N,STALLMINUS*%
%TO.C,J6*%
X30226000Y-43434000D03*
%TD*%
%TO.N,Net-(J1-Pad1)*%
%TO.C,J1*%
X22860000Y-2794000D03*
D11*
%TO.N,Net-(J1-Pad2)*%
X20320000Y-2794000D03*
%TO.N,Net-(J1-Pad3)*%
X17780000Y-2794000D03*
%TO.N,Net-(J1-Pad4)*%
X15240000Y-2794000D03*
%TD*%
D10*
%TO.N,5V0*%
%TO.C,J5*%
X29210000Y2413000D03*
%TD*%
%TO.N,GNDREF*%
%TO.C,J3*%
X4445000Y-34163000D03*
D11*
%TO.N,IO0*%
X4445000Y-36703000D03*
%TD*%
D12*
%TO.N,5V0*%
X19304000Y-18796000D03*
X15113000Y-28956000D03*
X29210000Y-15989000D03*
X29337000Y-12446000D03*
X20320000Y-39751000D03*
X27940000Y-1143000D03*
X27940000Y-17456000D03*
%TO.N,GNDREF*%
X1128000Y-23750000D03*
X-272000Y-21650000D03*
X13589000Y-26416000D03*
X428000Y-22350000D03*
X19304000Y-14732000D03*
X21360000Y-22150000D03*
X23610000Y-20650000D03*
X1828000Y-20250000D03*
X24360000Y-22150000D03*
X1828000Y-22350000D03*
X428000Y-20950000D03*
X21082000Y-16510000D03*
X1828000Y-23050000D03*
X2528000Y-20950000D03*
X1828000Y-23750000D03*
X1828000Y-21650000D03*
X3928000Y-20950000D03*
X23610000Y-22150000D03*
X3928000Y-23750000D03*
X24360000Y-19150000D03*
X20828000Y-10795000D03*
X-5669550Y-12065000D03*
X29210000Y-17526000D03*
X2528000Y-22350000D03*
X3228000Y-23750000D03*
X-272000Y-20250000D03*
X21360000Y-19900000D03*
X1828000Y-20950000D03*
X428000Y-23050000D03*
X22860000Y-20650000D03*
X-272000Y-20950000D03*
X3228000Y-20250000D03*
X18288000Y-40005000D03*
X22860000Y-21400000D03*
X428000Y-19550000D03*
X27686000Y-25260000D03*
X-5588000Y-30861000D03*
X23610000Y-19150000D03*
X15875000Y-24257000D03*
X3928000Y-20250000D03*
X2528000Y-23750000D03*
X3228000Y-19550000D03*
X15113000Y-11557000D03*
X21360000Y-21400000D03*
X2528000Y-21650000D03*
X2528000Y-23050000D03*
X1128000Y-23050000D03*
X20828000Y-30480000D03*
X-272000Y-19550000D03*
X29210000Y-19050000D03*
X27686000Y-26784000D03*
X24360000Y-21400000D03*
X428000Y-20250000D03*
X26289000Y-13335000D03*
X24360000Y-19900000D03*
X-272000Y-23050000D03*
X21360000Y-19150000D03*
X3928000Y-21650000D03*
X3228000Y-21650000D03*
X22110000Y-20650000D03*
X26289000Y-15240000D03*
X22110000Y-19900000D03*
X22110000Y-19150000D03*
X1128000Y-20250000D03*
X1128000Y-20950000D03*
X24360000Y-20650000D03*
X24892000Y-29402500D03*
X26416000Y-40005000D03*
X15875000Y-26924000D03*
X1128000Y-19550000D03*
X22860000Y-19900000D03*
X22860000Y-19150000D03*
X23610000Y-21400000D03*
X3228000Y-20950000D03*
X1828000Y-19550000D03*
X22860000Y-22150000D03*
X3228000Y-23050000D03*
X2528000Y-19550000D03*
X2528000Y-20250000D03*
X22110000Y-21400000D03*
X1128000Y-21650000D03*
X428000Y-21650000D03*
X428000Y-23750000D03*
X6223000Y-8255000D03*
X-272000Y-23750000D03*
X1128000Y-22350000D03*
X-272000Y-22350000D03*
X21360000Y-20650000D03*
X3928000Y-23050000D03*
X3228000Y-22350000D03*
X22110000Y-22150000D03*
X23610000Y-19900000D03*
X3928000Y-19550000D03*
X3928000Y-22350000D03*
X28702000Y-29464000D03*
%TO.N,3V3*%
X-4191000Y-30861000D03*
%TO.N,EN*%
X-2413000Y-30861000D03*
%TO.N,IO0*%
X2159000Y-31115000D03*
X10838000Y-12150000D03*
%TO.N,STALLPLUS*%
X5758000Y-29150000D03*
X10414000Y-31848500D03*
%TO.N,STALLMINUS*%
X11811000Y-31877000D03*
X7028000Y-29150000D03*
%TO.N,SCK*%
X16383000Y-21209000D03*
%TO.N,DIR*%
X18669000Y-11557000D03*
X18796000Y-19685000D03*
X16411500Y-10795000D03*
%TO.N,STEP*%
X18542000Y-12319000D03*
X17850015Y-19939000D03*
X15367000Y-10258500D03*
%TO.N,TMC_EN*%
X12446000Y-8255000D03*
X26785876Y-18542990D03*
X8255000Y-10258500D03*
%TO.N,CS*%
X15240000Y-21844000D03*
%TO.N,MISO*%
X16891004Y-20320000D03*
%TO.N,MOSI*%
X17780000Y-21336000D03*
%TO.N,DC0*%
X20701000Y-28067000D03*
X24257000Y-16891000D03*
X21336000Y-26416000D03*
X8298000Y-29150000D03*
X13610558Y-30374558D03*
%TO.N,DCEN_CFG4*%
X25527000Y-16383000D03*
%TO.N,DCIN_CFG5*%
X26416000Y-16256000D03*
%TO.N,DIAG0*%
X19304000Y-13462000D03*
X678000Y-29150000D03*
X24257000Y-11811000D03*
X15113000Y-21082000D03*
X13589000Y-22479000D03*
%TO.N,DIAG1*%
X26670000Y-17653000D03*
X19558000Y-23114000D03*
X1948000Y-29150000D03*
X17272000Y-22879500D03*
X13589000Y-24892000D03*
%TO.N,Net-(J1-Pad1)*%
X31280519Y-4229519D03*
%TO.N,VM*%
X18415000Y-4699000D03*
X17145000Y-4699000D03*
X15875000Y-4699000D03*
X14351000Y-4699000D03*
%TO.N,Net-(JP2-Pad2)*%
X4488000Y-29150000D03*
X3848393Y-31128129D03*
%TO.N,Net-(R7-Pad1)*%
X678000Y-12150000D03*
%TO.N,Net-(R8-Pad1)*%
X-3132000Y-12150000D03*
%TD*%
%TA.AperFunction,Conductor*%
%TO.N,5V0*%
G36*
X31438121Y-20002D02*
G01*
X31484614Y-73658D01*
X31496000Y-126000D01*
X31496000Y-700230D01*
X31475998Y-768351D01*
X31422342Y-814844D01*
X31352068Y-824948D01*
X31282869Y-791248D01*
X31159538Y-673184D01*
X31155208Y-669039D01*
X31019879Y-581658D01*
X30986394Y-560037D01*
X30986391Y-560036D01*
X30981357Y-556785D01*
X30789416Y-479430D01*
X30783535Y-478282D01*
X30783530Y-478280D01*
X30590756Y-440634D01*
X30590753Y-440634D01*
X30586310Y-439766D01*
X30580871Y-439500D01*
X30428296Y-439500D01*
X30273993Y-454222D01*
X30268239Y-455910D01*
X30081173Y-510789D01*
X30081171Y-510790D01*
X30075420Y-512477D01*
X30070087Y-515223D01*
X30070086Y-515224D01*
X29896775Y-604484D01*
X29896772Y-604486D01*
X29891444Y-607230D01*
X29728706Y-735063D01*
X29593076Y-891363D01*
X29489448Y-1070490D01*
X29421562Y-1265981D01*
X29420702Y-1271914D01*
X29420701Y-1271917D01*
X29396004Y-1442255D01*
X29391868Y-1470781D01*
X29401436Y-1677502D01*
X29402840Y-1683327D01*
X29402840Y-1683328D01*
X29448472Y-1872671D01*
X29449921Y-1878685D01*
X29452403Y-1884143D01*
X29452404Y-1884147D01*
X29474344Y-1932401D01*
X29535574Y-2067069D01*
X29655305Y-2235858D01*
X29659628Y-2239996D01*
X29659632Y-2240001D01*
X29753157Y-2329531D01*
X29804792Y-2378961D01*
X29809827Y-2382212D01*
X29973606Y-2487963D01*
X29973609Y-2487964D01*
X29978643Y-2491215D01*
X29984206Y-2493457D01*
X30008195Y-2503125D01*
X30170584Y-2568570D01*
X30176465Y-2569718D01*
X30176470Y-2569720D01*
X30369244Y-2607366D01*
X30369247Y-2607366D01*
X30373690Y-2608234D01*
X30379129Y-2608500D01*
X30531704Y-2608500D01*
X30686007Y-2593778D01*
X30691761Y-2592090D01*
X30878827Y-2537211D01*
X30878829Y-2537210D01*
X30884580Y-2535523D01*
X30889914Y-2532776D01*
X31063225Y-2443516D01*
X31063228Y-2443514D01*
X31068556Y-2440770D01*
X31231294Y-2312937D01*
X31253797Y-2287005D01*
X31274835Y-2262761D01*
X31334589Y-2224420D01*
X31405585Y-2224471D01*
X31465284Y-2262898D01*
X31494730Y-2327500D01*
X31496000Y-2345342D01*
X31496000Y-3299023D01*
X31475998Y-3367144D01*
X31422342Y-3413637D01*
X31355082Y-3424137D01*
X31286199Y-3415923D01*
X31279196Y-3416659D01*
X31279195Y-3416659D01*
X31112807Y-3434147D01*
X31112805Y-3434148D01*
X31105807Y-3434883D01*
X30934098Y-3493337D01*
X30928094Y-3497031D01*
X30785614Y-3584685D01*
X30785611Y-3584687D01*
X30779607Y-3588381D01*
X30774572Y-3593312D01*
X30774569Y-3593314D01*
X30655044Y-3710362D01*
X30650012Y-3715290D01*
X30551754Y-3867757D01*
X30549345Y-3874377D01*
X30549343Y-3874380D01*
X30500978Y-4007261D01*
X30489716Y-4038204D01*
X30466982Y-4218159D01*
X30484682Y-4398679D01*
X30541937Y-4570792D01*
X30545584Y-4576814D01*
X30545585Y-4576816D01*
X30631872Y-4719293D01*
X30635899Y-4725943D01*
X30640788Y-4731006D01*
X30640789Y-4731007D01*
X30658812Y-4749670D01*
X30761901Y-4856421D01*
X30913678Y-4955741D01*
X30920282Y-4958197D01*
X30920284Y-4958198D01*
X31077077Y-5016509D01*
X31077079Y-5016509D01*
X31083687Y-5018967D01*
X31167514Y-5030152D01*
X31256499Y-5042026D01*
X31256503Y-5042026D01*
X31263480Y-5042957D01*
X31270491Y-5042319D01*
X31270495Y-5042319D01*
X31358580Y-5034302D01*
X31428233Y-5048047D01*
X31479398Y-5097268D01*
X31496000Y-5159783D01*
X31496000Y-38905018D01*
X31475998Y-38973139D01*
X31422342Y-39019632D01*
X31352068Y-39029736D01*
X31322904Y-39021885D01*
X31170416Y-38960430D01*
X31164535Y-38959282D01*
X31164530Y-38959280D01*
X30971756Y-38921634D01*
X30971753Y-38921634D01*
X30967310Y-38920766D01*
X30961871Y-38920500D01*
X30809296Y-38920500D01*
X30654993Y-38935222D01*
X30649239Y-38936910D01*
X30462173Y-38991789D01*
X30462171Y-38991790D01*
X30456420Y-38993477D01*
X30451087Y-38996223D01*
X30451086Y-38996224D01*
X30277775Y-39085484D01*
X30277772Y-39085486D01*
X30272444Y-39088230D01*
X30109706Y-39216063D01*
X29974076Y-39372363D01*
X29870448Y-39551490D01*
X29802562Y-39746981D01*
X29801702Y-39752914D01*
X29801701Y-39752917D01*
X29791877Y-39820675D01*
X29772868Y-39951781D01*
X29782436Y-40158502D01*
X29783840Y-40164327D01*
X29783840Y-40164328D01*
X29827689Y-40346273D01*
X29830921Y-40359685D01*
X29833403Y-40365143D01*
X29833404Y-40365147D01*
X29848583Y-40398531D01*
X29916574Y-40548069D01*
X30036305Y-40716858D01*
X30040628Y-40720996D01*
X30040632Y-40721001D01*
X30149450Y-40825171D01*
X30185792Y-40859961D01*
X30190827Y-40863212D01*
X30354606Y-40968963D01*
X30354609Y-40968964D01*
X30359643Y-40972215D01*
X30365206Y-40974457D01*
X30508320Y-41032134D01*
X30564026Y-41076149D01*
X30587092Y-41143295D01*
X30570195Y-41212251D01*
X30518699Y-41261126D01*
X30461221Y-41275000D01*
X20816417Y-41275000D01*
X20748296Y-41254998D01*
X20701803Y-41201342D01*
X20695268Y-41183627D01*
X20693361Y-41176955D01*
X20689783Y-41160191D01*
X20686870Y-41139848D01*
X20686867Y-41139838D01*
X20685595Y-41130955D01*
X20674979Y-41107605D01*
X20668536Y-41090093D01*
X20663954Y-41074063D01*
X20661488Y-41065435D01*
X20645726Y-41040452D01*
X20637596Y-41025386D01*
X20625367Y-40998490D01*
X20608626Y-40979061D01*
X20597521Y-40964053D01*
X20588630Y-40949961D01*
X20583840Y-40942369D01*
X20561703Y-40922818D01*
X20549659Y-40910626D01*
X20536239Y-40895051D01*
X20536237Y-40895050D01*
X20530381Y-40888253D01*
X20522853Y-40883374D01*
X20522850Y-40883371D01*
X20508861Y-40874304D01*
X20493987Y-40863014D01*
X20481502Y-40851988D01*
X20474772Y-40846044D01*
X20466646Y-40842229D01*
X20466645Y-40842228D01*
X20460979Y-40839568D01*
X20448034Y-40833490D01*
X20433065Y-40825176D01*
X20408273Y-40809107D01*
X20383709Y-40801761D01*
X20366264Y-40795099D01*
X20359642Y-40791990D01*
X20343052Y-40784201D01*
X20313870Y-40779657D01*
X20297151Y-40775874D01*
X20277464Y-40769986D01*
X20277461Y-40769985D01*
X20268859Y-40767413D01*
X20259884Y-40767358D01*
X20259883Y-40767358D01*
X20253190Y-40767317D01*
X20234444Y-40767203D01*
X20233672Y-40767170D01*
X20232577Y-40767000D01*
X20201702Y-40767000D01*
X20200932Y-40766998D01*
X20127284Y-40766548D01*
X20127283Y-40766548D01*
X20123348Y-40766524D01*
X20122004Y-40766908D01*
X20120659Y-40767000D01*
X18975295Y-40767000D01*
X18907174Y-40746998D01*
X18860681Y-40693342D01*
X18850577Y-40623068D01*
X18880071Y-40558488D01*
X18888403Y-40549754D01*
X18911266Y-40527982D01*
X19011643Y-40376902D01*
X19076055Y-40207338D01*
X19077035Y-40200366D01*
X19100748Y-40031639D01*
X19100748Y-40031636D01*
X19101299Y-40027717D01*
X19101616Y-40005000D01*
X19100342Y-39993640D01*
X25602463Y-39993640D01*
X25620163Y-40174160D01*
X25677418Y-40346273D01*
X25681065Y-40352295D01*
X25681066Y-40352297D01*
X25739910Y-40449460D01*
X25771380Y-40501424D01*
X25897382Y-40631902D01*
X25903278Y-40635760D01*
X26033540Y-40721001D01*
X26049159Y-40731222D01*
X26055763Y-40733678D01*
X26055765Y-40733679D01*
X26212558Y-40791990D01*
X26212560Y-40791990D01*
X26219168Y-40794448D01*
X26302995Y-40805633D01*
X26391980Y-40817507D01*
X26391984Y-40817507D01*
X26398961Y-40818438D01*
X26405972Y-40817800D01*
X26405976Y-40817800D01*
X26548459Y-40804832D01*
X26579600Y-40801998D01*
X26586302Y-40799820D01*
X26586304Y-40799820D01*
X26745409Y-40748124D01*
X26745412Y-40748123D01*
X26752108Y-40745947D01*
X26907912Y-40653069D01*
X27039266Y-40527982D01*
X27139643Y-40376902D01*
X27204055Y-40207338D01*
X27205035Y-40200366D01*
X27228748Y-40031639D01*
X27228748Y-40031636D01*
X27229299Y-40027717D01*
X27229616Y-40005000D01*
X27209397Y-39824745D01*
X27207080Y-39818091D01*
X27152064Y-39660106D01*
X27152062Y-39660103D01*
X27149745Y-39653448D01*
X27053626Y-39499624D01*
X26951696Y-39396980D01*
X26930778Y-39375915D01*
X26930774Y-39375912D01*
X26925815Y-39370918D01*
X26914697Y-39363862D01*
X26866538Y-39333300D01*
X26772666Y-39273727D01*
X26743463Y-39263328D01*
X26608425Y-39215243D01*
X26608420Y-39215242D01*
X26601790Y-39212881D01*
X26594802Y-39212048D01*
X26594799Y-39212047D01*
X26449480Y-39194719D01*
X26421680Y-39191404D01*
X26414677Y-39192140D01*
X26414676Y-39192140D01*
X26248288Y-39209628D01*
X26248286Y-39209629D01*
X26241288Y-39210364D01*
X26069579Y-39268818D01*
X26063575Y-39272512D01*
X25921095Y-39360166D01*
X25921092Y-39360168D01*
X25915088Y-39363862D01*
X25910053Y-39368793D01*
X25910050Y-39368795D01*
X25901102Y-39377558D01*
X25785493Y-39490771D01*
X25687235Y-39643238D01*
X25684826Y-39649858D01*
X25684824Y-39649861D01*
X25651537Y-39741317D01*
X25625197Y-39813685D01*
X25602463Y-39993640D01*
X19100342Y-39993640D01*
X19081397Y-39824745D01*
X19079080Y-39818091D01*
X19024064Y-39660106D01*
X19024062Y-39660103D01*
X19021745Y-39653448D01*
X18925626Y-39499624D01*
X18823696Y-39396980D01*
X18802778Y-39375915D01*
X18802774Y-39375912D01*
X18797815Y-39370918D01*
X18786697Y-39363862D01*
X18738538Y-39333300D01*
X18644666Y-39273727D01*
X18615463Y-39263328D01*
X18480425Y-39215243D01*
X18480420Y-39215242D01*
X18473790Y-39212881D01*
X18466802Y-39212048D01*
X18466799Y-39212047D01*
X18321480Y-39194719D01*
X18293680Y-39191404D01*
X18286677Y-39192140D01*
X18286676Y-39192140D01*
X18120288Y-39209628D01*
X18120286Y-39209629D01*
X18113288Y-39210364D01*
X17941579Y-39268818D01*
X17935575Y-39272512D01*
X17793095Y-39360166D01*
X17793092Y-39360168D01*
X17787088Y-39363862D01*
X17782053Y-39368793D01*
X17782050Y-39368795D01*
X17773102Y-39377558D01*
X17657493Y-39490771D01*
X17559235Y-39643238D01*
X17556826Y-39649858D01*
X17556824Y-39649861D01*
X17523537Y-39741317D01*
X17497197Y-39813685D01*
X17474463Y-39993640D01*
X17492163Y-40174160D01*
X17549418Y-40346273D01*
X17553065Y-40352295D01*
X17553066Y-40352297D01*
X17611910Y-40449460D01*
X17643380Y-40501424D01*
X17669027Y-40527982D01*
X17693643Y-40553473D01*
X17726575Y-40616370D01*
X17720275Y-40687086D01*
X17676743Y-40743171D01*
X17603006Y-40767000D01*
X4591919Y-40767000D01*
X4523798Y-40746998D01*
X4477305Y-40693342D01*
X4467201Y-40623068D01*
X4476839Y-40594164D01*
X4475615Y-40593705D01*
X4490891Y-40552956D01*
X4526745Y-40457316D01*
X4533500Y-40395134D01*
X4533500Y-38598866D01*
X4526745Y-38536684D01*
X4475615Y-38400295D01*
X4388261Y-38283739D01*
X4381265Y-38278495D01*
X4347294Y-38216285D01*
X4352359Y-38145470D01*
X4394906Y-38088634D01*
X4461426Y-38063823D01*
X4475031Y-38063587D01*
X4501672Y-38064564D01*
X4501677Y-38064564D01*
X4506837Y-38064753D01*
X4511957Y-38064097D01*
X4511959Y-38064097D01*
X4723288Y-38037025D01*
X4723289Y-38037025D01*
X4728416Y-38036368D01*
X4733366Y-38034883D01*
X4937429Y-37973661D01*
X4937434Y-37973659D01*
X4942384Y-37972174D01*
X5142994Y-37873896D01*
X5324860Y-37744173D01*
X5483096Y-37586489D01*
X5542594Y-37503689D01*
X5610435Y-37409277D01*
X5613453Y-37405077D01*
X5634176Y-37363148D01*
X5710136Y-37209453D01*
X5710137Y-37209451D01*
X5712430Y-37204811D01*
X5775180Y-36998277D01*
X5775865Y-36996023D01*
X5775865Y-36996021D01*
X5777370Y-36991069D01*
X5806529Y-36769590D01*
X5806611Y-36766240D01*
X5808074Y-36706365D01*
X5808074Y-36706361D01*
X5808156Y-36703000D01*
X5791124Y-36495835D01*
X6333819Y-36495835D01*
X6334121Y-36499670D01*
X6357340Y-36794691D01*
X6359527Y-36822484D01*
X6424851Y-37143564D01*
X6476835Y-37298928D01*
X6518522Y-37423516D01*
X6528819Y-37454291D01*
X6669879Y-37750030D01*
X6845930Y-38026375D01*
X6848373Y-38029338D01*
X6848374Y-38029340D01*
X6996964Y-38209593D01*
X7054347Y-38279204D01*
X7292022Y-38504749D01*
X7555412Y-38699648D01*
X7698002Y-38780321D01*
X7837235Y-38859096D01*
X7837239Y-38859098D01*
X7840592Y-38860995D01*
X8143309Y-38986384D01*
X8178791Y-38996224D01*
X8455334Y-39072917D01*
X8455342Y-39072919D01*
X8459050Y-39073947D01*
X8783110Y-39122378D01*
X8786408Y-39122522D01*
X8899045Y-39127440D01*
X8899049Y-39127440D01*
X8900421Y-39127500D01*
X9100221Y-39127500D01*
X9344047Y-39112587D01*
X9347830Y-39111886D01*
X9347837Y-39111885D01*
X9505133Y-39082731D01*
X9666219Y-39052876D01*
X9832512Y-39000444D01*
X9975045Y-38955504D01*
X9975052Y-38955501D01*
X9978713Y-38954347D01*
X10187722Y-38859096D01*
X10273372Y-38820063D01*
X10273376Y-38820061D01*
X10276869Y-38818469D01*
X10280138Y-38816465D01*
X10280145Y-38816462D01*
X10552966Y-38649277D01*
X10552969Y-38649275D01*
X10556244Y-38647268D01*
X10559248Y-38644878D01*
X10559253Y-38644875D01*
X10809661Y-38445691D01*
X10809660Y-38445691D01*
X10812672Y-38443296D01*
X10846667Y-38408703D01*
X10971326Y-38281848D01*
X11042331Y-38209593D01*
X11052466Y-38196385D01*
X11239447Y-37952707D01*
X11239449Y-37952704D01*
X11241797Y-37949644D01*
X11408096Y-37667324D01*
X11497451Y-37461822D01*
X11537214Y-37370375D01*
X11537215Y-37370372D01*
X11538750Y-37366842D01*
X11631810Y-37052676D01*
X11685889Y-36729512D01*
X11700181Y-36402165D01*
X11674473Y-36075516D01*
X11609149Y-35754436D01*
X11546634Y-35567598D01*
X11506401Y-35447354D01*
X11506399Y-35447348D01*
X11505181Y-35443709D01*
X11364121Y-35147970D01*
X11353129Y-35130715D01*
X11236953Y-34948356D01*
X11188070Y-34871625D01*
X11165986Y-34844835D01*
X23732819Y-34844835D01*
X23735183Y-34874869D01*
X23750110Y-35064531D01*
X23758527Y-35171484D01*
X23823851Y-35492564D01*
X23842904Y-35549507D01*
X23910253Y-35750791D01*
X23927819Y-35803291D01*
X24068879Y-36099030D01*
X24070941Y-36102267D01*
X24070944Y-36102272D01*
X24115581Y-36172338D01*
X24244930Y-36375375D01*
X24247373Y-36378338D01*
X24247374Y-36378340D01*
X24395964Y-36558593D01*
X24453347Y-36628204D01*
X24691022Y-36853749D01*
X24954412Y-37048648D01*
X25055067Y-37105596D01*
X25236235Y-37208096D01*
X25236239Y-37208098D01*
X25239592Y-37209995D01*
X25542309Y-37335384D01*
X25642422Y-37363148D01*
X25854334Y-37421917D01*
X25854342Y-37421919D01*
X25858050Y-37422947D01*
X26182110Y-37471378D01*
X26185408Y-37471522D01*
X26298045Y-37476440D01*
X26298049Y-37476440D01*
X26299421Y-37476500D01*
X26499221Y-37476500D01*
X26743047Y-37461587D01*
X26746830Y-37460886D01*
X26746837Y-37460885D01*
X26904133Y-37431732D01*
X27065219Y-37401876D01*
X27192817Y-37361644D01*
X27374045Y-37304504D01*
X27374052Y-37304501D01*
X27377713Y-37303347D01*
X27593930Y-37204811D01*
X27672372Y-37169063D01*
X27672376Y-37169061D01*
X27675869Y-37167469D01*
X27679138Y-37165465D01*
X27679145Y-37165462D01*
X27951966Y-36998277D01*
X27951969Y-36998275D01*
X27955244Y-36996268D01*
X27958248Y-36993878D01*
X27958253Y-36993875D01*
X28208661Y-36794691D01*
X28208660Y-36794691D01*
X28211672Y-36792296D01*
X28237278Y-36766240D01*
X28370326Y-36630848D01*
X28441331Y-36558593D01*
X28492439Y-36491988D01*
X28638447Y-36301707D01*
X28638449Y-36301704D01*
X28640797Y-36298644D01*
X28807096Y-36016324D01*
X28937750Y-35715842D01*
X29030810Y-35401676D01*
X29084889Y-35078512D01*
X29099181Y-34751165D01*
X29075849Y-34454704D01*
X29073775Y-34428351D01*
X29073775Y-34428348D01*
X29073473Y-34424516D01*
X29008149Y-34103436D01*
X28921484Y-33844422D01*
X28905401Y-33796354D01*
X28905399Y-33796348D01*
X28904181Y-33792709D01*
X28763121Y-33496970D01*
X28587070Y-33220625D01*
X28453926Y-33059109D01*
X28381096Y-32970759D01*
X28381092Y-32970755D01*
X28378653Y-32967796D01*
X28140978Y-32742251D01*
X27877588Y-32547352D01*
X27671120Y-32430538D01*
X27595765Y-32387904D01*
X27595761Y-32387902D01*
X27592408Y-32386005D01*
X27557347Y-32371482D01*
X27399152Y-32305956D01*
X27289691Y-32260616D01*
X27105846Y-32209631D01*
X26977666Y-32174083D01*
X26977658Y-32174081D01*
X26973950Y-32173053D01*
X26649890Y-32124622D01*
X26646592Y-32124478D01*
X26533955Y-32119560D01*
X26533951Y-32119560D01*
X26532579Y-32119500D01*
X26332779Y-32119500D01*
X26088953Y-32134413D01*
X26085170Y-32135114D01*
X26085163Y-32135115D01*
X25927867Y-32164269D01*
X25766781Y-32194124D01*
X25639183Y-32234356D01*
X25457955Y-32291496D01*
X25457948Y-32291499D01*
X25454287Y-32292653D01*
X25344046Y-32342893D01*
X25159628Y-32426937D01*
X25159624Y-32426939D01*
X25156131Y-32428531D01*
X25152862Y-32430535D01*
X25152855Y-32430538D01*
X24889987Y-32591624D01*
X24876756Y-32599732D01*
X24873752Y-32602122D01*
X24873747Y-32602125D01*
X24782587Y-32674637D01*
X24620328Y-32803704D01*
X24617636Y-32806443D01*
X24617632Y-32806447D01*
X24501162Y-32924968D01*
X24390669Y-33037407D01*
X24388324Y-33040463D01*
X24213512Y-33268283D01*
X24191203Y-33297356D01*
X24024904Y-33579676D01*
X24023369Y-33583207D01*
X23909789Y-33844422D01*
X23894250Y-33880158D01*
X23801190Y-34194324D01*
X23747111Y-34517488D01*
X23732819Y-34844835D01*
X11165986Y-34844835D01*
X11162815Y-34840988D01*
X10982096Y-34621759D01*
X10982092Y-34621755D01*
X10979653Y-34618796D01*
X10741978Y-34393251D01*
X10478588Y-34198352D01*
X10317479Y-34107201D01*
X10196765Y-34038904D01*
X10196761Y-34038902D01*
X10193408Y-34037005D01*
X9890691Y-33911616D01*
X9785923Y-33882561D01*
X9578666Y-33825083D01*
X9578658Y-33825081D01*
X9574950Y-33824053D01*
X9250890Y-33775622D01*
X9247592Y-33775478D01*
X9134955Y-33770560D01*
X9134951Y-33770560D01*
X9133579Y-33770500D01*
X8933779Y-33770500D01*
X8689953Y-33785413D01*
X8686170Y-33786114D01*
X8686163Y-33786115D01*
X8528867Y-33815269D01*
X8367781Y-33845124D01*
X8244952Y-33883852D01*
X8058955Y-33942496D01*
X8058948Y-33942499D01*
X8055287Y-33943653D01*
X7906209Y-34011592D01*
X7760628Y-34077937D01*
X7760624Y-34077939D01*
X7757131Y-34079531D01*
X7753862Y-34081535D01*
X7753855Y-34081538D01*
X7481034Y-34248723D01*
X7477756Y-34250732D01*
X7474752Y-34253122D01*
X7474747Y-34253125D01*
X7301461Y-34390963D01*
X7221328Y-34454704D01*
X7218636Y-34457443D01*
X7218632Y-34457447D01*
X7159630Y-34517488D01*
X6991669Y-34688407D01*
X6989324Y-34691463D01*
X6848592Y-34874869D01*
X6792203Y-34948356D01*
X6625904Y-35230676D01*
X6560262Y-35381642D01*
X6499939Y-35520375D01*
X6495250Y-35531158D01*
X6402190Y-35845324D01*
X6348111Y-36168488D01*
X6333819Y-36495835D01*
X5791124Y-36495835D01*
X5789852Y-36480361D01*
X5735431Y-36263702D01*
X5646354Y-36058840D01*
X5525014Y-35871277D01*
X5521532Y-35867450D01*
X5377798Y-35709488D01*
X5346746Y-35645642D01*
X5355141Y-35575143D01*
X5400317Y-35520375D01*
X5426761Y-35506706D01*
X5533297Y-35466767D01*
X5541705Y-35463615D01*
X5658261Y-35376261D01*
X5745615Y-35259705D01*
X5796745Y-35123316D01*
X5803500Y-35061134D01*
X5803500Y-33264866D01*
X5796745Y-33202684D01*
X5745615Y-33066295D01*
X5658261Y-32949739D01*
X5541705Y-32862385D01*
X5405316Y-32811255D01*
X5343134Y-32804500D01*
X3546866Y-32804500D01*
X3484684Y-32811255D01*
X3348295Y-32862385D01*
X3231739Y-32949739D01*
X3144385Y-33066295D01*
X3093255Y-33202684D01*
X3086500Y-33264866D01*
X3086500Y-35061134D01*
X3093255Y-35123316D01*
X3144385Y-35259705D01*
X3231739Y-35376261D01*
X3348295Y-35463615D01*
X3356704Y-35466767D01*
X3356705Y-35466768D01*
X3465451Y-35507535D01*
X3522216Y-35550176D01*
X3546916Y-35616738D01*
X3531709Y-35686087D01*
X3512316Y-35712568D01*
X3385629Y-35845138D01*
X3259743Y-36029680D01*
X3244003Y-36063590D01*
X3193524Y-36172338D01*
X3165688Y-36232305D01*
X3105989Y-36447570D01*
X3082251Y-36669695D01*
X3082548Y-36674848D01*
X3082548Y-36674851D01*
X3092863Y-36853749D01*
X3095110Y-36892715D01*
X3096247Y-36897761D01*
X3096248Y-36897767D01*
X3116119Y-36985939D01*
X3144222Y-37110639D01*
X3228266Y-37317616D01*
X3256168Y-37363148D01*
X3309787Y-37450646D01*
X3344987Y-37508088D01*
X3491250Y-37676938D01*
X3663126Y-37819632D01*
X3750847Y-37870892D01*
X3807012Y-37903712D01*
X3855736Y-37955351D01*
X3868807Y-38025134D01*
X3842076Y-38090905D01*
X3784029Y-38131784D01*
X3743442Y-38138500D01*
X2276866Y-38138500D01*
X2214684Y-38145255D01*
X2078295Y-38196385D01*
X1961739Y-38283739D01*
X1874385Y-38400295D01*
X1823255Y-38536684D01*
X1816500Y-38598866D01*
X1816500Y-39126598D01*
X1796498Y-39194719D01*
X1742842Y-39241212D01*
X1672568Y-39251316D01*
X1622153Y-39232450D01*
X1522399Y-39168040D01*
X1522394Y-39168038D01*
X1517357Y-39164785D01*
X1325416Y-39087430D01*
X1319535Y-39086282D01*
X1319530Y-39086280D01*
X1126756Y-39048634D01*
X1126753Y-39048634D01*
X1122310Y-39047766D01*
X1116871Y-39047500D01*
X964296Y-39047500D01*
X809993Y-39062222D01*
X804239Y-39063910D01*
X773537Y-39072917D01*
X669470Y-39103447D01*
X598473Y-39103430D01*
X538756Y-39065032D01*
X509278Y-39000444D01*
X508000Y-38982542D01*
X508000Y-31885702D01*
X508002Y-31884932D01*
X508050Y-31877000D01*
X508476Y-31807348D01*
X506010Y-31798719D01*
X506009Y-31798714D01*
X500361Y-31778952D01*
X496783Y-31762191D01*
X493870Y-31741848D01*
X493867Y-31741838D01*
X492595Y-31732955D01*
X481979Y-31709605D01*
X475536Y-31692093D01*
X470954Y-31676063D01*
X468488Y-31667435D01*
X452726Y-31642452D01*
X444596Y-31627386D01*
X432367Y-31600490D01*
X415626Y-31581061D01*
X404521Y-31566053D01*
X395630Y-31551961D01*
X390840Y-31544369D01*
X368703Y-31524818D01*
X356659Y-31512626D01*
X343239Y-31497051D01*
X343237Y-31497050D01*
X337381Y-31490253D01*
X329853Y-31485374D01*
X329850Y-31485371D01*
X315861Y-31476304D01*
X300987Y-31465014D01*
X296640Y-31461175D01*
X281772Y-31448044D01*
X273646Y-31444229D01*
X273645Y-31444228D01*
X267979Y-31441568D01*
X255034Y-31435490D01*
X240065Y-31427176D01*
X215273Y-31411107D01*
X190709Y-31403761D01*
X173264Y-31397099D01*
X150052Y-31386201D01*
X120870Y-31381657D01*
X104151Y-31377874D01*
X84464Y-31371986D01*
X84461Y-31371985D01*
X75859Y-31369413D01*
X66884Y-31369358D01*
X66883Y-31369358D01*
X60190Y-31369317D01*
X41444Y-31369203D01*
X40672Y-31369170D01*
X39577Y-31369000D01*
X8702Y-31369000D01*
X7932Y-31368998D01*
X-65716Y-31368548D01*
X-65717Y-31368548D01*
X-69652Y-31368524D01*
X-70996Y-31368908D01*
X-72341Y-31369000D01*
X-1558408Y-31369000D01*
X-1626529Y-31348998D01*
X-1673022Y-31295342D01*
X-1683126Y-31225068D01*
X-1676196Y-31198256D01*
X-1640254Y-31103640D01*
X1345463Y-31103640D01*
X1363163Y-31284160D01*
X1420418Y-31456273D01*
X1424065Y-31462295D01*
X1424066Y-31462297D01*
X1503642Y-31593693D01*
X1514380Y-31611424D01*
X1519269Y-31616487D01*
X1519270Y-31616488D01*
X1576802Y-31676063D01*
X1640382Y-31741902D01*
X1792159Y-31841222D01*
X1798763Y-31843678D01*
X1798765Y-31843679D01*
X1955558Y-31901990D01*
X1955560Y-31901990D01*
X1962168Y-31904448D01*
X2042142Y-31915119D01*
X2134980Y-31927507D01*
X2134984Y-31927507D01*
X2141961Y-31928438D01*
X2148972Y-31927800D01*
X2148976Y-31927800D01*
X2291459Y-31914832D01*
X2322600Y-31911998D01*
X2329302Y-31909820D01*
X2329304Y-31909820D01*
X2488409Y-31858124D01*
X2488412Y-31858123D01*
X2495108Y-31855947D01*
X2591513Y-31798478D01*
X2644860Y-31766677D01*
X2644862Y-31766676D01*
X2650912Y-31763069D01*
X2782266Y-31637982D01*
X2882643Y-31486902D01*
X2885146Y-31480314D01*
X2888365Y-31474050D01*
X2891170Y-31475492D01*
X2925738Y-31429996D01*
X2992434Y-31405662D01*
X3061699Y-31421249D01*
X3109408Y-31469646D01*
X3109811Y-31469402D01*
X3112807Y-31474349D01*
X3198889Y-31616488D01*
X3203773Y-31624553D01*
X3208662Y-31629616D01*
X3208663Y-31629617D01*
X3237858Y-31659849D01*
X3329775Y-31755031D01*
X3347572Y-31766677D01*
X3461489Y-31841222D01*
X3481552Y-31854351D01*
X3488156Y-31856807D01*
X3488158Y-31856808D01*
X3644951Y-31915119D01*
X3644953Y-31915119D01*
X3651561Y-31917577D01*
X3732959Y-31928438D01*
X3824373Y-31940636D01*
X3824377Y-31940636D01*
X3831354Y-31941567D01*
X3838365Y-31940929D01*
X3838369Y-31940929D01*
X3985842Y-31927507D01*
X4011993Y-31925127D01*
X4018695Y-31922949D01*
X4018697Y-31922949D01*
X4177802Y-31871253D01*
X4177805Y-31871252D01*
X4184501Y-31869076D01*
X4238074Y-31837140D01*
X9600463Y-31837140D01*
X9618163Y-32017660D01*
X9675418Y-32189773D01*
X9679065Y-32195795D01*
X9679066Y-32195797D01*
X9755593Y-32322158D01*
X9769380Y-32344924D01*
X9774269Y-32349987D01*
X9774270Y-32349988D01*
X9848580Y-32426937D01*
X9895382Y-32475402D01*
X10047159Y-32574722D01*
X10053763Y-32577178D01*
X10053765Y-32577179D01*
X10210558Y-32635490D01*
X10210560Y-32635490D01*
X10217168Y-32637948D01*
X10300995Y-32649133D01*
X10389980Y-32661007D01*
X10389984Y-32661007D01*
X10396961Y-32661938D01*
X10403972Y-32661300D01*
X10403976Y-32661300D01*
X10546459Y-32648332D01*
X10577600Y-32645498D01*
X10584302Y-32643320D01*
X10584304Y-32643320D01*
X10743409Y-32591624D01*
X10743412Y-32591623D01*
X10750108Y-32589447D01*
X10905912Y-32496569D01*
X10947800Y-32456680D01*
X11012939Y-32394649D01*
X11076064Y-32362157D01*
X11146735Y-32368950D01*
X11190467Y-32398368D01*
X11287483Y-32498830D01*
X11287488Y-32498834D01*
X11292382Y-32503902D01*
X11298278Y-32507760D01*
X11435756Y-32597723D01*
X11444159Y-32603222D01*
X11450763Y-32605678D01*
X11450765Y-32605679D01*
X11607558Y-32663990D01*
X11607560Y-32663990D01*
X11614168Y-32666448D01*
X11697995Y-32677633D01*
X11786980Y-32689507D01*
X11786984Y-32689507D01*
X11793961Y-32690438D01*
X11800972Y-32689800D01*
X11800976Y-32689800D01*
X11943459Y-32676832D01*
X11974600Y-32673998D01*
X11981302Y-32671820D01*
X11981304Y-32671820D01*
X12140409Y-32620124D01*
X12140412Y-32620123D01*
X12147108Y-32617947D01*
X12243513Y-32560478D01*
X12296860Y-32528677D01*
X12296862Y-32528676D01*
X12302912Y-32525069D01*
X12434266Y-32399982D01*
X12534643Y-32248902D01*
X12599055Y-32079338D01*
X12617703Y-31946652D01*
X12623748Y-31903639D01*
X12623748Y-31903636D01*
X12624299Y-31899717D01*
X12624616Y-31877000D01*
X12604397Y-31696745D01*
X12593055Y-31664175D01*
X12547064Y-31532106D01*
X12547062Y-31532103D01*
X12544745Y-31525448D01*
X12479635Y-31421249D01*
X12452359Y-31377598D01*
X12448626Y-31371624D01*
X12434187Y-31357084D01*
X12325778Y-31247915D01*
X12325774Y-31247912D01*
X12320815Y-31242918D01*
X12309697Y-31235862D01*
X12256770Y-31202274D01*
X12167666Y-31145727D01*
X12118245Y-31128129D01*
X12003425Y-31087243D01*
X12003420Y-31087242D01*
X11996790Y-31084881D01*
X11989802Y-31084048D01*
X11989799Y-31084047D01*
X11866698Y-31069368D01*
X11816680Y-31063404D01*
X11809677Y-31064140D01*
X11809676Y-31064140D01*
X11643288Y-31081628D01*
X11643286Y-31081629D01*
X11636288Y-31082364D01*
X11464579Y-31140818D01*
X11458575Y-31144512D01*
X11316095Y-31232166D01*
X11316092Y-31232168D01*
X11310088Y-31235862D01*
X11305053Y-31240793D01*
X11305050Y-31240795D01*
X11274839Y-31270380D01*
X11214629Y-31329343D01*
X11214449Y-31329519D01*
X11151784Y-31362890D01*
X11081025Y-31357084D01*
X11036885Y-31328280D01*
X10928778Y-31219415D01*
X10928774Y-31219412D01*
X10923815Y-31214418D01*
X10912697Y-31207362D01*
X10823641Y-31150846D01*
X10770666Y-31117227D01*
X10732509Y-31103640D01*
X10606425Y-31058743D01*
X10606420Y-31058742D01*
X10599790Y-31056381D01*
X10592802Y-31055548D01*
X10592799Y-31055547D01*
X10468555Y-31040732D01*
X10419680Y-31034904D01*
X10412677Y-31035640D01*
X10412676Y-31035640D01*
X10246288Y-31053128D01*
X10246286Y-31053129D01*
X10239288Y-31053864D01*
X10067579Y-31112318D01*
X10041879Y-31128129D01*
X9919095Y-31203666D01*
X9919092Y-31203668D01*
X9913088Y-31207362D01*
X9908053Y-31212293D01*
X9908050Y-31212295D01*
X9788525Y-31329343D01*
X9783493Y-31334271D01*
X9685235Y-31486738D01*
X9682826Y-31493358D01*
X9682824Y-31493361D01*
X9637266Y-31618530D01*
X9623197Y-31657185D01*
X9600463Y-31837140D01*
X4238074Y-31837140D01*
X4280906Y-31811607D01*
X4334253Y-31779806D01*
X4334255Y-31779805D01*
X4340305Y-31776198D01*
X4471659Y-31651111D01*
X4572036Y-31500031D01*
X4621675Y-31369358D01*
X4633948Y-31337049D01*
X4633949Y-31337047D01*
X4636448Y-31330467D01*
X4641111Y-31297289D01*
X4661141Y-31154768D01*
X4661141Y-31154765D01*
X4661692Y-31150846D01*
X4662009Y-31128129D01*
X4641790Y-30947874D01*
X4639473Y-30941220D01*
X4584457Y-30783235D01*
X4584455Y-30783232D01*
X4582138Y-30776577D01*
X4523456Y-30682665D01*
X4489752Y-30628727D01*
X4486019Y-30622753D01*
X4476373Y-30613039D01*
X4363171Y-30499044D01*
X4363167Y-30499041D01*
X4358208Y-30494047D01*
X4347090Y-30486991D01*
X4211899Y-30401197D01*
X4205059Y-30396856D01*
X4161547Y-30381362D01*
X4110537Y-30363198D01*
X12797021Y-30363198D01*
X12814721Y-30543718D01*
X12871976Y-30715831D01*
X12875623Y-30721853D01*
X12875624Y-30721855D01*
X12959893Y-30861000D01*
X12965938Y-30870982D01*
X12970827Y-30876045D01*
X12970828Y-30876046D01*
X13040192Y-30947874D01*
X13091940Y-31001460D01*
X13151954Y-31040732D01*
X13237400Y-31096646D01*
X13243717Y-31100780D01*
X13250321Y-31103236D01*
X13250323Y-31103237D01*
X13407116Y-31161548D01*
X13407118Y-31161548D01*
X13413726Y-31164006D01*
X13497553Y-31175191D01*
X13586538Y-31187065D01*
X13586542Y-31187065D01*
X13593519Y-31187996D01*
X13600530Y-31187358D01*
X13600534Y-31187358D01*
X13743017Y-31174390D01*
X13774158Y-31171556D01*
X13780860Y-31169378D01*
X13780862Y-31169378D01*
X13939967Y-31117682D01*
X13939970Y-31117681D01*
X13946666Y-31115505D01*
X14051304Y-31053128D01*
X14096418Y-31026235D01*
X14096420Y-31026234D01*
X14102470Y-31022627D01*
X14233824Y-30897540D01*
X14334201Y-30746460D01*
X14384556Y-30613900D01*
X14396113Y-30583478D01*
X14396114Y-30583476D01*
X14398613Y-30576896D01*
X14399593Y-30569924D01*
X14413828Y-30468640D01*
X20014463Y-30468640D01*
X20032163Y-30649160D01*
X20089418Y-30821273D01*
X20093065Y-30827295D01*
X20093066Y-30827297D01*
X20166090Y-30947874D01*
X20183380Y-30976424D01*
X20188269Y-30981487D01*
X20188270Y-30981488D01*
X20239854Y-31034904D01*
X20309382Y-31106902D01*
X20347242Y-31131677D01*
X20455126Y-31202274D01*
X20461159Y-31206222D01*
X20467763Y-31208678D01*
X20467765Y-31208679D01*
X20624558Y-31266990D01*
X20624560Y-31266990D01*
X20631168Y-31269448D01*
X20714995Y-31280633D01*
X20803980Y-31292507D01*
X20803984Y-31292507D01*
X20810961Y-31293438D01*
X20817972Y-31292800D01*
X20817976Y-31292800D01*
X20960459Y-31279832D01*
X20991600Y-31276998D01*
X20998302Y-31274820D01*
X20998304Y-31274820D01*
X21157409Y-31223124D01*
X21157412Y-31223123D01*
X21164108Y-31220947D01*
X21288346Y-31146886D01*
X21313860Y-31131677D01*
X21313862Y-31131676D01*
X21319912Y-31128069D01*
X21451266Y-31002982D01*
X21551643Y-30851902D01*
X21616055Y-30682338D01*
X21617214Y-30674091D01*
X21640748Y-30506639D01*
X21640748Y-30506636D01*
X21641299Y-30502717D01*
X21641473Y-30490272D01*
X21641561Y-30483962D01*
X21641561Y-30483957D01*
X21641616Y-30480000D01*
X21621397Y-30299745D01*
X21619080Y-30293091D01*
X21564064Y-30135106D01*
X21564062Y-30135103D01*
X21561745Y-30128448D01*
X21511625Y-30048238D01*
X21469359Y-29980598D01*
X21465626Y-29974624D01*
X21454518Y-29963438D01*
X21342778Y-29850915D01*
X21342774Y-29850912D01*
X21337815Y-29845918D01*
X21326697Y-29838862D01*
X21278538Y-29808300D01*
X21184666Y-29748727D01*
X21141679Y-29733420D01*
X21020425Y-29690243D01*
X21020420Y-29690242D01*
X21013790Y-29687881D01*
X21006802Y-29687048D01*
X21006799Y-29687047D01*
X20883698Y-29672368D01*
X20833680Y-29666404D01*
X20826677Y-29667140D01*
X20826676Y-29667140D01*
X20660288Y-29684628D01*
X20660286Y-29684629D01*
X20653288Y-29685364D01*
X20481579Y-29743818D01*
X20467457Y-29752506D01*
X20333095Y-29835166D01*
X20333092Y-29835168D01*
X20327088Y-29838862D01*
X20322053Y-29843793D01*
X20322050Y-29843795D01*
X20202953Y-29960424D01*
X20197493Y-29965771D01*
X20099235Y-30118238D01*
X20096826Y-30124858D01*
X20096824Y-30124861D01*
X20039606Y-30282066D01*
X20037197Y-30288685D01*
X20014463Y-30468640D01*
X14413828Y-30468640D01*
X14423306Y-30401197D01*
X14423306Y-30401194D01*
X14423857Y-30397275D01*
X14424174Y-30374558D01*
X14403955Y-30194303D01*
X14401638Y-30187649D01*
X14346622Y-30029664D01*
X14346620Y-30029661D01*
X14344303Y-30023006D01*
X14307081Y-29963438D01*
X14251917Y-29875156D01*
X14248184Y-29869182D01*
X14218075Y-29838862D01*
X14125336Y-29745473D01*
X14125332Y-29745470D01*
X14120373Y-29740476D01*
X14109255Y-29733420D01*
X14032370Y-29684628D01*
X13967224Y-29643285D01*
X13919106Y-29626151D01*
X13802983Y-29584801D01*
X13802978Y-29584800D01*
X13796348Y-29582439D01*
X13789360Y-29581606D01*
X13789357Y-29581605D01*
X13666256Y-29566926D01*
X13616238Y-29560962D01*
X13609235Y-29561698D01*
X13609234Y-29561698D01*
X13442846Y-29579186D01*
X13442844Y-29579187D01*
X13435846Y-29579922D01*
X13264137Y-29638376D01*
X13217429Y-29667111D01*
X13115653Y-29729724D01*
X13115650Y-29729726D01*
X13109646Y-29733420D01*
X13104611Y-29738351D01*
X13104608Y-29738353D01*
X12998622Y-29842143D01*
X12980051Y-29860329D01*
X12881793Y-30012796D01*
X12879384Y-30019416D01*
X12879382Y-30019419D01*
X12833447Y-30145624D01*
X12819755Y-30183243D01*
X12797021Y-30363198D01*
X4110537Y-30363198D01*
X4040818Y-30338372D01*
X4040813Y-30338371D01*
X4034183Y-30336010D01*
X4027195Y-30335177D01*
X4027192Y-30335176D01*
X3902973Y-30320364D01*
X3854073Y-30314533D01*
X3847070Y-30315269D01*
X3847069Y-30315269D01*
X3680681Y-30332757D01*
X3680679Y-30332758D01*
X3673681Y-30333493D01*
X3501972Y-30391947D01*
X3439502Y-30430379D01*
X3353488Y-30483295D01*
X3353485Y-30483297D01*
X3347481Y-30486991D01*
X3342446Y-30491922D01*
X3342443Y-30491924D01*
X3222918Y-30608972D01*
X3217886Y-30613900D01*
X3173781Y-30682338D01*
X3123821Y-30759861D01*
X3119628Y-30766367D01*
X3118631Y-30769106D01*
X3071534Y-30820029D01*
X3002801Y-30837814D01*
X2935364Y-30815616D01*
X2894086Y-30767300D01*
X2892745Y-30763448D01*
X2885799Y-30752331D01*
X2800359Y-30615598D01*
X2796626Y-30609624D01*
X2737816Y-30550402D01*
X2673778Y-30485915D01*
X2673774Y-30485912D01*
X2668815Y-30480918D01*
X2661164Y-30476062D01*
X2543194Y-30401197D01*
X2515666Y-30383727D01*
X2458014Y-30363198D01*
X2351425Y-30325243D01*
X2351420Y-30325242D01*
X2344790Y-30322881D01*
X2337802Y-30322048D01*
X2337799Y-30322047D01*
X2209462Y-30306744D01*
X2164680Y-30301404D01*
X2157677Y-30302140D01*
X2157676Y-30302140D01*
X1991288Y-30319628D01*
X1991286Y-30319629D01*
X1984288Y-30320364D01*
X1812579Y-30378818D01*
X1789015Y-30393315D01*
X1664095Y-30470166D01*
X1664092Y-30470168D01*
X1658088Y-30473862D01*
X1653053Y-30478793D01*
X1653050Y-30478795D01*
X1579928Y-30550402D01*
X1528493Y-30600771D01*
X1430235Y-30753238D01*
X1427826Y-30759858D01*
X1427824Y-30759861D01*
X1370606Y-30917066D01*
X1368197Y-30923685D01*
X1345463Y-31103640D01*
X-1640254Y-31103640D01*
X-1627445Y-31069920D01*
X-1627444Y-31069918D01*
X-1624945Y-31063338D01*
X-1623850Y-31055547D01*
X-1600252Y-30887639D01*
X-1600252Y-30887636D01*
X-1599701Y-30883717D01*
X-1599384Y-30861000D01*
X-1619603Y-30680745D01*
X-1622694Y-30671868D01*
X-1676936Y-30516106D01*
X-1676938Y-30516103D01*
X-1679255Y-30509448D01*
X-1685935Y-30498757D01*
X-1771641Y-30361598D01*
X-1775374Y-30355624D01*
X-1792506Y-30338372D01*
X-1898222Y-30231915D01*
X-1898226Y-30231912D01*
X-1903185Y-30226918D01*
X-1914303Y-30219862D01*
X-1982436Y-30176624D01*
X-2056334Y-30129727D01*
X-2105241Y-30112312D01*
X-2220575Y-30071243D01*
X-2220580Y-30071242D01*
X-2227210Y-30068881D01*
X-2234198Y-30068048D01*
X-2234201Y-30068047D01*
X-2380778Y-30050569D01*
X-2407320Y-30047404D01*
X-2414323Y-30048140D01*
X-2414324Y-30048140D01*
X-2580712Y-30065628D01*
X-2580714Y-30065629D01*
X-2587712Y-30066364D01*
X-2759421Y-30124818D01*
X-2789702Y-30143447D01*
X-2907905Y-30216166D01*
X-2907908Y-30216168D01*
X-2913912Y-30219862D01*
X-2918947Y-30224793D01*
X-2918950Y-30224795D01*
X-3038475Y-30341843D01*
X-3043507Y-30346771D01*
X-3141765Y-30499238D01*
X-3144174Y-30505858D01*
X-3144176Y-30505861D01*
X-3183789Y-30614697D01*
X-3225883Y-30671868D01*
X-3292205Y-30697206D01*
X-3361696Y-30682665D01*
X-3412295Y-30632862D01*
X-3421181Y-30613039D01*
X-3454936Y-30516106D01*
X-3454938Y-30516103D01*
X-3457255Y-30509448D01*
X-3463935Y-30498757D01*
X-3549641Y-30361598D01*
X-3553374Y-30355624D01*
X-3570506Y-30338372D01*
X-3676222Y-30231915D01*
X-3676226Y-30231912D01*
X-3681185Y-30226918D01*
X-3692303Y-30219862D01*
X-3760436Y-30176624D01*
X-3834334Y-30129727D01*
X-3883241Y-30112312D01*
X-3998575Y-30071243D01*
X-3998580Y-30071242D01*
X-4005210Y-30068881D01*
X-4012198Y-30068048D01*
X-4012201Y-30068047D01*
X-4158778Y-30050569D01*
X-4185320Y-30047404D01*
X-4192323Y-30048140D01*
X-4192324Y-30048140D01*
X-4358712Y-30065628D01*
X-4358714Y-30065629D01*
X-4365712Y-30066364D01*
X-4537421Y-30124818D01*
X-4567702Y-30143447D01*
X-4685905Y-30216166D01*
X-4685908Y-30216168D01*
X-4691912Y-30219862D01*
X-4696947Y-30224793D01*
X-4696950Y-30224795D01*
X-4723699Y-30250990D01*
X-4801900Y-30327571D01*
X-4864564Y-30360941D01*
X-4935323Y-30355135D01*
X-4979463Y-30326331D01*
X-5073222Y-30231915D01*
X-5073226Y-30231912D01*
X-5078185Y-30226918D01*
X-5089303Y-30219862D01*
X-5157436Y-30176624D01*
X-5231334Y-30129727D01*
X-5280241Y-30112312D01*
X-5395575Y-30071243D01*
X-5395580Y-30071242D01*
X-5402210Y-30068881D01*
X-5409198Y-30068048D01*
X-5409201Y-30068047D01*
X-5555778Y-30050569D01*
X-5582320Y-30047404D01*
X-5589323Y-30048140D01*
X-5589324Y-30048140D01*
X-5755712Y-30065628D01*
X-5755714Y-30065629D01*
X-5762712Y-30066364D01*
X-5934421Y-30124818D01*
X-5964702Y-30143447D01*
X-6082905Y-30216166D01*
X-6082908Y-30216168D01*
X-6088912Y-30219862D01*
X-6093947Y-30224793D01*
X-6093950Y-30224795D01*
X-6213475Y-30341843D01*
X-6218507Y-30346771D01*
X-6316765Y-30499238D01*
X-6319174Y-30505858D01*
X-6319176Y-30505861D01*
X-6373765Y-30655844D01*
X-6378803Y-30669685D01*
X-6401537Y-30849640D01*
X-6383837Y-31030160D01*
X-6339312Y-31164006D01*
X-6326582Y-31202273D01*
X-6329378Y-31203203D01*
X-6320907Y-31260407D01*
X-6350128Y-31325111D01*
X-6409692Y-31363746D01*
X-6445699Y-31369000D01*
X-6732000Y-31369000D01*
X-6800121Y-31348998D01*
X-6846614Y-31295342D01*
X-6858000Y-31243000D01*
X-6858000Y-29138640D01*
X-135537Y-29138640D01*
X-117837Y-29319160D01*
X-60582Y-29491273D01*
X-56935Y-29497295D01*
X-56934Y-29497297D01*
X27131Y-29636105D01*
X33380Y-29646424D01*
X38269Y-29651487D01*
X38270Y-29651488D01*
X53357Y-29667111D01*
X159382Y-29776902D01*
X211943Y-29811297D01*
X300401Y-29869182D01*
X311159Y-29876222D01*
X317763Y-29878678D01*
X317765Y-29878679D01*
X474558Y-29936990D01*
X474560Y-29936990D01*
X481168Y-29939448D01*
X564995Y-29950633D01*
X653980Y-29962507D01*
X653984Y-29962507D01*
X660961Y-29963438D01*
X667972Y-29962800D01*
X667976Y-29962800D01*
X810459Y-29949832D01*
X841600Y-29946998D01*
X848302Y-29944820D01*
X848304Y-29944820D01*
X1007409Y-29893124D01*
X1007412Y-29893123D01*
X1014108Y-29890947D01*
X1147722Y-29811297D01*
X1163860Y-29801677D01*
X1163862Y-29801676D01*
X1169912Y-29798069D01*
X1217758Y-29752506D01*
X1225118Y-29745497D01*
X1288243Y-29713005D01*
X1358914Y-29719798D01*
X1402643Y-29749214D01*
X1429382Y-29776902D01*
X1481943Y-29811297D01*
X1570401Y-29869182D01*
X1581159Y-29876222D01*
X1587763Y-29878678D01*
X1587765Y-29878679D01*
X1744558Y-29936990D01*
X1744560Y-29936990D01*
X1751168Y-29939448D01*
X1834995Y-29950633D01*
X1923980Y-29962507D01*
X1923984Y-29962507D01*
X1930961Y-29963438D01*
X1937972Y-29962800D01*
X1937976Y-29962800D01*
X2080459Y-29949832D01*
X2111600Y-29946998D01*
X2118302Y-29944820D01*
X2118304Y-29944820D01*
X2277409Y-29893124D01*
X2277412Y-29893123D01*
X2284108Y-29890947D01*
X2417722Y-29811297D01*
X2433860Y-29801677D01*
X2433862Y-29801676D01*
X2439912Y-29798069D01*
X2571266Y-29672982D01*
X2671643Y-29521902D01*
X2736055Y-29352338D01*
X2737035Y-29345366D01*
X2760748Y-29176639D01*
X2760748Y-29176636D01*
X2761299Y-29172717D01*
X2761616Y-29150000D01*
X2760342Y-29138640D01*
X3674463Y-29138640D01*
X3692163Y-29319160D01*
X3749418Y-29491273D01*
X3753065Y-29497295D01*
X3753066Y-29497297D01*
X3837131Y-29636105D01*
X3843380Y-29646424D01*
X3848269Y-29651487D01*
X3848270Y-29651488D01*
X3863357Y-29667111D01*
X3969382Y-29776902D01*
X4021943Y-29811297D01*
X4110401Y-29869182D01*
X4121159Y-29876222D01*
X4127763Y-29878678D01*
X4127765Y-29878679D01*
X4284558Y-29936990D01*
X4284560Y-29936990D01*
X4291168Y-29939448D01*
X4374995Y-29950633D01*
X4463980Y-29962507D01*
X4463984Y-29962507D01*
X4470961Y-29963438D01*
X4477972Y-29962800D01*
X4477976Y-29962800D01*
X4620459Y-29949832D01*
X4651600Y-29946998D01*
X4658302Y-29944820D01*
X4658304Y-29944820D01*
X4817409Y-29893124D01*
X4817412Y-29893123D01*
X4824108Y-29890947D01*
X4957722Y-29811297D01*
X4973860Y-29801677D01*
X4973862Y-29801676D01*
X4979912Y-29798069D01*
X5027758Y-29752506D01*
X5035118Y-29745497D01*
X5098243Y-29713005D01*
X5168914Y-29719798D01*
X5212643Y-29749214D01*
X5239382Y-29776902D01*
X5291943Y-29811297D01*
X5380401Y-29869182D01*
X5391159Y-29876222D01*
X5397763Y-29878678D01*
X5397765Y-29878679D01*
X5554558Y-29936990D01*
X5554560Y-29936990D01*
X5561168Y-29939448D01*
X5644995Y-29950633D01*
X5733980Y-29962507D01*
X5733984Y-29962507D01*
X5740961Y-29963438D01*
X5747972Y-29962800D01*
X5747976Y-29962800D01*
X5890459Y-29949832D01*
X5921600Y-29946998D01*
X5928302Y-29944820D01*
X5928304Y-29944820D01*
X6087409Y-29893124D01*
X6087412Y-29893123D01*
X6094108Y-29890947D01*
X6227722Y-29811297D01*
X6243860Y-29801677D01*
X6243862Y-29801676D01*
X6249912Y-29798069D01*
X6297758Y-29752506D01*
X6305118Y-29745497D01*
X6368243Y-29713005D01*
X6438914Y-29719798D01*
X6482643Y-29749214D01*
X6509382Y-29776902D01*
X6561943Y-29811297D01*
X6650401Y-29869182D01*
X6661159Y-29876222D01*
X6667763Y-29878678D01*
X6667765Y-29878679D01*
X6824558Y-29936990D01*
X6824560Y-29936990D01*
X6831168Y-29939448D01*
X6914995Y-29950633D01*
X7003980Y-29962507D01*
X7003984Y-29962507D01*
X7010961Y-29963438D01*
X7017972Y-29962800D01*
X7017976Y-29962800D01*
X7160459Y-29949832D01*
X7191600Y-29946998D01*
X7198302Y-29944820D01*
X7198304Y-29944820D01*
X7357409Y-29893124D01*
X7357412Y-29893123D01*
X7364108Y-29890947D01*
X7497722Y-29811297D01*
X7513860Y-29801677D01*
X7513862Y-29801676D01*
X7519912Y-29798069D01*
X7567758Y-29752506D01*
X7575118Y-29745497D01*
X7638243Y-29713005D01*
X7708914Y-29719798D01*
X7752643Y-29749214D01*
X7779382Y-29776902D01*
X7831943Y-29811297D01*
X7920401Y-29869182D01*
X7931159Y-29876222D01*
X7937763Y-29878678D01*
X7937765Y-29878679D01*
X8094558Y-29936990D01*
X8094560Y-29936990D01*
X8101168Y-29939448D01*
X8184995Y-29950633D01*
X8273980Y-29962507D01*
X8273984Y-29962507D01*
X8280961Y-29963438D01*
X8287972Y-29962800D01*
X8287976Y-29962800D01*
X8430459Y-29949832D01*
X8461600Y-29946998D01*
X8468302Y-29944820D01*
X8468304Y-29944820D01*
X8627409Y-29893124D01*
X8627412Y-29893123D01*
X8634108Y-29890947D01*
X8767722Y-29811297D01*
X8783860Y-29801677D01*
X8783862Y-29801676D01*
X8789912Y-29798069D01*
X8921266Y-29672982D01*
X9021643Y-29521902D01*
X9071315Y-29391140D01*
X24078463Y-29391140D01*
X24096163Y-29571660D01*
X24153418Y-29743773D01*
X24157065Y-29749795D01*
X24157066Y-29749797D01*
X24240365Y-29887340D01*
X24247380Y-29898924D01*
X24252269Y-29903987D01*
X24252270Y-29903988D01*
X24311934Y-29965771D01*
X24373382Y-30029402D01*
X24405729Y-30050569D01*
X24519259Y-30124861D01*
X24525159Y-30128722D01*
X24531763Y-30131178D01*
X24531765Y-30131179D01*
X24688558Y-30189490D01*
X24688560Y-30189490D01*
X24695168Y-30191948D01*
X24778995Y-30203133D01*
X24867980Y-30215007D01*
X24867984Y-30215007D01*
X24874961Y-30215938D01*
X24881972Y-30215300D01*
X24881976Y-30215300D01*
X25024459Y-30202332D01*
X25055600Y-30199498D01*
X25062302Y-30197320D01*
X25062304Y-30197320D01*
X25221409Y-30145624D01*
X25221412Y-30145623D01*
X25228108Y-30143447D01*
X25349231Y-30071243D01*
X25377860Y-30054177D01*
X25377862Y-30054176D01*
X25383912Y-30050569D01*
X25515266Y-29925482D01*
X25615643Y-29774402D01*
X25668178Y-29636105D01*
X25677555Y-29611420D01*
X25677556Y-29611418D01*
X25680055Y-29604838D01*
X25683660Y-29579186D01*
X25701445Y-29452640D01*
X27888463Y-29452640D01*
X27906163Y-29633160D01*
X27963418Y-29805273D01*
X27967065Y-29811295D01*
X27967066Y-29811297D01*
X28044677Y-29939448D01*
X28057380Y-29960424D01*
X28062269Y-29965487D01*
X28062270Y-29965488D01*
X28066267Y-29969627D01*
X28183382Y-30090902D01*
X28335159Y-30190222D01*
X28341763Y-30192678D01*
X28341765Y-30192679D01*
X28498558Y-30250990D01*
X28498560Y-30250990D01*
X28505168Y-30253448D01*
X28588995Y-30264633D01*
X28677980Y-30276507D01*
X28677984Y-30276507D01*
X28684961Y-30277438D01*
X28691972Y-30276800D01*
X28691976Y-30276800D01*
X28834459Y-30263832D01*
X28865600Y-30260998D01*
X28872302Y-30258820D01*
X28872304Y-30258820D01*
X29031409Y-30207124D01*
X29031412Y-30207123D01*
X29038108Y-30204947D01*
X29161855Y-30131179D01*
X29187860Y-30115677D01*
X29187862Y-30115676D01*
X29193912Y-30112069D01*
X29325266Y-29986982D01*
X29425643Y-29835902D01*
X29480974Y-29690243D01*
X29487555Y-29672920D01*
X29487556Y-29672918D01*
X29490055Y-29666338D01*
X29493700Y-29640401D01*
X29514748Y-29490639D01*
X29514748Y-29490636D01*
X29515299Y-29486717D01*
X29515616Y-29464000D01*
X29495397Y-29283745D01*
X29493080Y-29277091D01*
X29438064Y-29119106D01*
X29438062Y-29119103D01*
X29435745Y-29112448D01*
X29339626Y-28958624D01*
X29325941Y-28944843D01*
X29216778Y-28834915D01*
X29216774Y-28834912D01*
X29211815Y-28829918D01*
X29200697Y-28822862D01*
X29111561Y-28766295D01*
X29058666Y-28732727D01*
X29019209Y-28718677D01*
X28894425Y-28674243D01*
X28894420Y-28674242D01*
X28887790Y-28671881D01*
X28880802Y-28671048D01*
X28880799Y-28671047D01*
X28757698Y-28656368D01*
X28707680Y-28650404D01*
X28700677Y-28651140D01*
X28700676Y-28651140D01*
X28534288Y-28668628D01*
X28534286Y-28668629D01*
X28527288Y-28669364D01*
X28355579Y-28727818D01*
X28349575Y-28731512D01*
X28207095Y-28819166D01*
X28207092Y-28819168D01*
X28201088Y-28822862D01*
X28196053Y-28827793D01*
X28196050Y-28827795D01*
X28076525Y-28944843D01*
X28071493Y-28949771D01*
X27973235Y-29102238D01*
X27970826Y-29108858D01*
X27970824Y-29108861D01*
X27931037Y-29218175D01*
X27911197Y-29272685D01*
X27888463Y-29452640D01*
X25701445Y-29452640D01*
X25704748Y-29429139D01*
X25704748Y-29429136D01*
X25705299Y-29425217D01*
X25705616Y-29402500D01*
X25685397Y-29222245D01*
X25683080Y-29215591D01*
X25628064Y-29057606D01*
X25628062Y-29057603D01*
X25625745Y-29050948D01*
X25529626Y-28897124D01*
X25513056Y-28880438D01*
X25406778Y-28773415D01*
X25406774Y-28773412D01*
X25401815Y-28768418D01*
X25390697Y-28761362D01*
X25276410Y-28688834D01*
X25248666Y-28671227D01*
X25219463Y-28660828D01*
X25084425Y-28612743D01*
X25084420Y-28612742D01*
X25077790Y-28610381D01*
X25070802Y-28609548D01*
X25070799Y-28609547D01*
X24947469Y-28594841D01*
X24897680Y-28588904D01*
X24890677Y-28589640D01*
X24890676Y-28589640D01*
X24724288Y-28607128D01*
X24724286Y-28607129D01*
X24717288Y-28607864D01*
X24545579Y-28666318D01*
X24531457Y-28675006D01*
X24397095Y-28757666D01*
X24397092Y-28757668D01*
X24391088Y-28761362D01*
X24386053Y-28766293D01*
X24386050Y-28766295D01*
X24266525Y-28883343D01*
X24261493Y-28888271D01*
X24163235Y-29040738D01*
X24160826Y-29047358D01*
X24160824Y-29047361D01*
X24115198Y-29172717D01*
X24101197Y-29211185D01*
X24078463Y-29391140D01*
X9071315Y-29391140D01*
X9086055Y-29352338D01*
X9087035Y-29345366D01*
X9110748Y-29176639D01*
X9110748Y-29176636D01*
X9111299Y-29172717D01*
X9111616Y-29150000D01*
X9091397Y-28969745D01*
X9089080Y-28963091D01*
X9034064Y-28805106D01*
X9034062Y-28805103D01*
X9031745Y-28798448D01*
X9011654Y-28766295D01*
X8939359Y-28650598D01*
X8935626Y-28644624D01*
X8898391Y-28607128D01*
X8812778Y-28520915D01*
X8812774Y-28520912D01*
X8807815Y-28515918D01*
X8796697Y-28508862D01*
X8695708Y-28444773D01*
X8654666Y-28418727D01*
X8606540Y-28401590D01*
X8490425Y-28360243D01*
X8490420Y-28360242D01*
X8483790Y-28357881D01*
X8476802Y-28357048D01*
X8476799Y-28357047D01*
X8353698Y-28342368D01*
X8303680Y-28336404D01*
X8296677Y-28337140D01*
X8296676Y-28337140D01*
X8130288Y-28354628D01*
X8130286Y-28354629D01*
X8123288Y-28355364D01*
X7951579Y-28413818D01*
X7910806Y-28438902D01*
X7803095Y-28505166D01*
X7803092Y-28505168D01*
X7797088Y-28508862D01*
X7792053Y-28513793D01*
X7792050Y-28513795D01*
X7751487Y-28553518D01*
X7688822Y-28586889D01*
X7618063Y-28581083D01*
X7573923Y-28552279D01*
X7542777Y-28520915D01*
X7537815Y-28515918D01*
X7526697Y-28508862D01*
X7425708Y-28444773D01*
X7384666Y-28418727D01*
X7336540Y-28401590D01*
X7220425Y-28360243D01*
X7220420Y-28360242D01*
X7213790Y-28357881D01*
X7206802Y-28357048D01*
X7206799Y-28357047D01*
X7083698Y-28342368D01*
X7033680Y-28336404D01*
X7026677Y-28337140D01*
X7026676Y-28337140D01*
X6860288Y-28354628D01*
X6860286Y-28354629D01*
X6853288Y-28355364D01*
X6681579Y-28413818D01*
X6640806Y-28438902D01*
X6533095Y-28505166D01*
X6533092Y-28505168D01*
X6527088Y-28508862D01*
X6522053Y-28513793D01*
X6522050Y-28513795D01*
X6481487Y-28553518D01*
X6418822Y-28586889D01*
X6348063Y-28581083D01*
X6303923Y-28552279D01*
X6272777Y-28520915D01*
X6267815Y-28515918D01*
X6256697Y-28508862D01*
X6155708Y-28444773D01*
X6114666Y-28418727D01*
X6066540Y-28401590D01*
X5950425Y-28360243D01*
X5950420Y-28360242D01*
X5943790Y-28357881D01*
X5936802Y-28357048D01*
X5936799Y-28357047D01*
X5813698Y-28342368D01*
X5763680Y-28336404D01*
X5756677Y-28337140D01*
X5756676Y-28337140D01*
X5590288Y-28354628D01*
X5590286Y-28354629D01*
X5583288Y-28355364D01*
X5411579Y-28413818D01*
X5370806Y-28438902D01*
X5263095Y-28505166D01*
X5263092Y-28505168D01*
X5257088Y-28508862D01*
X5252053Y-28513793D01*
X5252050Y-28513795D01*
X5211487Y-28553518D01*
X5148822Y-28586889D01*
X5078063Y-28581083D01*
X5033923Y-28552279D01*
X5002777Y-28520915D01*
X4997815Y-28515918D01*
X4986697Y-28508862D01*
X4885708Y-28444773D01*
X4844666Y-28418727D01*
X4796540Y-28401590D01*
X4680425Y-28360243D01*
X4680420Y-28360242D01*
X4673790Y-28357881D01*
X4666802Y-28357048D01*
X4666799Y-28357047D01*
X4543698Y-28342368D01*
X4493680Y-28336404D01*
X4486677Y-28337140D01*
X4486676Y-28337140D01*
X4320288Y-28354628D01*
X4320286Y-28354629D01*
X4313288Y-28355364D01*
X4141579Y-28413818D01*
X4100806Y-28438902D01*
X3993095Y-28505166D01*
X3993092Y-28505168D01*
X3987088Y-28508862D01*
X3982053Y-28513793D01*
X3982050Y-28513795D01*
X3883420Y-28610381D01*
X3857493Y-28635771D01*
X3759235Y-28788238D01*
X3756826Y-28794858D01*
X3756824Y-28794861D01*
X3717429Y-28903098D01*
X3697197Y-28958685D01*
X3674463Y-29138640D01*
X2760342Y-29138640D01*
X2741397Y-28969745D01*
X2739080Y-28963091D01*
X2684064Y-28805106D01*
X2684062Y-28805103D01*
X2681745Y-28798448D01*
X2661654Y-28766295D01*
X2589359Y-28650598D01*
X2585626Y-28644624D01*
X2548391Y-28607128D01*
X2462778Y-28520915D01*
X2462774Y-28520912D01*
X2457815Y-28515918D01*
X2446697Y-28508862D01*
X2345708Y-28444773D01*
X2304666Y-28418727D01*
X2256540Y-28401590D01*
X2140425Y-28360243D01*
X2140420Y-28360242D01*
X2133790Y-28357881D01*
X2126802Y-28357048D01*
X2126799Y-28357047D01*
X2003698Y-28342368D01*
X1953680Y-28336404D01*
X1946677Y-28337140D01*
X1946676Y-28337140D01*
X1780288Y-28354628D01*
X1780286Y-28354629D01*
X1773288Y-28355364D01*
X1601579Y-28413818D01*
X1560806Y-28438902D01*
X1453095Y-28505166D01*
X1453092Y-28505168D01*
X1447088Y-28508862D01*
X1442053Y-28513793D01*
X1442050Y-28513795D01*
X1401487Y-28553518D01*
X1338822Y-28586889D01*
X1268063Y-28581083D01*
X1223923Y-28552279D01*
X1192777Y-28520915D01*
X1187815Y-28515918D01*
X1176697Y-28508862D01*
X1075708Y-28444773D01*
X1034666Y-28418727D01*
X986540Y-28401590D01*
X870425Y-28360243D01*
X870420Y-28360242D01*
X863790Y-28357881D01*
X856802Y-28357048D01*
X856799Y-28357047D01*
X733698Y-28342368D01*
X683680Y-28336404D01*
X676677Y-28337140D01*
X676676Y-28337140D01*
X510288Y-28354628D01*
X510286Y-28354629D01*
X503288Y-28355364D01*
X331579Y-28413818D01*
X290806Y-28438902D01*
X183095Y-28505166D01*
X183092Y-28505168D01*
X177088Y-28508862D01*
X172053Y-28513793D01*
X172050Y-28513795D01*
X73420Y-28610381D01*
X47493Y-28635771D01*
X-50765Y-28788238D01*
X-53174Y-28794858D01*
X-53176Y-28794861D01*
X-92571Y-28903098D01*
X-112803Y-28958685D01*
X-135537Y-29138640D01*
X-6858000Y-29138640D01*
X-6858000Y-28055640D01*
X19887463Y-28055640D01*
X19905163Y-28236160D01*
X19962418Y-28408273D01*
X19966065Y-28414295D01*
X19966066Y-28414297D01*
X20050381Y-28553518D01*
X20056380Y-28563424D01*
X20061269Y-28568487D01*
X20061270Y-28568488D01*
X20100921Y-28609547D01*
X20182382Y-28693902D01*
X20188278Y-28697760D01*
X20326543Y-28788238D01*
X20334159Y-28793222D01*
X20340763Y-28795678D01*
X20340765Y-28795679D01*
X20497558Y-28853990D01*
X20497560Y-28853990D01*
X20504168Y-28856448D01*
X20587995Y-28867633D01*
X20676980Y-28879507D01*
X20676984Y-28879507D01*
X20683961Y-28880438D01*
X20690972Y-28879800D01*
X20690976Y-28879800D01*
X20833459Y-28866832D01*
X20864600Y-28863998D01*
X20871302Y-28861820D01*
X20871304Y-28861820D01*
X21030409Y-28810124D01*
X21030412Y-28810123D01*
X21037108Y-28807947D01*
X21156951Y-28736506D01*
X21186860Y-28718677D01*
X21186862Y-28718676D01*
X21192912Y-28715069D01*
X21324266Y-28589982D01*
X21424643Y-28438902D01*
X21489055Y-28269338D01*
X21490035Y-28262366D01*
X21513748Y-28093639D01*
X21513748Y-28093636D01*
X21514299Y-28089717D01*
X21514616Y-28067000D01*
X21494397Y-27886745D01*
X21492080Y-27880091D01*
X21437064Y-27722106D01*
X21437062Y-27722103D01*
X21434745Y-27715448D01*
X21345153Y-27572069D01*
X21342359Y-27567598D01*
X21338626Y-27561624D01*
X21290022Y-27512679D01*
X21221112Y-27443287D01*
X21187305Y-27380856D01*
X21192617Y-27310059D01*
X21235361Y-27253372D01*
X21301968Y-27228793D01*
X21312312Y-27228551D01*
X21318961Y-27229438D01*
X21325972Y-27228800D01*
X21325977Y-27228800D01*
X21472106Y-27215500D01*
X21499600Y-27212998D01*
X21506302Y-27210820D01*
X21506304Y-27210820D01*
X21665409Y-27159124D01*
X21665412Y-27159123D01*
X21672108Y-27156947D01*
X21768513Y-27099478D01*
X21821860Y-27067677D01*
X21821862Y-27067676D01*
X21827912Y-27064069D01*
X21959266Y-26938982D01*
X22059643Y-26787902D01*
X22065441Y-26772640D01*
X26872463Y-26772640D01*
X26890163Y-26953160D01*
X26947418Y-27125273D01*
X26951065Y-27131295D01*
X26951066Y-27131297D01*
X27036499Y-27272364D01*
X27041380Y-27280424D01*
X27046269Y-27285487D01*
X27046270Y-27285488D01*
X27094786Y-27335727D01*
X27167382Y-27410902D01*
X27319159Y-27510222D01*
X27325763Y-27512678D01*
X27325765Y-27512679D01*
X27482558Y-27570990D01*
X27482560Y-27570990D01*
X27489168Y-27573448D01*
X27572995Y-27584633D01*
X27661980Y-27596507D01*
X27661984Y-27596507D01*
X27668961Y-27597438D01*
X27675972Y-27596800D01*
X27675976Y-27596800D01*
X27818459Y-27583832D01*
X27849600Y-27580998D01*
X27856302Y-27578820D01*
X27856304Y-27578820D01*
X28015409Y-27527124D01*
X28015412Y-27527123D01*
X28022108Y-27524947D01*
X28144744Y-27451841D01*
X28171860Y-27435677D01*
X28171862Y-27435676D01*
X28177912Y-27432069D01*
X28309266Y-27306982D01*
X28409643Y-27155902D01*
X28474055Y-26986338D01*
X28475035Y-26979366D01*
X28498748Y-26810639D01*
X28498748Y-26810636D01*
X28499299Y-26806717D01*
X28499616Y-26784000D01*
X28479397Y-26603745D01*
X28477080Y-26597091D01*
X28422064Y-26439106D01*
X28422062Y-26439103D01*
X28419745Y-26432448D01*
X28409275Y-26415693D01*
X28327359Y-26284598D01*
X28323626Y-26278624D01*
X28287996Y-26242744D01*
X28200778Y-26154915D01*
X28200774Y-26154912D01*
X28195815Y-26149918D01*
X28163561Y-26129449D01*
X28116764Y-26076060D01*
X28106259Y-26005845D01*
X28135383Y-25941097D01*
X28166559Y-25914837D01*
X28177912Y-25908069D01*
X28309266Y-25782982D01*
X28409643Y-25631902D01*
X28474055Y-25462338D01*
X28475035Y-25455366D01*
X28498748Y-25286639D01*
X28498748Y-25286636D01*
X28499299Y-25282717D01*
X28499616Y-25260000D01*
X28479397Y-25079745D01*
X28475832Y-25069507D01*
X28422064Y-24915106D01*
X28422062Y-24915103D01*
X28419745Y-24908448D01*
X28397999Y-24873646D01*
X28327359Y-24760598D01*
X28323626Y-24754624D01*
X28287996Y-24718744D01*
X28200778Y-24630915D01*
X28200774Y-24630912D01*
X28195815Y-24625918D01*
X28184697Y-24618862D01*
X28097362Y-24563438D01*
X28042666Y-24528727D01*
X28013463Y-24518328D01*
X27878425Y-24470243D01*
X27878420Y-24470242D01*
X27871790Y-24467881D01*
X27864802Y-24467048D01*
X27864799Y-24467047D01*
X27741678Y-24452366D01*
X27691680Y-24446404D01*
X27684677Y-24447140D01*
X27684676Y-24447140D01*
X27518288Y-24464628D01*
X27518286Y-24464629D01*
X27511288Y-24465364D01*
X27339579Y-24523818D01*
X27301901Y-24546998D01*
X27191095Y-24615166D01*
X27191092Y-24615168D01*
X27185088Y-24618862D01*
X27180053Y-24623793D01*
X27180050Y-24623795D01*
X27168840Y-24634773D01*
X27055493Y-24745771D01*
X26957235Y-24898238D01*
X26954826Y-24904858D01*
X26954824Y-24904861D01*
X26902951Y-25047380D01*
X26895197Y-25068685D01*
X26872463Y-25248640D01*
X26890163Y-25429160D01*
X26947418Y-25601273D01*
X26951065Y-25607295D01*
X26951066Y-25607297D01*
X27000248Y-25688506D01*
X27041380Y-25756424D01*
X27167382Y-25886902D01*
X27173278Y-25890760D01*
X27173279Y-25890761D01*
X27211437Y-25915731D01*
X27257486Y-25969769D01*
X27267009Y-26040123D01*
X27236984Y-26104459D01*
X27208468Y-26128478D01*
X27185088Y-26142862D01*
X27180053Y-26147793D01*
X27180050Y-26147795D01*
X27108292Y-26218066D01*
X27055493Y-26269771D01*
X26957235Y-26422238D01*
X26954826Y-26428858D01*
X26954824Y-26428861D01*
X26908436Y-26556312D01*
X26895197Y-26592685D01*
X26872463Y-26772640D01*
X22065441Y-26772640D01*
X22124055Y-26618338D01*
X22127660Y-26592685D01*
X22148748Y-26442639D01*
X22148748Y-26442636D01*
X22149299Y-26438717D01*
X22149616Y-26416000D01*
X22129397Y-26235745D01*
X22127080Y-26229091D01*
X22072064Y-26071106D01*
X22072062Y-26071103D01*
X22069745Y-26064448D01*
X22010584Y-25969769D01*
X21977359Y-25916598D01*
X21973626Y-25910624D01*
X21950069Y-25886902D01*
X21850778Y-25786915D01*
X21850774Y-25786912D01*
X21845815Y-25781918D01*
X21838241Y-25777111D01*
X21729433Y-25708060D01*
X21692666Y-25684727D01*
X21606824Y-25654160D01*
X21528425Y-25626243D01*
X21528420Y-25626242D01*
X21521790Y-25623881D01*
X21514802Y-25623048D01*
X21514799Y-25623047D01*
X21391698Y-25608368D01*
X21341680Y-25602404D01*
X21334677Y-25603140D01*
X21334676Y-25603140D01*
X21168288Y-25620628D01*
X21168286Y-25620629D01*
X21161288Y-25621364D01*
X20989579Y-25679818D01*
X20983575Y-25683512D01*
X20841095Y-25771166D01*
X20841092Y-25771168D01*
X20835088Y-25774862D01*
X20830053Y-25779793D01*
X20830050Y-25779795D01*
X20716736Y-25890761D01*
X20705493Y-25901771D01*
X20607235Y-26054238D01*
X20604826Y-26060858D01*
X20604824Y-26060861D01*
X20557271Y-26191512D01*
X20545197Y-26224685D01*
X20522463Y-26404640D01*
X20540163Y-26585160D01*
X20597418Y-26757273D01*
X20601065Y-26763295D01*
X20601066Y-26763297D01*
X20611978Y-26781314D01*
X20691380Y-26912424D01*
X20696269Y-26917487D01*
X20696270Y-26917488D01*
X20815717Y-27041178D01*
X20848649Y-27104074D01*
X20842349Y-27174791D01*
X20798817Y-27230875D01*
X20731874Y-27254522D01*
X20720721Y-27254161D01*
X20720720Y-27254287D01*
X20713672Y-27254238D01*
X20706680Y-27253404D01*
X20699677Y-27254140D01*
X20699676Y-27254140D01*
X20533288Y-27271628D01*
X20533286Y-27271629D01*
X20526288Y-27272364D01*
X20354579Y-27330818D01*
X20348575Y-27334512D01*
X20206095Y-27422166D01*
X20206092Y-27422168D01*
X20200088Y-27425862D01*
X20195053Y-27430793D01*
X20195050Y-27430795D01*
X20077577Y-27545834D01*
X20070493Y-27552771D01*
X19972235Y-27705238D01*
X19969826Y-27711858D01*
X19969824Y-27711861D01*
X19960854Y-27736507D01*
X19910197Y-27875685D01*
X19887463Y-28055640D01*
X-6858000Y-28055640D01*
X-6858000Y-26404640D01*
X12775463Y-26404640D01*
X12793163Y-26585160D01*
X12850418Y-26757273D01*
X12854065Y-26763295D01*
X12854066Y-26763297D01*
X12864978Y-26781314D01*
X12944380Y-26912424D01*
X12949269Y-26917487D01*
X12949270Y-26917488D01*
X12990173Y-26959844D01*
X13070382Y-27042902D01*
X13146271Y-27092562D01*
X13197886Y-27126338D01*
X13222159Y-27142222D01*
X13228763Y-27144678D01*
X13228765Y-27144679D01*
X13385558Y-27202990D01*
X13385560Y-27202990D01*
X13392168Y-27205448D01*
X13475995Y-27216633D01*
X13564980Y-27228507D01*
X13564984Y-27228507D01*
X13571961Y-27229438D01*
X13578972Y-27228800D01*
X13578976Y-27228800D01*
X13721459Y-27215832D01*
X13752600Y-27212998D01*
X13759302Y-27210820D01*
X13759304Y-27210820D01*
X13918409Y-27159124D01*
X13918412Y-27159123D01*
X13925108Y-27156947D01*
X14021513Y-27099478D01*
X14074860Y-27067677D01*
X14074862Y-27067676D01*
X14080912Y-27064069D01*
X14212266Y-26938982D01*
X14229768Y-26912640D01*
X15061463Y-26912640D01*
X15079163Y-27093160D01*
X15136418Y-27265273D01*
X15140065Y-27271295D01*
X15140066Y-27271297D01*
X15174738Y-27328547D01*
X15230380Y-27420424D01*
X15235269Y-27425487D01*
X15235270Y-27425488D01*
X15256027Y-27446982D01*
X15356382Y-27550902D01*
X15508159Y-27650222D01*
X15514763Y-27652678D01*
X15514765Y-27652679D01*
X15671558Y-27710990D01*
X15671560Y-27710990D01*
X15678168Y-27713448D01*
X15761995Y-27724633D01*
X15850980Y-27736507D01*
X15850984Y-27736507D01*
X15857961Y-27737438D01*
X15864972Y-27736800D01*
X15864976Y-27736800D01*
X16007459Y-27723832D01*
X16038600Y-27720998D01*
X16045302Y-27718820D01*
X16045304Y-27718820D01*
X16204409Y-27667124D01*
X16204412Y-27667123D01*
X16211108Y-27664947D01*
X16324355Y-27597438D01*
X16360860Y-27575677D01*
X16360862Y-27575676D01*
X16366912Y-27572069D01*
X16498266Y-27446982D01*
X16598643Y-27295902D01*
X16663055Y-27126338D01*
X16666184Y-27104074D01*
X16687748Y-26950639D01*
X16687748Y-26950636D01*
X16688299Y-26946717D01*
X16688616Y-26924000D01*
X16668397Y-26743745D01*
X16666080Y-26737091D01*
X16611064Y-26579106D01*
X16611062Y-26579103D01*
X16608745Y-26572448D01*
X16527632Y-26442639D01*
X16516359Y-26424598D01*
X16512626Y-26418624D01*
X16506110Y-26412062D01*
X16389778Y-26294915D01*
X16389774Y-26294912D01*
X16384815Y-26289918D01*
X16373697Y-26282862D01*
X16293038Y-26231675D01*
X16231666Y-26192727D01*
X16202463Y-26182328D01*
X16067425Y-26134243D01*
X16067420Y-26134242D01*
X16060790Y-26131881D01*
X16053802Y-26131048D01*
X16053799Y-26131047D01*
X15930698Y-26116368D01*
X15880680Y-26110404D01*
X15873677Y-26111140D01*
X15873676Y-26111140D01*
X15707288Y-26128628D01*
X15707286Y-26128629D01*
X15700288Y-26129364D01*
X15528579Y-26187818D01*
X15522575Y-26191512D01*
X15380095Y-26279166D01*
X15380092Y-26279168D01*
X15374088Y-26282862D01*
X15369053Y-26287793D01*
X15369050Y-26287795D01*
X15249525Y-26404843D01*
X15244493Y-26409771D01*
X15146235Y-26562238D01*
X15143826Y-26568858D01*
X15143824Y-26568861D01*
X15125816Y-26618338D01*
X15084197Y-26732685D01*
X15061463Y-26912640D01*
X14229768Y-26912640D01*
X14312643Y-26787902D01*
X14377055Y-26618338D01*
X14380660Y-26592685D01*
X14401748Y-26442639D01*
X14401748Y-26442636D01*
X14402299Y-26438717D01*
X14402616Y-26416000D01*
X14382397Y-26235745D01*
X14380080Y-26229091D01*
X14325064Y-26071106D01*
X14325062Y-26071103D01*
X14322745Y-26064448D01*
X14263584Y-25969769D01*
X14230359Y-25916598D01*
X14226626Y-25910624D01*
X14203069Y-25886902D01*
X14103778Y-25786915D01*
X14103774Y-25786912D01*
X14098815Y-25781918D01*
X14066561Y-25761449D01*
X14019764Y-25708060D01*
X14009259Y-25637845D01*
X14038383Y-25573097D01*
X14069559Y-25546837D01*
X14080912Y-25540069D01*
X14212266Y-25414982D01*
X14312643Y-25263902D01*
X14377055Y-25094338D01*
X14380660Y-25068685D01*
X14401748Y-24918639D01*
X14401748Y-24918636D01*
X14402299Y-24914717D01*
X14402470Y-24902469D01*
X14402561Y-24895962D01*
X14402561Y-24895957D01*
X14402616Y-24892000D01*
X14382397Y-24711745D01*
X14380080Y-24705091D01*
X14325064Y-24547106D01*
X14325062Y-24547103D01*
X14322745Y-24540448D01*
X14312354Y-24523818D01*
X14230359Y-24392598D01*
X14226626Y-24386624D01*
X14212941Y-24372843D01*
X14103778Y-24262915D01*
X14103774Y-24262912D01*
X14098815Y-24257918D01*
X14091164Y-24253062D01*
X14079468Y-24245640D01*
X15061463Y-24245640D01*
X15079163Y-24426160D01*
X15136418Y-24598273D01*
X15140065Y-24604295D01*
X15140066Y-24604297D01*
X15222761Y-24740843D01*
X15230380Y-24753424D01*
X15356382Y-24883902D01*
X15508159Y-24983222D01*
X15514763Y-24985678D01*
X15514765Y-24985679D01*
X15671558Y-25043990D01*
X15671560Y-25043990D01*
X15678168Y-25046448D01*
X15761995Y-25057633D01*
X15850980Y-25069507D01*
X15850984Y-25069507D01*
X15857961Y-25070438D01*
X15864972Y-25069800D01*
X15864976Y-25069800D01*
X16007459Y-25056832D01*
X16038600Y-25053998D01*
X16045302Y-25051820D01*
X16045304Y-25051820D01*
X16204409Y-25000124D01*
X16204412Y-25000123D01*
X16211108Y-24997947D01*
X16350075Y-24915106D01*
X16360860Y-24908677D01*
X16360862Y-24908676D01*
X16366912Y-24905069D01*
X16498266Y-24779982D01*
X16598643Y-24628902D01*
X16654236Y-24482555D01*
X16660555Y-24465920D01*
X16660556Y-24465918D01*
X16663055Y-24459338D01*
X16664873Y-24446404D01*
X16687748Y-24283639D01*
X16687748Y-24283636D01*
X16688299Y-24279717D01*
X16688452Y-24268738D01*
X16688561Y-24260962D01*
X16688561Y-24260957D01*
X16688616Y-24257000D01*
X16668397Y-24076745D01*
X16666080Y-24070091D01*
X16611064Y-23912106D01*
X16611062Y-23912103D01*
X16608745Y-23905448D01*
X16512626Y-23751624D01*
X16501979Y-23740902D01*
X16389778Y-23627915D01*
X16389774Y-23627912D01*
X16384815Y-23622918D01*
X16373697Y-23615862D01*
X16301027Y-23569745D01*
X16231666Y-23525727D01*
X16202463Y-23515328D01*
X16067425Y-23467243D01*
X16067420Y-23467242D01*
X16060790Y-23464881D01*
X16053802Y-23464048D01*
X16053799Y-23464047D01*
X15924171Y-23448590D01*
X15880680Y-23443404D01*
X15873677Y-23444140D01*
X15873676Y-23444140D01*
X15707288Y-23461628D01*
X15707286Y-23461629D01*
X15700288Y-23462364D01*
X15528579Y-23520818D01*
X15514457Y-23529506D01*
X15380095Y-23612166D01*
X15380092Y-23612168D01*
X15374088Y-23615862D01*
X15369053Y-23620793D01*
X15369050Y-23620795D01*
X15251577Y-23735834D01*
X15244493Y-23742771D01*
X15146235Y-23895238D01*
X15143826Y-23901858D01*
X15143824Y-23901861D01*
X15137528Y-23919160D01*
X15084197Y-24065685D01*
X15061463Y-24245640D01*
X14079468Y-24245640D01*
X14039538Y-24220300D01*
X13945666Y-24160727D01*
X13916463Y-24150328D01*
X13781425Y-24102243D01*
X13781420Y-24102242D01*
X13774790Y-24099881D01*
X13767802Y-24099048D01*
X13767799Y-24099047D01*
X13639462Y-24083744D01*
X13594680Y-24078404D01*
X13587677Y-24079140D01*
X13587676Y-24079140D01*
X13421288Y-24096628D01*
X13421286Y-24096629D01*
X13414288Y-24097364D01*
X13242579Y-24155818D01*
X13236575Y-24159512D01*
X13094095Y-24247166D01*
X13094092Y-24247168D01*
X13088088Y-24250862D01*
X13083053Y-24255793D01*
X13083050Y-24255795D01*
X13062666Y-24275757D01*
X12958493Y-24377771D01*
X12860235Y-24530238D01*
X12857826Y-24536858D01*
X12857824Y-24536861D01*
X12827978Y-24618862D01*
X12798197Y-24700685D01*
X12775463Y-24880640D01*
X12793163Y-25061160D01*
X12850418Y-25233273D01*
X12854065Y-25239295D01*
X12854066Y-25239297D01*
X12864978Y-25257314D01*
X12944380Y-25388424D01*
X12949269Y-25393487D01*
X12949270Y-25393488D01*
X12990173Y-25435844D01*
X13070382Y-25518902D01*
X13076278Y-25522760D01*
X13076279Y-25522761D01*
X13114437Y-25547731D01*
X13160486Y-25601769D01*
X13170009Y-25672123D01*
X13139984Y-25736459D01*
X13111468Y-25760478D01*
X13088088Y-25774862D01*
X13083053Y-25779793D01*
X13083050Y-25779795D01*
X12969736Y-25890761D01*
X12958493Y-25901771D01*
X12860235Y-26054238D01*
X12857826Y-26060858D01*
X12857824Y-26060861D01*
X12810271Y-26191512D01*
X12798197Y-26224685D01*
X12775463Y-26404640D01*
X-6858000Y-26404640D01*
X-6858000Y-25400000D01*
X-2032000Y-25400000D01*
X5715000Y-25400000D01*
X5715000Y-22467640D01*
X12775463Y-22467640D01*
X12793163Y-22648160D01*
X12850418Y-22820273D01*
X12854065Y-22826295D01*
X12854066Y-22826297D01*
X12936735Y-22962800D01*
X12944380Y-22975424D01*
X13070382Y-23105902D01*
X13222159Y-23205222D01*
X13228763Y-23207678D01*
X13228765Y-23207679D01*
X13385558Y-23265990D01*
X13385560Y-23265990D01*
X13392168Y-23268448D01*
X13475995Y-23279633D01*
X13564980Y-23291507D01*
X13564984Y-23291507D01*
X13571961Y-23292438D01*
X13578972Y-23291800D01*
X13578976Y-23291800D01*
X13721459Y-23278832D01*
X13752600Y-23275998D01*
X13759302Y-23273820D01*
X13759304Y-23273820D01*
X13918409Y-23222124D01*
X13918412Y-23222123D01*
X13925108Y-23219947D01*
X14058148Y-23140639D01*
X14074860Y-23130677D01*
X14074862Y-23130676D01*
X14080912Y-23127069D01*
X14212266Y-23001982D01*
X14312643Y-22850902D01*
X14370253Y-22699245D01*
X14374555Y-22687920D01*
X14374556Y-22687918D01*
X14377055Y-22681338D01*
X14378035Y-22674366D01*
X14401748Y-22505639D01*
X14401748Y-22505636D01*
X14402299Y-22501717D01*
X14402452Y-22490738D01*
X14402561Y-22482962D01*
X14402561Y-22482957D01*
X14402616Y-22479000D01*
X14400954Y-22464183D01*
X14413238Y-22394257D01*
X14461377Y-22342073D01*
X14530087Y-22324199D01*
X14597553Y-22346309D01*
X14616805Y-22362610D01*
X14721382Y-22470902D01*
X14742796Y-22484915D01*
X14808558Y-22527948D01*
X14873159Y-22570222D01*
X14879763Y-22572678D01*
X14879765Y-22572679D01*
X15036558Y-22630990D01*
X15036560Y-22630990D01*
X15043168Y-22633448D01*
X15126995Y-22644633D01*
X15215980Y-22656507D01*
X15215984Y-22656507D01*
X15222961Y-22657438D01*
X15229972Y-22656800D01*
X15229976Y-22656800D01*
X15372459Y-22643832D01*
X15403600Y-22640998D01*
X15410302Y-22638820D01*
X15410304Y-22638820D01*
X15569409Y-22587124D01*
X15569412Y-22587123D01*
X15576108Y-22584947D01*
X15709148Y-22505639D01*
X15725860Y-22495677D01*
X15725862Y-22495676D01*
X15731912Y-22492069D01*
X15863266Y-22366982D01*
X15963643Y-22215902D01*
X16019135Y-22069820D01*
X16062023Y-22013243D01*
X16128691Y-21988834D01*
X16172489Y-21995245D01*
X16172728Y-21994288D01*
X16179567Y-21995993D01*
X16186168Y-21998448D01*
X16193149Y-21999379D01*
X16193151Y-21999380D01*
X16358980Y-22021507D01*
X16358984Y-22021507D01*
X16365961Y-22022438D01*
X16372972Y-22021800D01*
X16372976Y-22021800D01*
X16515459Y-22008832D01*
X16546600Y-22005998D01*
X16553302Y-22003820D01*
X16553304Y-22003820D01*
X16712409Y-21952124D01*
X16712412Y-21952123D01*
X16719108Y-21949947D01*
X16874912Y-21857069D01*
X16936088Y-21798812D01*
X16999211Y-21766320D01*
X17069882Y-21773113D01*
X17125661Y-21817035D01*
X17130750Y-21824779D01*
X17135380Y-21832424D01*
X17159180Y-21857069D01*
X17173822Y-21872232D01*
X17206754Y-21935129D01*
X17200454Y-22005845D01*
X17156922Y-22061930D01*
X17110242Y-22082820D01*
X17104295Y-22084127D01*
X17097288Y-22084864D01*
X16925579Y-22143318D01*
X16884229Y-22168757D01*
X16777095Y-22234666D01*
X16777092Y-22234668D01*
X16771088Y-22238362D01*
X16766053Y-22243293D01*
X16766050Y-22243295D01*
X16647978Y-22358920D01*
X16641493Y-22365271D01*
X16543235Y-22517738D01*
X16540826Y-22524358D01*
X16540824Y-22524361D01*
X16499164Y-22638820D01*
X16481197Y-22688185D01*
X16458463Y-22868140D01*
X16476163Y-23048660D01*
X16533418Y-23220773D01*
X16537065Y-23226795D01*
X16537066Y-23226797D01*
X16591294Y-23316338D01*
X16627380Y-23375924D01*
X16632269Y-23380987D01*
X16632270Y-23380988D01*
X16697553Y-23448590D01*
X16753382Y-23506402D01*
X16905159Y-23605722D01*
X16911763Y-23608178D01*
X16911765Y-23608179D01*
X17068558Y-23666490D01*
X17068560Y-23666490D01*
X17075168Y-23668948D01*
X17158995Y-23680133D01*
X17247980Y-23692007D01*
X17247984Y-23692007D01*
X17254961Y-23692938D01*
X17261972Y-23692300D01*
X17261976Y-23692300D01*
X17404459Y-23679332D01*
X17435600Y-23676498D01*
X17442302Y-23674320D01*
X17442304Y-23674320D01*
X17601409Y-23622624D01*
X17601412Y-23622623D01*
X17608108Y-23620447D01*
X17763912Y-23527569D01*
X17895266Y-23402482D01*
X17995643Y-23251402D01*
X18039208Y-23136717D01*
X18052153Y-23102640D01*
X18744463Y-23102640D01*
X18762163Y-23283160D01*
X18819418Y-23455273D01*
X18823065Y-23461295D01*
X18823066Y-23461297D01*
X18865387Y-23531177D01*
X18913380Y-23610424D01*
X19039382Y-23740902D01*
X19191159Y-23840222D01*
X19197763Y-23842678D01*
X19197765Y-23842679D01*
X19354558Y-23900990D01*
X19354560Y-23900990D01*
X19361168Y-23903448D01*
X19444995Y-23914633D01*
X19533980Y-23926507D01*
X19533984Y-23926507D01*
X19540961Y-23927438D01*
X19547972Y-23926800D01*
X19547976Y-23926800D01*
X19690459Y-23913832D01*
X19721600Y-23910998D01*
X19728302Y-23908820D01*
X19728304Y-23908820D01*
X19887409Y-23857124D01*
X19887412Y-23857123D01*
X19894108Y-23854947D01*
X20049912Y-23762069D01*
X20181266Y-23636982D01*
X20281643Y-23485902D01*
X20346055Y-23316338D01*
X20349545Y-23291507D01*
X20370748Y-23140639D01*
X20370748Y-23140636D01*
X20371299Y-23136717D01*
X20371452Y-23125738D01*
X20371561Y-23117962D01*
X20371561Y-23117957D01*
X20371616Y-23114000D01*
X20351397Y-22933745D01*
X20349080Y-22927091D01*
X20294064Y-22769106D01*
X20294062Y-22769103D01*
X20291745Y-22762448D01*
X20195626Y-22608624D01*
X20153660Y-22566364D01*
X20072778Y-22484915D01*
X20072774Y-22484912D01*
X20067815Y-22479918D01*
X20060164Y-22475062D01*
X19932834Y-22394257D01*
X19914666Y-22382727D01*
X19882275Y-22371193D01*
X19750425Y-22324243D01*
X19750420Y-22324242D01*
X19743790Y-22321881D01*
X19736802Y-22321048D01*
X19736799Y-22321047D01*
X19613698Y-22306368D01*
X19563680Y-22300404D01*
X19556677Y-22301140D01*
X19556676Y-22301140D01*
X19390288Y-22318628D01*
X19390286Y-22318629D01*
X19383288Y-22319364D01*
X19211579Y-22377818D01*
X19205575Y-22381512D01*
X19063095Y-22469166D01*
X19063092Y-22469168D01*
X19057088Y-22472862D01*
X19052053Y-22477793D01*
X19052050Y-22477795D01*
X18932525Y-22594843D01*
X18927493Y-22599771D01*
X18829235Y-22752238D01*
X18826826Y-22758858D01*
X18826824Y-22758861D01*
X18777956Y-22893124D01*
X18767197Y-22922685D01*
X18744463Y-23102640D01*
X18052153Y-23102640D01*
X18057555Y-23088420D01*
X18057556Y-23088418D01*
X18060055Y-23081838D01*
X18061337Y-23072717D01*
X18084748Y-22906139D01*
X18084748Y-22906136D01*
X18085299Y-22902217D01*
X18085616Y-22879500D01*
X18065397Y-22699245D01*
X18062621Y-22691273D01*
X18008064Y-22534606D01*
X18008062Y-22534603D01*
X18005745Y-22527948D01*
X17999365Y-22517738D01*
X17913359Y-22380098D01*
X17909626Y-22374124D01*
X17880017Y-22344307D01*
X17846209Y-22281877D01*
X17851520Y-22211080D01*
X17894265Y-22154392D01*
X17929464Y-22138640D01*
X20546463Y-22138640D01*
X20564163Y-22319160D01*
X20621418Y-22491273D01*
X20625065Y-22497295D01*
X20625066Y-22497297D01*
X20707522Y-22633448D01*
X20715380Y-22646424D01*
X20720269Y-22651487D01*
X20720270Y-22651488D01*
X20764473Y-22697261D01*
X20841382Y-22776902D01*
X20847278Y-22780760D01*
X20982505Y-22869250D01*
X20993159Y-22876222D01*
X20999763Y-22878678D01*
X20999765Y-22878679D01*
X21156558Y-22936990D01*
X21156560Y-22936990D01*
X21163168Y-22939448D01*
X21246995Y-22950633D01*
X21335980Y-22962507D01*
X21335984Y-22962507D01*
X21342961Y-22963438D01*
X21349972Y-22962800D01*
X21349976Y-22962800D01*
X21492459Y-22949832D01*
X21523600Y-22946998D01*
X21530302Y-22944820D01*
X21530304Y-22944820D01*
X21696108Y-22890947D01*
X21696743Y-22892901D01*
X21757110Y-22884382D01*
X21782768Y-22890952D01*
X21913168Y-22939448D01*
X21996995Y-22950633D01*
X22085980Y-22962507D01*
X22085984Y-22962507D01*
X22092961Y-22963438D01*
X22099972Y-22962800D01*
X22099976Y-22962800D01*
X22242459Y-22949832D01*
X22273600Y-22946998D01*
X22280302Y-22944820D01*
X22280304Y-22944820D01*
X22446108Y-22890947D01*
X22446743Y-22892901D01*
X22507110Y-22884382D01*
X22532768Y-22890952D01*
X22663168Y-22939448D01*
X22746995Y-22950633D01*
X22835980Y-22962507D01*
X22835984Y-22962507D01*
X22842961Y-22963438D01*
X22849972Y-22962800D01*
X22849976Y-22962800D01*
X22992459Y-22949832D01*
X23023600Y-22946998D01*
X23030302Y-22944820D01*
X23030304Y-22944820D01*
X23196108Y-22890947D01*
X23196743Y-22892901D01*
X23257110Y-22884382D01*
X23282768Y-22890952D01*
X23413168Y-22939448D01*
X23496995Y-22950633D01*
X23585980Y-22962507D01*
X23585984Y-22962507D01*
X23592961Y-22963438D01*
X23599972Y-22962800D01*
X23599976Y-22962800D01*
X23742459Y-22949832D01*
X23773600Y-22946998D01*
X23780302Y-22944820D01*
X23780304Y-22944820D01*
X23946108Y-22890947D01*
X23946743Y-22892901D01*
X24007110Y-22884382D01*
X24032768Y-22890952D01*
X24163168Y-22939448D01*
X24246995Y-22950633D01*
X24335980Y-22962507D01*
X24335984Y-22962507D01*
X24342961Y-22963438D01*
X24349972Y-22962800D01*
X24349976Y-22962800D01*
X24492459Y-22949832D01*
X24523600Y-22946998D01*
X24530302Y-22944820D01*
X24530304Y-22944820D01*
X24689409Y-22893124D01*
X24689412Y-22893123D01*
X24696108Y-22890947D01*
X24814665Y-22820273D01*
X24845860Y-22801677D01*
X24845862Y-22801676D01*
X24851912Y-22798069D01*
X24983266Y-22672982D01*
X25083643Y-22521902D01*
X25140314Y-22372717D01*
X25145555Y-22358920D01*
X25145556Y-22358918D01*
X25148055Y-22352338D01*
X25149498Y-22342073D01*
X25172748Y-22176639D01*
X25172748Y-22176636D01*
X25173299Y-22172717D01*
X25173616Y-22150000D01*
X25153397Y-21969745D01*
X25151014Y-21962902D01*
X25099173Y-21814034D01*
X25095659Y-21743124D01*
X25100376Y-21727853D01*
X25145555Y-21608920D01*
X25145556Y-21608918D01*
X25148055Y-21602338D01*
X25157536Y-21534878D01*
X25172748Y-21426639D01*
X25172748Y-21426636D01*
X25173299Y-21422717D01*
X25173616Y-21400000D01*
X25153397Y-21219745D01*
X25151080Y-21213091D01*
X25099173Y-21064034D01*
X25095659Y-20993124D01*
X25100376Y-20977853D01*
X25145555Y-20858920D01*
X25145556Y-20858918D01*
X25148055Y-20852338D01*
X25165690Y-20726861D01*
X25172748Y-20676639D01*
X25172748Y-20676636D01*
X25173299Y-20672717D01*
X25173616Y-20650000D01*
X25153397Y-20469745D01*
X25149684Y-20459082D01*
X25099173Y-20314034D01*
X25095659Y-20243124D01*
X25100376Y-20227853D01*
X25145555Y-20108920D01*
X25145556Y-20108918D01*
X25148055Y-20102338D01*
X25152718Y-20069160D01*
X25172748Y-19926639D01*
X25172748Y-19926636D01*
X25173299Y-19922717D01*
X25173616Y-19900000D01*
X25153397Y-19719745D01*
X25150574Y-19711639D01*
X25099173Y-19564034D01*
X25095659Y-19493124D01*
X25100376Y-19477853D01*
X25145555Y-19358920D01*
X25145556Y-19358918D01*
X25148055Y-19352338D01*
X25167757Y-19212151D01*
X25172748Y-19176639D01*
X25172748Y-19176636D01*
X25173299Y-19172717D01*
X25173616Y-19150000D01*
X25153397Y-18969745D01*
X25151080Y-18963091D01*
X25096064Y-18805106D01*
X25096062Y-18805103D01*
X25093745Y-18798448D01*
X24997626Y-18644624D01*
X24919258Y-18565707D01*
X24874778Y-18520915D01*
X24874774Y-18520912D01*
X24869815Y-18515918D01*
X24858697Y-18508862D01*
X24735830Y-18430889D01*
X24716666Y-18418727D01*
X24678588Y-18405168D01*
X24552425Y-18360243D01*
X24552420Y-18360242D01*
X24545790Y-18357881D01*
X24538802Y-18357048D01*
X24538799Y-18357047D01*
X24413112Y-18342060D01*
X24365680Y-18336404D01*
X24358677Y-18337140D01*
X24358676Y-18337140D01*
X24192288Y-18354628D01*
X24192286Y-18354629D01*
X24185288Y-18355364D01*
X24070933Y-18394293D01*
X24024083Y-18410242D01*
X23953151Y-18413260D01*
X23941211Y-18409663D01*
X23802425Y-18360243D01*
X23802420Y-18360242D01*
X23795790Y-18357881D01*
X23788802Y-18357048D01*
X23788799Y-18357047D01*
X23663112Y-18342060D01*
X23615680Y-18336404D01*
X23608677Y-18337140D01*
X23608676Y-18337140D01*
X23442288Y-18354628D01*
X23442286Y-18354629D01*
X23435288Y-18355364D01*
X23320933Y-18394293D01*
X23274083Y-18410242D01*
X23203151Y-18413260D01*
X23191211Y-18409663D01*
X23052425Y-18360243D01*
X23052420Y-18360242D01*
X23045790Y-18357881D01*
X23038802Y-18357048D01*
X23038799Y-18357047D01*
X22913112Y-18342060D01*
X22865680Y-18336404D01*
X22858677Y-18337140D01*
X22858676Y-18337140D01*
X22692288Y-18354628D01*
X22692286Y-18354629D01*
X22685288Y-18355364D01*
X22570933Y-18394293D01*
X22524083Y-18410242D01*
X22453151Y-18413260D01*
X22441211Y-18409663D01*
X22302425Y-18360243D01*
X22302420Y-18360242D01*
X22295790Y-18357881D01*
X22288802Y-18357048D01*
X22288799Y-18357047D01*
X22163112Y-18342060D01*
X22115680Y-18336404D01*
X22108677Y-18337140D01*
X22108676Y-18337140D01*
X21942288Y-18354628D01*
X21942286Y-18354629D01*
X21935288Y-18355364D01*
X21820933Y-18394293D01*
X21774083Y-18410242D01*
X21703151Y-18413260D01*
X21691211Y-18409663D01*
X21552425Y-18360243D01*
X21552420Y-18360242D01*
X21545790Y-18357881D01*
X21538802Y-18357048D01*
X21538799Y-18357047D01*
X21413112Y-18342060D01*
X21365680Y-18336404D01*
X21358677Y-18337140D01*
X21358676Y-18337140D01*
X21192288Y-18354628D01*
X21192286Y-18354629D01*
X21185288Y-18355364D01*
X21029792Y-18408299D01*
X21024084Y-18410242D01*
X21013579Y-18413818D01*
X21007575Y-18417512D01*
X20865095Y-18505166D01*
X20865092Y-18505168D01*
X20859088Y-18508862D01*
X20854053Y-18513793D01*
X20854050Y-18513795D01*
X20734525Y-18630843D01*
X20729493Y-18635771D01*
X20631235Y-18788238D01*
X20628826Y-18794858D01*
X20628824Y-18794861D01*
X20573615Y-18946547D01*
X20569197Y-18958685D01*
X20546463Y-19138640D01*
X20564163Y-19319160D01*
X20568580Y-19332438D01*
X20620418Y-19488268D01*
X20622941Y-19559220D01*
X20619261Y-19571134D01*
X20571607Y-19702063D01*
X20569197Y-19708685D01*
X20546463Y-19888640D01*
X20564163Y-20069160D01*
X20566387Y-20075845D01*
X20620418Y-20238268D01*
X20622941Y-20309220D01*
X20619261Y-20321134D01*
X20573116Y-20447918D01*
X20569197Y-20458685D01*
X20546463Y-20638640D01*
X20564163Y-20819160D01*
X20566387Y-20825845D01*
X20620418Y-20988268D01*
X20622941Y-21059220D01*
X20619261Y-21071134D01*
X20585918Y-21162744D01*
X20569197Y-21208685D01*
X20546463Y-21388640D01*
X20564163Y-21569160D01*
X20566387Y-21575845D01*
X20620418Y-21738268D01*
X20622941Y-21809220D01*
X20619261Y-21821134D01*
X20573690Y-21946340D01*
X20569197Y-21958685D01*
X20546463Y-22138640D01*
X17929464Y-22138640D01*
X17941681Y-22133173D01*
X17943600Y-22132998D01*
X18029854Y-22104972D01*
X18109409Y-22079124D01*
X18109412Y-22079123D01*
X18116108Y-22076947D01*
X18222972Y-22013243D01*
X18265860Y-21987677D01*
X18265862Y-21987676D01*
X18271912Y-21984069D01*
X18403266Y-21858982D01*
X18503643Y-21707902D01*
X18568055Y-21538338D01*
X18577695Y-21469745D01*
X18592748Y-21362639D01*
X18592748Y-21362636D01*
X18593299Y-21358717D01*
X18593616Y-21336000D01*
X18573397Y-21155745D01*
X18560657Y-21119160D01*
X18516064Y-20991106D01*
X18516062Y-20991103D01*
X18513745Y-20984448D01*
X18417626Y-20830624D01*
X18347189Y-20759693D01*
X18313382Y-20697264D01*
X18318694Y-20626466D01*
X18349703Y-20579665D01*
X18442206Y-20491575D01*
X18505330Y-20459082D01*
X18573015Y-20464722D01*
X18599168Y-20474448D01*
X18682995Y-20485633D01*
X18771980Y-20497507D01*
X18771984Y-20497507D01*
X18778961Y-20498438D01*
X18785972Y-20497800D01*
X18785976Y-20497800D01*
X18928459Y-20484832D01*
X18959600Y-20481998D01*
X18966302Y-20479820D01*
X18966304Y-20479820D01*
X19125409Y-20428124D01*
X19125412Y-20428123D01*
X19132108Y-20425947D01*
X19228513Y-20368478D01*
X19281860Y-20336677D01*
X19281862Y-20336676D01*
X19287912Y-20333069D01*
X19419266Y-20207982D01*
X19519643Y-20056902D01*
X19580741Y-19896062D01*
X19581555Y-19893920D01*
X19581556Y-19893918D01*
X19584055Y-19887338D01*
X19589635Y-19847637D01*
X19608748Y-19711639D01*
X19608748Y-19711636D01*
X19609299Y-19707717D01*
X19609452Y-19696738D01*
X19609561Y-19688962D01*
X19609561Y-19688957D01*
X19609616Y-19685000D01*
X19589397Y-19504745D01*
X19563610Y-19430694D01*
X19532064Y-19340106D01*
X19532062Y-19340103D01*
X19529745Y-19333448D01*
X19433626Y-19179624D01*
X19414840Y-19160706D01*
X19310778Y-19055915D01*
X19310774Y-19055912D01*
X19305815Y-19050918D01*
X19298164Y-19046062D01*
X19177906Y-18969745D01*
X19152666Y-18953727D01*
X19123463Y-18943328D01*
X18988425Y-18895243D01*
X18988420Y-18895242D01*
X18981790Y-18892881D01*
X18974802Y-18892048D01*
X18974799Y-18892047D01*
X18846462Y-18876744D01*
X18801680Y-18871404D01*
X18794677Y-18872140D01*
X18794676Y-18872140D01*
X18628288Y-18889628D01*
X18628286Y-18889629D01*
X18621288Y-18890364D01*
X18449579Y-18948818D01*
X18415563Y-18969745D01*
X18301095Y-19040166D01*
X18301092Y-19040168D01*
X18295088Y-19043862D01*
X18290053Y-19048793D01*
X18290050Y-19048795D01*
X18205054Y-19132030D01*
X18142389Y-19165401D01*
X18074631Y-19160706D01*
X18035805Y-19146881D01*
X18028817Y-19146048D01*
X18028814Y-19146047D01*
X17905713Y-19131368D01*
X17855695Y-19125404D01*
X17848692Y-19126140D01*
X17848691Y-19126140D01*
X17682303Y-19143628D01*
X17682301Y-19143629D01*
X17675303Y-19144364D01*
X17503594Y-19202818D01*
X17497590Y-19206512D01*
X17355110Y-19294166D01*
X17355107Y-19294168D01*
X17349103Y-19297862D01*
X17344068Y-19302793D01*
X17344065Y-19302795D01*
X17260539Y-19384590D01*
X17219508Y-19424771D01*
X17215694Y-19430689D01*
X17215690Y-19430694D01*
X17190267Y-19470144D01*
X17136553Y-19516570D01*
X17069437Y-19527004D01*
X16896684Y-19506404D01*
X16889681Y-19507140D01*
X16889680Y-19507140D01*
X16723292Y-19524628D01*
X16723290Y-19524629D01*
X16716292Y-19525364D01*
X16544583Y-19583818D01*
X16538579Y-19587512D01*
X16396099Y-19675166D01*
X16396096Y-19675168D01*
X16390092Y-19678862D01*
X16385057Y-19683793D01*
X16385054Y-19683795D01*
X16265529Y-19800843D01*
X16260497Y-19805771D01*
X16162239Y-19958238D01*
X16159830Y-19964858D01*
X16159828Y-19964861D01*
X16107395Y-20108920D01*
X16100201Y-20128685D01*
X16077467Y-20308640D01*
X16081362Y-20348362D01*
X16082640Y-20361397D01*
X16069381Y-20431145D01*
X16023265Y-20481009D01*
X15882089Y-20567862D01*
X15880722Y-20565640D01*
X15825863Y-20587394D01*
X15756194Y-20573729D01*
X15724892Y-20550710D01*
X15627778Y-20452915D01*
X15627774Y-20452912D01*
X15622815Y-20447918D01*
X15611697Y-20440862D01*
X15486479Y-20361397D01*
X15469666Y-20350727D01*
X15430209Y-20336677D01*
X15305425Y-20292243D01*
X15305420Y-20292242D01*
X15298790Y-20289881D01*
X15291802Y-20289048D01*
X15291799Y-20289047D01*
X15160057Y-20273338D01*
X15118680Y-20268404D01*
X15111677Y-20269140D01*
X15111676Y-20269140D01*
X14945288Y-20286628D01*
X14945286Y-20286629D01*
X14938288Y-20287364D01*
X14766579Y-20345818D01*
X14760575Y-20349512D01*
X14618095Y-20437166D01*
X14618092Y-20437168D01*
X14612088Y-20440862D01*
X14607053Y-20445793D01*
X14607050Y-20445795D01*
X14553293Y-20498438D01*
X14482493Y-20567771D01*
X14384235Y-20720238D01*
X14381826Y-20726858D01*
X14381824Y-20726861D01*
X14324606Y-20884066D01*
X14322197Y-20890685D01*
X14299463Y-21070640D01*
X14317163Y-21251160D01*
X14374418Y-21423273D01*
X14378065Y-21429295D01*
X14378066Y-21429297D01*
X14442008Y-21534878D01*
X14460187Y-21603508D01*
X14452634Y-21643241D01*
X14449197Y-21652685D01*
X14426463Y-21832640D01*
X14427150Y-21839648D01*
X14427150Y-21839659D01*
X14429164Y-21860191D01*
X14415906Y-21929938D01*
X14367044Y-21981446D01*
X14298092Y-21998360D01*
X14230941Y-21975311D01*
X14214360Y-21961272D01*
X14103778Y-21849915D01*
X14103774Y-21849912D01*
X14098815Y-21844918D01*
X14090529Y-21839659D01*
X13991687Y-21776933D01*
X13945666Y-21747727D01*
X13889853Y-21727853D01*
X13781425Y-21689243D01*
X13781420Y-21689242D01*
X13774790Y-21686881D01*
X13767802Y-21686048D01*
X13767799Y-21686047D01*
X13644698Y-21671368D01*
X13594680Y-21665404D01*
X13587677Y-21666140D01*
X13587676Y-21666140D01*
X13421288Y-21683628D01*
X13421286Y-21683629D01*
X13414288Y-21684364D01*
X13242579Y-21742818D01*
X13192970Y-21773338D01*
X13094095Y-21834166D01*
X13094092Y-21834168D01*
X13088088Y-21837862D01*
X13083053Y-21842793D01*
X13083050Y-21842795D01*
X12964708Y-21958685D01*
X12958493Y-21964771D01*
X12860235Y-22117238D01*
X12857826Y-22123858D01*
X12857824Y-22123861D01*
X12826079Y-22211080D01*
X12798197Y-22287685D01*
X12775463Y-22467640D01*
X5715000Y-22467640D01*
X5715000Y-18034000D01*
X-2032000Y-18034000D01*
X-2032000Y-25400000D01*
X-6858000Y-25400000D01*
X-6858000Y-16498640D01*
X20268463Y-16498640D01*
X20286163Y-16679160D01*
X20343418Y-16851273D01*
X20347065Y-16857295D01*
X20347066Y-16857297D01*
X20405606Y-16953958D01*
X20437380Y-17006424D01*
X20442269Y-17011487D01*
X20442270Y-17011488D01*
X20495727Y-17066844D01*
X20563382Y-17136902D01*
X20613946Y-17169990D01*
X20698912Y-17225590D01*
X20715159Y-17236222D01*
X20721763Y-17238678D01*
X20721765Y-17238679D01*
X20878558Y-17296990D01*
X20878560Y-17296990D01*
X20885168Y-17299448D01*
X20968995Y-17310633D01*
X21057980Y-17322507D01*
X21057984Y-17322507D01*
X21064961Y-17323438D01*
X21071972Y-17322800D01*
X21071976Y-17322800D01*
X21214459Y-17309832D01*
X21245600Y-17306998D01*
X21252302Y-17304820D01*
X21252304Y-17304820D01*
X21411409Y-17253124D01*
X21411412Y-17253123D01*
X21418108Y-17250947D01*
X21537126Y-17179998D01*
X21567860Y-17161677D01*
X21567862Y-17161676D01*
X21573912Y-17158069D01*
X21705266Y-17032982D01*
X21805643Y-16881902D01*
X21806502Y-16879640D01*
X23443463Y-16879640D01*
X23461163Y-17060160D01*
X23518418Y-17232273D01*
X23522065Y-17238295D01*
X23522066Y-17238297D01*
X23587139Y-17345745D01*
X23612380Y-17387424D01*
X23617269Y-17392487D01*
X23617270Y-17392488D01*
X23688348Y-17466091D01*
X23738382Y-17517902D01*
X23890159Y-17617222D01*
X23896763Y-17619678D01*
X23896765Y-17619679D01*
X24053558Y-17677990D01*
X24053560Y-17677990D01*
X24060168Y-17680448D01*
X24143995Y-17691633D01*
X24232980Y-17703507D01*
X24232984Y-17703507D01*
X24239961Y-17704438D01*
X24246972Y-17703800D01*
X24246976Y-17703800D01*
X24389459Y-17690832D01*
X24420600Y-17687998D01*
X24427302Y-17685820D01*
X24427304Y-17685820D01*
X24586409Y-17634124D01*
X24586412Y-17634123D01*
X24593108Y-17631947D01*
X24726148Y-17552639D01*
X24742860Y-17542677D01*
X24742862Y-17542676D01*
X24748912Y-17539069D01*
X24880266Y-17413982D01*
X24980643Y-17262902D01*
X25009584Y-17186715D01*
X25052473Y-17130137D01*
X25119142Y-17105728D01*
X25171290Y-17113362D01*
X25330168Y-17172448D01*
X25413995Y-17183633D01*
X25502980Y-17195507D01*
X25502984Y-17195507D01*
X25509961Y-17196438D01*
X25516972Y-17195800D01*
X25516976Y-17195800D01*
X25659459Y-17182832D01*
X25690600Y-17179998D01*
X25775077Y-17152550D01*
X25846042Y-17150522D01*
X25906840Y-17187185D01*
X25938165Y-17250897D01*
X25932412Y-17315478D01*
X25894791Y-17418841D01*
X25879197Y-17461685D01*
X25856463Y-17641640D01*
X25874163Y-17822160D01*
X25931418Y-17994273D01*
X25935065Y-18000295D01*
X25935066Y-18000297D01*
X26021157Y-18142451D01*
X26039336Y-18211081D01*
X26031782Y-18250816D01*
X25997483Y-18345053D01*
X25995073Y-18351675D01*
X25972339Y-18531630D01*
X25990039Y-18712150D01*
X26047294Y-18884263D01*
X26050941Y-18890285D01*
X26050942Y-18890287D01*
X26136552Y-19031646D01*
X26141256Y-19039414D01*
X26146145Y-19044477D01*
X26146146Y-19044478D01*
X26177204Y-19076639D01*
X26267258Y-19169892D01*
X26419035Y-19269212D01*
X26425639Y-19271668D01*
X26425641Y-19271669D01*
X26582434Y-19329980D01*
X26582436Y-19329980D01*
X26589044Y-19332438D01*
X26672871Y-19343623D01*
X26761856Y-19355497D01*
X26761860Y-19355497D01*
X26768837Y-19356428D01*
X26775848Y-19355790D01*
X26775852Y-19355790D01*
X26918335Y-19342822D01*
X26949476Y-19339988D01*
X26956178Y-19337810D01*
X26956180Y-19337810D01*
X27115285Y-19286114D01*
X27115288Y-19286113D01*
X27121984Y-19283937D01*
X27242406Y-19212151D01*
X27271736Y-19194667D01*
X27271738Y-19194666D01*
X27277788Y-19191059D01*
X27409142Y-19065972D01*
X27427301Y-19038640D01*
X28396463Y-19038640D01*
X28414163Y-19219160D01*
X28471418Y-19391273D01*
X28475065Y-19397295D01*
X28475066Y-19397297D01*
X28552626Y-19525364D01*
X28565380Y-19546424D01*
X28691382Y-19676902D01*
X28843159Y-19776222D01*
X28849763Y-19778678D01*
X28849765Y-19778679D01*
X29006558Y-19836990D01*
X29006560Y-19836990D01*
X29013168Y-19839448D01*
X29096995Y-19850633D01*
X29185980Y-19862507D01*
X29185984Y-19862507D01*
X29192961Y-19863438D01*
X29199972Y-19862800D01*
X29199976Y-19862800D01*
X29342459Y-19849832D01*
X29373600Y-19846998D01*
X29380302Y-19844820D01*
X29380304Y-19844820D01*
X29539409Y-19793124D01*
X29539412Y-19793123D01*
X29546108Y-19790947D01*
X29672378Y-19715675D01*
X29695860Y-19701677D01*
X29695862Y-19701676D01*
X29701912Y-19698069D01*
X29833266Y-19572982D01*
X29933643Y-19421902D01*
X29998055Y-19252338D01*
X29999035Y-19245366D01*
X30022748Y-19076639D01*
X30022748Y-19076636D01*
X30023299Y-19072717D01*
X30023475Y-19060101D01*
X30023561Y-19053962D01*
X30023561Y-19053957D01*
X30023616Y-19050000D01*
X30003397Y-18869745D01*
X30001080Y-18863091D01*
X29946064Y-18705106D01*
X29946062Y-18705103D01*
X29943745Y-18698448D01*
X29847626Y-18544624D01*
X29838835Y-18535771D01*
X29724778Y-18420915D01*
X29724774Y-18420912D01*
X29719815Y-18415918D01*
X29687561Y-18395449D01*
X29640764Y-18342060D01*
X29630259Y-18271845D01*
X29659383Y-18207097D01*
X29690559Y-18180837D01*
X29701912Y-18174069D01*
X29833266Y-18048982D01*
X29933643Y-17897902D01*
X29998055Y-17728338D01*
X30001545Y-17703507D01*
X30022748Y-17552639D01*
X30022748Y-17552636D01*
X30023299Y-17548717D01*
X30023452Y-17537738D01*
X30023561Y-17529962D01*
X30023561Y-17529957D01*
X30023616Y-17526000D01*
X30003397Y-17345745D01*
X30001080Y-17339091D01*
X29946064Y-17181106D01*
X29946062Y-17181103D01*
X29943745Y-17174448D01*
X29854153Y-17031069D01*
X29851359Y-17026598D01*
X29847626Y-17020624D01*
X29749417Y-16921727D01*
X29724778Y-16896915D01*
X29724774Y-16896912D01*
X29719815Y-16891918D01*
X29708697Y-16884862D01*
X29660538Y-16854300D01*
X29566666Y-16794727D01*
X29522449Y-16778982D01*
X29402425Y-16736243D01*
X29402420Y-16736242D01*
X29395790Y-16733881D01*
X29388802Y-16733048D01*
X29388799Y-16733047D01*
X29265698Y-16718368D01*
X29215680Y-16712404D01*
X29208677Y-16713140D01*
X29208676Y-16713140D01*
X29042288Y-16730628D01*
X29042286Y-16730629D01*
X29035288Y-16731364D01*
X28863579Y-16789818D01*
X28857575Y-16793512D01*
X28715095Y-16881166D01*
X28715092Y-16881168D01*
X28709088Y-16884862D01*
X28704053Y-16889793D01*
X28704050Y-16889795D01*
X28584953Y-17006424D01*
X28579493Y-17011771D01*
X28481235Y-17164238D01*
X28478826Y-17170858D01*
X28478824Y-17170861D01*
X28421606Y-17328066D01*
X28419197Y-17334685D01*
X28396463Y-17514640D01*
X28414163Y-17695160D01*
X28471418Y-17867273D01*
X28475065Y-17873295D01*
X28475066Y-17873297D01*
X28559278Y-18012348D01*
X28565380Y-18022424D01*
X28570269Y-18027487D01*
X28570270Y-18027488D01*
X28647121Y-18107068D01*
X28691382Y-18152902D01*
X28697278Y-18156760D01*
X28697279Y-18156761D01*
X28735437Y-18181731D01*
X28781486Y-18235769D01*
X28791009Y-18306123D01*
X28760984Y-18370459D01*
X28732468Y-18394478D01*
X28709088Y-18408862D01*
X28704053Y-18413793D01*
X28704050Y-18413795D01*
X28584525Y-18530843D01*
X28579493Y-18535771D01*
X28481235Y-18688238D01*
X28478826Y-18694858D01*
X28478824Y-18694861D01*
X28421606Y-18852066D01*
X28419197Y-18858685D01*
X28396463Y-19038640D01*
X27427301Y-19038640D01*
X27509519Y-18914892D01*
X27573931Y-18745328D01*
X27575185Y-18736404D01*
X27598624Y-18569629D01*
X27598624Y-18569626D01*
X27599175Y-18565707D01*
X27599492Y-18542990D01*
X27579273Y-18362735D01*
X27576450Y-18354628D01*
X27521940Y-18198096D01*
X27521938Y-18198093D01*
X27519621Y-18191438D01*
X27513720Y-18181994D01*
X27435074Y-18056133D01*
X27415938Y-17987764D01*
X27424140Y-17944621D01*
X27455554Y-17861924D01*
X27455556Y-17861917D01*
X27458055Y-17855338D01*
X27459035Y-17848366D01*
X27482748Y-17679639D01*
X27482748Y-17679636D01*
X27483299Y-17675717D01*
X27483616Y-17653000D01*
X27463397Y-17472745D01*
X27461080Y-17466091D01*
X27406064Y-17308106D01*
X27406062Y-17308103D01*
X27403745Y-17301448D01*
X27320651Y-17168469D01*
X27311359Y-17153598D01*
X27307626Y-17147624D01*
X27284114Y-17123947D01*
X27184778Y-17023915D01*
X27184774Y-17023912D01*
X27179815Y-17018918D01*
X27173867Y-17015143D01*
X27077455Y-16953958D01*
X27030656Y-16900569D01*
X27020151Y-16830354D01*
X27040021Y-16777846D01*
X27083544Y-16712338D01*
X27139643Y-16627902D01*
X27204055Y-16458338D01*
X27214686Y-16382693D01*
X27228748Y-16282639D01*
X27228748Y-16282636D01*
X27229299Y-16278717D01*
X27229616Y-16256000D01*
X27209397Y-16075745D01*
X27188352Y-16015312D01*
X27152064Y-15911106D01*
X27152062Y-15911103D01*
X27149745Y-15904448D01*
X27053626Y-15750624D01*
X27043082Y-15740006D01*
X27009277Y-15677577D01*
X27014702Y-15606481D01*
X27074555Y-15448920D01*
X27074556Y-15448918D01*
X27077055Y-15442338D01*
X27088781Y-15358902D01*
X27101748Y-15266639D01*
X27101748Y-15266636D01*
X27102299Y-15262717D01*
X27102616Y-15240000D01*
X27082397Y-15059745D01*
X27080080Y-15053091D01*
X27025064Y-14895106D01*
X27025062Y-14895103D01*
X27022745Y-14888448D01*
X26926626Y-14734624D01*
X26920110Y-14728062D01*
X26803778Y-14610915D01*
X26803774Y-14610912D01*
X26798815Y-14605918D01*
X26787697Y-14598862D01*
X26707038Y-14547675D01*
X26645666Y-14508727D01*
X26616463Y-14498328D01*
X26481425Y-14450243D01*
X26481420Y-14450242D01*
X26474790Y-14447881D01*
X26467802Y-14447048D01*
X26467799Y-14447047D01*
X26344698Y-14432368D01*
X26294680Y-14426404D01*
X26287677Y-14427140D01*
X26287676Y-14427140D01*
X26121288Y-14444628D01*
X26121286Y-14444629D01*
X26114288Y-14445364D01*
X25942579Y-14503818D01*
X25936575Y-14507512D01*
X25794095Y-14595166D01*
X25794092Y-14595168D01*
X25788088Y-14598862D01*
X25783053Y-14603793D01*
X25783050Y-14603795D01*
X25663525Y-14720843D01*
X25658493Y-14725771D01*
X25560235Y-14878238D01*
X25557826Y-14884858D01*
X25557824Y-14884861D01*
X25539816Y-14934338D01*
X25498197Y-15048685D01*
X25475463Y-15228640D01*
X25493163Y-15409160D01*
X25495386Y-15415842D01*
X25495386Y-15415843D01*
X25496538Y-15419305D01*
X25496621Y-15421653D01*
X25496851Y-15422733D01*
X25496661Y-15422773D01*
X25499060Y-15490256D01*
X25462822Y-15551308D01*
X25399330Y-15583077D01*
X25390155Y-15584384D01*
X25371386Y-15586357D01*
X25359289Y-15587628D01*
X25359288Y-15587628D01*
X25352288Y-15588364D01*
X25180579Y-15646818D01*
X25174575Y-15650512D01*
X25032095Y-15738166D01*
X25032092Y-15738168D01*
X25026088Y-15741862D01*
X25021053Y-15746793D01*
X25021050Y-15746795D01*
X24901525Y-15863843D01*
X24896493Y-15868771D01*
X24798235Y-16021238D01*
X24795826Y-16027858D01*
X24795824Y-16027861D01*
X24775194Y-16084542D01*
X24733100Y-16141713D01*
X24666778Y-16167051D01*
X24614576Y-16157172D01*
X24613666Y-16159727D01*
X24449425Y-16101243D01*
X24449420Y-16101242D01*
X24442790Y-16098881D01*
X24435802Y-16098048D01*
X24435799Y-16098047D01*
X24307462Y-16082744D01*
X24262680Y-16077404D01*
X24255677Y-16078140D01*
X24255676Y-16078140D01*
X24089288Y-16095628D01*
X24089286Y-16095629D01*
X24082288Y-16096364D01*
X23910579Y-16154818D01*
X23890695Y-16167051D01*
X23762095Y-16246166D01*
X23762092Y-16246168D01*
X23756088Y-16249862D01*
X23751053Y-16254793D01*
X23751050Y-16254795D01*
X23745774Y-16259962D01*
X23626493Y-16376771D01*
X23528235Y-16529238D01*
X23525826Y-16535858D01*
X23525824Y-16535861D01*
X23471235Y-16685844D01*
X23466197Y-16699685D01*
X23443463Y-16879640D01*
X21806502Y-16879640D01*
X21860974Y-16736243D01*
X21867555Y-16718920D01*
X21867556Y-16718918D01*
X21870055Y-16712338D01*
X21871833Y-16699685D01*
X21894748Y-16536639D01*
X21894748Y-16536636D01*
X21895299Y-16532717D01*
X21895616Y-16510000D01*
X21875397Y-16329745D01*
X21873080Y-16323091D01*
X21818064Y-16165106D01*
X21818062Y-16165103D01*
X21815745Y-16158448D01*
X21765625Y-16078238D01*
X21723359Y-16010598D01*
X21719626Y-16004624D01*
X21705941Y-15990843D01*
X21596778Y-15880915D01*
X21596774Y-15880912D01*
X21591815Y-15875918D01*
X21580697Y-15868862D01*
X21532538Y-15838300D01*
X21438666Y-15778727D01*
X21376532Y-15756602D01*
X21274425Y-15720243D01*
X21274420Y-15720242D01*
X21267790Y-15717881D01*
X21260802Y-15717048D01*
X21260799Y-15717047D01*
X21137698Y-15702368D01*
X21087680Y-15696404D01*
X21080677Y-15697140D01*
X21080676Y-15697140D01*
X20914288Y-15714628D01*
X20914286Y-15714629D01*
X20907288Y-15715364D01*
X20735579Y-15773818D01*
X20729575Y-15777512D01*
X20587095Y-15865166D01*
X20587092Y-15865168D01*
X20581088Y-15868862D01*
X20576053Y-15873793D01*
X20576050Y-15873795D01*
X20456525Y-15990843D01*
X20451493Y-15995771D01*
X20353235Y-16148238D01*
X20350826Y-16154858D01*
X20350824Y-16154861D01*
X20305744Y-16278717D01*
X20291197Y-16318685D01*
X20268463Y-16498640D01*
X-6858000Y-16498640D01*
X-6858000Y-12053640D01*
X-6483087Y-12053640D01*
X-6465387Y-12234160D01*
X-6408132Y-12406273D01*
X-6404485Y-12412295D01*
X-6404484Y-12412297D01*
X-6319909Y-12551947D01*
X-6314170Y-12561424D01*
X-6309281Y-12566487D01*
X-6309280Y-12566488D01*
X-6278059Y-12598818D01*
X-6188168Y-12691902D01*
X-6182272Y-12695760D01*
X-6058274Y-12776902D01*
X-6036391Y-12791222D01*
X-6029787Y-12793678D01*
X-6029785Y-12793679D01*
X-5872992Y-12851990D01*
X-5872990Y-12851990D01*
X-5866382Y-12854448D01*
X-5782555Y-12865633D01*
X-5693570Y-12877507D01*
X-5693566Y-12877507D01*
X-5686589Y-12878438D01*
X-5679578Y-12877800D01*
X-5679574Y-12877800D01*
X-5537091Y-12864832D01*
X-5505950Y-12861998D01*
X-5499248Y-12859820D01*
X-5499246Y-12859820D01*
X-5340141Y-12808124D01*
X-5340138Y-12808123D01*
X-5333442Y-12805947D01*
X-5213599Y-12734506D01*
X-5183690Y-12716677D01*
X-5183688Y-12716676D01*
X-5177638Y-12713069D01*
X-5046284Y-12587982D01*
X-4945907Y-12436902D01*
X-4902625Y-12322962D01*
X-4883995Y-12273920D01*
X-4883994Y-12273918D01*
X-4881495Y-12267338D01*
X-4880515Y-12260366D01*
X-4863408Y-12138640D01*
X-3945537Y-12138640D01*
X-3927837Y-12319160D01*
X-3870582Y-12491273D01*
X-3866935Y-12497295D01*
X-3866934Y-12497297D01*
X-3782929Y-12636006D01*
X-3776620Y-12646424D01*
X-3771731Y-12651487D01*
X-3771730Y-12651488D01*
X-3719170Y-12705915D01*
X-3650618Y-12776902D01*
X-3602906Y-12808124D01*
X-3535871Y-12851990D01*
X-3498841Y-12876222D01*
X-3492237Y-12878678D01*
X-3492235Y-12878679D01*
X-3335442Y-12936990D01*
X-3335440Y-12936990D01*
X-3328832Y-12939448D01*
X-3245005Y-12950633D01*
X-3156020Y-12962507D01*
X-3156016Y-12962507D01*
X-3149039Y-12963438D01*
X-3142028Y-12962800D01*
X-3142024Y-12962800D01*
X-2998748Y-12949760D01*
X-2968400Y-12946998D01*
X-2961698Y-12944820D01*
X-2961696Y-12944820D01*
X-2802591Y-12893124D01*
X-2802588Y-12893123D01*
X-2795892Y-12890947D01*
X-2669201Y-12815424D01*
X-2646140Y-12801677D01*
X-2646138Y-12801676D01*
X-2640088Y-12798069D01*
X-2508734Y-12672982D01*
X-2408357Y-12521902D01*
X-2364433Y-12406273D01*
X-2346445Y-12358920D01*
X-2346444Y-12358918D01*
X-2343945Y-12352338D01*
X-2340540Y-12328111D01*
X-2319252Y-12176639D01*
X-2319252Y-12176636D01*
X-2318701Y-12172717D01*
X-2318384Y-12150000D01*
X-2319658Y-12138640D01*
X-135537Y-12138640D01*
X-117837Y-12319160D01*
X-60582Y-12491273D01*
X-56935Y-12497295D01*
X-56934Y-12497297D01*
X27071Y-12636006D01*
X33380Y-12646424D01*
X38269Y-12651487D01*
X38270Y-12651488D01*
X90830Y-12705915D01*
X159382Y-12776902D01*
X207094Y-12808124D01*
X274129Y-12851990D01*
X311159Y-12876222D01*
X317763Y-12878678D01*
X317765Y-12878679D01*
X474558Y-12936990D01*
X474560Y-12936990D01*
X481168Y-12939448D01*
X564995Y-12950633D01*
X653980Y-12962507D01*
X653984Y-12962507D01*
X660961Y-12963438D01*
X667972Y-12962800D01*
X667976Y-12962800D01*
X811252Y-12949760D01*
X841600Y-12946998D01*
X848302Y-12944820D01*
X848304Y-12944820D01*
X1007409Y-12893124D01*
X1007412Y-12893123D01*
X1014108Y-12890947D01*
X1140799Y-12815424D01*
X1163860Y-12801677D01*
X1163862Y-12801676D01*
X1169912Y-12798069D01*
X1301266Y-12672982D01*
X1401643Y-12521902D01*
X1445567Y-12406273D01*
X1463555Y-12358920D01*
X1463556Y-12358918D01*
X1466055Y-12352338D01*
X1469460Y-12328111D01*
X1490748Y-12176639D01*
X1490748Y-12176636D01*
X1491299Y-12172717D01*
X1491616Y-12150000D01*
X1490342Y-12138640D01*
X10024463Y-12138640D01*
X10042163Y-12319160D01*
X10099418Y-12491273D01*
X10103065Y-12497295D01*
X10103066Y-12497297D01*
X10187071Y-12636006D01*
X10193380Y-12646424D01*
X10198269Y-12651487D01*
X10198270Y-12651488D01*
X10250830Y-12705915D01*
X10319382Y-12776902D01*
X10367094Y-12808124D01*
X10434129Y-12851990D01*
X10471159Y-12876222D01*
X10477763Y-12878678D01*
X10477765Y-12878679D01*
X10634558Y-12936990D01*
X10634560Y-12936990D01*
X10641168Y-12939448D01*
X10724995Y-12950633D01*
X10813980Y-12962507D01*
X10813984Y-12962507D01*
X10820961Y-12963438D01*
X10827972Y-12962800D01*
X10827976Y-12962800D01*
X10971252Y-12949760D01*
X11001600Y-12946998D01*
X11008302Y-12944820D01*
X11008304Y-12944820D01*
X11167409Y-12893124D01*
X11167412Y-12893123D01*
X11174108Y-12890947D01*
X11300799Y-12815424D01*
X11323860Y-12801677D01*
X11323862Y-12801676D01*
X11329912Y-12798069D01*
X11461266Y-12672982D01*
X11561643Y-12521902D01*
X11605567Y-12406273D01*
X11623555Y-12358920D01*
X11623556Y-12358918D01*
X11626055Y-12352338D01*
X11629460Y-12328111D01*
X11650748Y-12176639D01*
X11650748Y-12176636D01*
X11651299Y-12172717D01*
X11651616Y-12150000D01*
X11631397Y-11969745D01*
X11629080Y-11963091D01*
X11574064Y-11805106D01*
X11574062Y-11805103D01*
X11571745Y-11798448D01*
X11561662Y-11782312D01*
X11479359Y-11650598D01*
X11475626Y-11644624D01*
X11455236Y-11624091D01*
X11377331Y-11545640D01*
X14299463Y-11545640D01*
X14317163Y-11726160D01*
X14374418Y-11898273D01*
X14378065Y-11904295D01*
X14378066Y-11904297D01*
X14439356Y-12005499D01*
X14468380Y-12053424D01*
X14473269Y-12058487D01*
X14473270Y-12058488D01*
X14543919Y-12131646D01*
X14594382Y-12183902D01*
X14670271Y-12233562D01*
X14721886Y-12267338D01*
X14746159Y-12283222D01*
X14752763Y-12285678D01*
X14752765Y-12285679D01*
X14909558Y-12343990D01*
X14909560Y-12343990D01*
X14916168Y-12346448D01*
X14999995Y-12357633D01*
X15088980Y-12369507D01*
X15088984Y-12369507D01*
X15095961Y-12370438D01*
X15102972Y-12369800D01*
X15102976Y-12369800D01*
X15245459Y-12356832D01*
X15276600Y-12353998D01*
X15283302Y-12351820D01*
X15283304Y-12351820D01*
X15419277Y-12307640D01*
X17728463Y-12307640D01*
X17746163Y-12488160D01*
X17803418Y-12660273D01*
X17807065Y-12666295D01*
X17807066Y-12666297D01*
X17891641Y-12805947D01*
X17897380Y-12815424D01*
X17902269Y-12820487D01*
X17902270Y-12820488D01*
X17935065Y-12854448D01*
X18023382Y-12945902D01*
X18175159Y-13045222D01*
X18181763Y-13047678D01*
X18181765Y-13047679D01*
X18338558Y-13105990D01*
X18338560Y-13105990D01*
X18345168Y-13108448D01*
X18352153Y-13109380D01*
X18352157Y-13109381D01*
X18408039Y-13116837D01*
X18472916Y-13145673D01*
X18511904Y-13205006D01*
X18513777Y-13269092D01*
X18513197Y-13270685D01*
X18490463Y-13450640D01*
X18508163Y-13631160D01*
X18565418Y-13803273D01*
X18569065Y-13809295D01*
X18569066Y-13809297D01*
X18598551Y-13857982D01*
X18659380Y-13958424D01*
X18683180Y-13983069D01*
X18708042Y-14008815D01*
X18740974Y-14071712D01*
X18734674Y-14142428D01*
X18705565Y-14186364D01*
X18673493Y-14217771D01*
X18575235Y-14370238D01*
X18572826Y-14376858D01*
X18572824Y-14376861D01*
X18525271Y-14507512D01*
X18513197Y-14540685D01*
X18490463Y-14720640D01*
X18508163Y-14901160D01*
X18565418Y-15073273D01*
X18569065Y-15079295D01*
X18569066Y-15079297D01*
X18579978Y-15097314D01*
X18659380Y-15228424D01*
X18664269Y-15233487D01*
X18664270Y-15233488D01*
X18696284Y-15266639D01*
X18785382Y-15358902D01*
X18861271Y-15408562D01*
X18912886Y-15442338D01*
X18937159Y-15458222D01*
X18943763Y-15460678D01*
X18943765Y-15460679D01*
X19100558Y-15518990D01*
X19100560Y-15518990D01*
X19107168Y-15521448D01*
X19190995Y-15532633D01*
X19279980Y-15544507D01*
X19279984Y-15544507D01*
X19286961Y-15545438D01*
X19293972Y-15544800D01*
X19293976Y-15544800D01*
X19436459Y-15531832D01*
X19467600Y-15528998D01*
X19474302Y-15526820D01*
X19474304Y-15526820D01*
X19633409Y-15475124D01*
X19633412Y-15475123D01*
X19640108Y-15472947D01*
X19736513Y-15415478D01*
X19789860Y-15383677D01*
X19789862Y-15383676D01*
X19795912Y-15380069D01*
X19927266Y-15254982D01*
X20027643Y-15103902D01*
X20092055Y-14934338D01*
X20093035Y-14927366D01*
X20116748Y-14758639D01*
X20116748Y-14758636D01*
X20117299Y-14754717D01*
X20117616Y-14732000D01*
X20097397Y-14551745D01*
X20095080Y-14545091D01*
X20040064Y-14387106D01*
X20040062Y-14387103D01*
X20037745Y-14380448D01*
X19941626Y-14226624D01*
X19901979Y-14186699D01*
X19868172Y-14124268D01*
X19873484Y-14053470D01*
X19904492Y-14006670D01*
X19913872Y-13997737D01*
X19927266Y-13984982D01*
X20027643Y-13833902D01*
X20085233Y-13682297D01*
X20089555Y-13670920D01*
X20089556Y-13670918D01*
X20092055Y-13664338D01*
X20093035Y-13657366D01*
X20116748Y-13488639D01*
X20116748Y-13488636D01*
X20117299Y-13484717D01*
X20117616Y-13462000D01*
X20102096Y-13323640D01*
X25475463Y-13323640D01*
X25493163Y-13504160D01*
X25550418Y-13676273D01*
X25554065Y-13682295D01*
X25554066Y-13682297D01*
X25630980Y-13809297D01*
X25644380Y-13831424D01*
X25649269Y-13836487D01*
X25649270Y-13836488D01*
X25664357Y-13852111D01*
X25770382Y-13961902D01*
X25776278Y-13965760D01*
X25910313Y-14053470D01*
X25922159Y-14061222D01*
X25928763Y-14063678D01*
X25928765Y-14063679D01*
X26085558Y-14121990D01*
X26085560Y-14121990D01*
X26092168Y-14124448D01*
X26175995Y-14135633D01*
X26264980Y-14147507D01*
X26264984Y-14147507D01*
X26271961Y-14148438D01*
X26278972Y-14147800D01*
X26278976Y-14147800D01*
X26421459Y-14134832D01*
X26452600Y-14131998D01*
X26459302Y-14129820D01*
X26459304Y-14129820D01*
X26618409Y-14078124D01*
X26618412Y-14078123D01*
X26625108Y-14075947D01*
X26741321Y-14006670D01*
X26774860Y-13986677D01*
X26774862Y-13986676D01*
X26780912Y-13983069D01*
X26912266Y-13857982D01*
X27012643Y-13706902D01*
X27077055Y-13537338D01*
X27078035Y-13530366D01*
X27101748Y-13361639D01*
X27101748Y-13361636D01*
X27102299Y-13357717D01*
X27102616Y-13335000D01*
X27082397Y-13154745D01*
X27079238Y-13145673D01*
X27025064Y-12990106D01*
X27025062Y-12990103D01*
X27022745Y-12983448D01*
X27012662Y-12967312D01*
X26930359Y-12835598D01*
X26926626Y-12829624D01*
X26899532Y-12802340D01*
X26803778Y-12705915D01*
X26803774Y-12705912D01*
X26798815Y-12700918D01*
X26790688Y-12695760D01*
X26739538Y-12663300D01*
X26645666Y-12603727D01*
X26571234Y-12577223D01*
X26481425Y-12545243D01*
X26481420Y-12545242D01*
X26474790Y-12542881D01*
X26467802Y-12542048D01*
X26467799Y-12542047D01*
X26344698Y-12527368D01*
X26294680Y-12521404D01*
X26287677Y-12522140D01*
X26287676Y-12522140D01*
X26121288Y-12539628D01*
X26121286Y-12539629D01*
X26114288Y-12540364D01*
X25942579Y-12598818D01*
X25926619Y-12608637D01*
X25794095Y-12690166D01*
X25794092Y-12690168D01*
X25788088Y-12693862D01*
X25783053Y-12698793D01*
X25783050Y-12698795D01*
X25663953Y-12815424D01*
X25658493Y-12820771D01*
X25560235Y-12973238D01*
X25557826Y-12979858D01*
X25557824Y-12979861D01*
X25500606Y-13137066D01*
X25498197Y-13143685D01*
X25475463Y-13323640D01*
X20102096Y-13323640D01*
X20097397Y-13281745D01*
X20095080Y-13275091D01*
X20040064Y-13117106D01*
X20040062Y-13117103D01*
X20037745Y-13110448D01*
X19954651Y-12977469D01*
X19945359Y-12962598D01*
X19941626Y-12956624D01*
X19934810Y-12949760D01*
X19818778Y-12832915D01*
X19818774Y-12832912D01*
X19813815Y-12827918D01*
X19802554Y-12820771D01*
X19725440Y-12771834D01*
X19660666Y-12730727D01*
X19621209Y-12716677D01*
X19496425Y-12672243D01*
X19496420Y-12672242D01*
X19489790Y-12669881D01*
X19482802Y-12669048D01*
X19482799Y-12669047D01*
X19439918Y-12663934D01*
X19374645Y-12636006D01*
X19334832Y-12577223D01*
X19330063Y-12521285D01*
X19354748Y-12345642D01*
X19354749Y-12345632D01*
X19355299Y-12341717D01*
X19355489Y-12328111D01*
X19355561Y-12322962D01*
X19355561Y-12322957D01*
X19355616Y-12319000D01*
X19343241Y-12208677D01*
X19336182Y-12145741D01*
X19336181Y-12145739D01*
X19335397Y-12138745D01*
X19327707Y-12116662D01*
X19324194Y-12045754D01*
X19341749Y-12005503D01*
X19392643Y-11928902D01*
X19441746Y-11799640D01*
X23443463Y-11799640D01*
X23461163Y-11980160D01*
X23518418Y-12152273D01*
X23522065Y-12158295D01*
X23522066Y-12158297D01*
X23606641Y-12297947D01*
X23612380Y-12307424D01*
X23617269Y-12312487D01*
X23617270Y-12312488D01*
X23649020Y-12345366D01*
X23738382Y-12437902D01*
X23809729Y-12484590D01*
X23866748Y-12521902D01*
X23890159Y-12537222D01*
X23896763Y-12539678D01*
X23896765Y-12539679D01*
X24053558Y-12597990D01*
X24053560Y-12597990D01*
X24060168Y-12600448D01*
X24143995Y-12611633D01*
X24232980Y-12623507D01*
X24232984Y-12623507D01*
X24239961Y-12624438D01*
X24246972Y-12623800D01*
X24246976Y-12623800D01*
X24389459Y-12610832D01*
X24420600Y-12607998D01*
X24427302Y-12605820D01*
X24427304Y-12605820D01*
X24586409Y-12554124D01*
X24586412Y-12554123D01*
X24593108Y-12551947D01*
X24694889Y-12491273D01*
X24742860Y-12462677D01*
X24742862Y-12462676D01*
X24748912Y-12459069D01*
X24880266Y-12333982D01*
X24980643Y-12182902D01*
X25045055Y-12013338D01*
X25046157Y-12005499D01*
X25069748Y-11837639D01*
X25069748Y-11837636D01*
X25070299Y-11833717D01*
X25070616Y-11811000D01*
X25050397Y-11630745D01*
X25048080Y-11624091D01*
X24993064Y-11466106D01*
X24993062Y-11466103D01*
X24990745Y-11459448D01*
X24963822Y-11416362D01*
X24898359Y-11311598D01*
X24894626Y-11305624D01*
X24874544Y-11285401D01*
X24771778Y-11181915D01*
X24771774Y-11181912D01*
X24766815Y-11176918D01*
X24755697Y-11169862D01*
X24707538Y-11139300D01*
X24613666Y-11079727D01*
X24584463Y-11069328D01*
X24449425Y-11021243D01*
X24449420Y-11021242D01*
X24442790Y-11018881D01*
X24435802Y-11018048D01*
X24435799Y-11018047D01*
X24312698Y-11003368D01*
X24262680Y-10997404D01*
X24255677Y-10998140D01*
X24255676Y-10998140D01*
X24089288Y-11015628D01*
X24089286Y-11015629D01*
X24082288Y-11016364D01*
X23910579Y-11074818D01*
X23904575Y-11078512D01*
X23762095Y-11166166D01*
X23762092Y-11166168D01*
X23756088Y-11169862D01*
X23751053Y-11174793D01*
X23751050Y-11174795D01*
X23631953Y-11291424D01*
X23626493Y-11296771D01*
X23528235Y-11449238D01*
X23525826Y-11455858D01*
X23525824Y-11455861D01*
X23468606Y-11613066D01*
X23466197Y-11619685D01*
X23443463Y-11799640D01*
X19441746Y-11799640D01*
X19457055Y-11759338D01*
X19458035Y-11752366D01*
X19481748Y-11583639D01*
X19481748Y-11583636D01*
X19482299Y-11579717D01*
X19482616Y-11557000D01*
X19462397Y-11376745D01*
X19460080Y-11370091D01*
X19405064Y-11212106D01*
X19405062Y-11212103D01*
X19402745Y-11205448D01*
X19319700Y-11072547D01*
X19310359Y-11057598D01*
X19306626Y-11051624D01*
X19292941Y-11037843D01*
X19183778Y-10927915D01*
X19183774Y-10927912D01*
X19178815Y-10922918D01*
X19167697Y-10915862D01*
X19111713Y-10880334D01*
X19025666Y-10825727D01*
X18950501Y-10798962D01*
X18907472Y-10783640D01*
X20014463Y-10783640D01*
X20032163Y-10964160D01*
X20089418Y-11136273D01*
X20093065Y-11142295D01*
X20093066Y-11142297D01*
X20173581Y-11275243D01*
X20183380Y-11291424D01*
X20188269Y-11296487D01*
X20188270Y-11296488D01*
X20259348Y-11370091D01*
X20309382Y-11421902D01*
X20361277Y-11455861D01*
X20453054Y-11515918D01*
X20461159Y-11521222D01*
X20467763Y-11523678D01*
X20467765Y-11523679D01*
X20624558Y-11581990D01*
X20624560Y-11581990D01*
X20631168Y-11584448D01*
X20714995Y-11595633D01*
X20803980Y-11607507D01*
X20803984Y-11607507D01*
X20810961Y-11608438D01*
X20817972Y-11607800D01*
X20817976Y-11607800D01*
X20960459Y-11594832D01*
X20991600Y-11591998D01*
X20998302Y-11589820D01*
X20998304Y-11589820D01*
X21157409Y-11538124D01*
X21157412Y-11538123D01*
X21164108Y-11535947D01*
X21292436Y-11459448D01*
X21313860Y-11446677D01*
X21313862Y-11446676D01*
X21319912Y-11443069D01*
X21451266Y-11317982D01*
X21551643Y-11166902D01*
X21597764Y-11045490D01*
X21613555Y-11003920D01*
X21613556Y-11003918D01*
X21616055Y-10997338D01*
X21618370Y-10980864D01*
X21640748Y-10821639D01*
X21640748Y-10821636D01*
X21641299Y-10817717D01*
X21641616Y-10795000D01*
X21621397Y-10614745D01*
X21618281Y-10605797D01*
X21564064Y-10450106D01*
X21564062Y-10450103D01*
X21561745Y-10443448D01*
X21465626Y-10289624D01*
X21460664Y-10284627D01*
X21342778Y-10165915D01*
X21342774Y-10165912D01*
X21337815Y-10160918D01*
X21326697Y-10153862D01*
X21267636Y-10116381D01*
X21184666Y-10063727D01*
X21101298Y-10034041D01*
X21020425Y-10005243D01*
X21020420Y-10005242D01*
X21013790Y-10002881D01*
X21006802Y-10002048D01*
X21006799Y-10002047D01*
X20883698Y-9987368D01*
X20833680Y-9981404D01*
X20826677Y-9982140D01*
X20826676Y-9982140D01*
X20660288Y-9999628D01*
X20660286Y-9999629D01*
X20653288Y-10000364D01*
X20481579Y-10058818D01*
X20435759Y-10087007D01*
X20333095Y-10150166D01*
X20333092Y-10150168D01*
X20327088Y-10153862D01*
X20322053Y-10158793D01*
X20322050Y-10158795D01*
X20202525Y-10275843D01*
X20197493Y-10280771D01*
X20099235Y-10433238D01*
X20096826Y-10439858D01*
X20096824Y-10439861D01*
X20041053Y-10593090D01*
X20037197Y-10603685D01*
X20014463Y-10783640D01*
X18907472Y-10783640D01*
X18861425Y-10767243D01*
X18861420Y-10767242D01*
X18854790Y-10764881D01*
X18847802Y-10764048D01*
X18847799Y-10764047D01*
X18720779Y-10748901D01*
X18674680Y-10743404D01*
X18667677Y-10744140D01*
X18667676Y-10744140D01*
X18501288Y-10761628D01*
X18501286Y-10761629D01*
X18494288Y-10762364D01*
X18322579Y-10820818D01*
X18316575Y-10824512D01*
X18174095Y-10912166D01*
X18174092Y-10912168D01*
X18168088Y-10915862D01*
X18163053Y-10920793D01*
X18163050Y-10920795D01*
X18043525Y-11037843D01*
X18038493Y-11042771D01*
X17940235Y-11195238D01*
X17937826Y-11201858D01*
X17937824Y-11201861D01*
X17881341Y-11357047D01*
X17878197Y-11365685D01*
X17855463Y-11545640D01*
X17873163Y-11726160D01*
X17884405Y-11759955D01*
X17886929Y-11830903D01*
X17870758Y-11867979D01*
X17813235Y-11957238D01*
X17810826Y-11963858D01*
X17810824Y-11963861D01*
X17766791Y-12084841D01*
X17751197Y-12127685D01*
X17728463Y-12307640D01*
X15419277Y-12307640D01*
X15442409Y-12300124D01*
X15442412Y-12300123D01*
X15449108Y-12297947D01*
X15545513Y-12240478D01*
X15598860Y-12208677D01*
X15598862Y-12208676D01*
X15604912Y-12205069D01*
X15736266Y-12079982D01*
X15836643Y-11928902D01*
X15901055Y-11759338D01*
X15902035Y-11752366D01*
X15918181Y-11637483D01*
X15947469Y-11572809D01*
X16007074Y-11534236D01*
X16078070Y-11534011D01*
X16086875Y-11536922D01*
X16208058Y-11581990D01*
X16208060Y-11581990D01*
X16214668Y-11584448D01*
X16298495Y-11595633D01*
X16387480Y-11607507D01*
X16387484Y-11607507D01*
X16394461Y-11608438D01*
X16401472Y-11607800D01*
X16401476Y-11607800D01*
X16543959Y-11594832D01*
X16575100Y-11591998D01*
X16581802Y-11589820D01*
X16581804Y-11589820D01*
X16740909Y-11538124D01*
X16740912Y-11538123D01*
X16747608Y-11535947D01*
X16875936Y-11459448D01*
X16897360Y-11446677D01*
X16897362Y-11446676D01*
X16903412Y-11443069D01*
X17034766Y-11317982D01*
X17135143Y-11166902D01*
X17181264Y-11045490D01*
X17197055Y-11003920D01*
X17197056Y-11003918D01*
X17199555Y-10997338D01*
X17201870Y-10980864D01*
X17224248Y-10821639D01*
X17224248Y-10821636D01*
X17224799Y-10817717D01*
X17225116Y-10795000D01*
X17204897Y-10614745D01*
X17201781Y-10605797D01*
X17147564Y-10450106D01*
X17147562Y-10450103D01*
X17145245Y-10443448D01*
X17049126Y-10289624D01*
X17044164Y-10284627D01*
X16926278Y-10165915D01*
X16926274Y-10165912D01*
X16921315Y-10160918D01*
X16910197Y-10153862D01*
X16851136Y-10116381D01*
X16768166Y-10063727D01*
X16684798Y-10034041D01*
X16603925Y-10005243D01*
X16603920Y-10005242D01*
X16597290Y-10002881D01*
X16590302Y-10002048D01*
X16590299Y-10002047D01*
X16467198Y-9987368D01*
X16417180Y-9981404D01*
X16410177Y-9982140D01*
X16410176Y-9982140D01*
X16236788Y-10000364D01*
X16236463Y-9997275D01*
X16179353Y-9993330D01*
X16122414Y-9950921D01*
X16104107Y-9916602D01*
X16103062Y-9913601D01*
X16103061Y-9913600D01*
X16100745Y-9906948D01*
X16004626Y-9753124D01*
X15995835Y-9744271D01*
X15881778Y-9629415D01*
X15881774Y-9629412D01*
X15876815Y-9624418D01*
X15865697Y-9617362D01*
X15781181Y-9563727D01*
X15723666Y-9527227D01*
X15639419Y-9497228D01*
X15559425Y-9468743D01*
X15559420Y-9468742D01*
X15552790Y-9466381D01*
X15545802Y-9465548D01*
X15545799Y-9465547D01*
X15422698Y-9450868D01*
X15372680Y-9444904D01*
X15365677Y-9445640D01*
X15365676Y-9445640D01*
X15199288Y-9463128D01*
X15199286Y-9463129D01*
X15192288Y-9463864D01*
X15020579Y-9522318D01*
X14958109Y-9560750D01*
X14872095Y-9613666D01*
X14872092Y-9613668D01*
X14866088Y-9617362D01*
X14861053Y-9622293D01*
X14861050Y-9622295D01*
X14741525Y-9739343D01*
X14736493Y-9744271D01*
X14638235Y-9896738D01*
X14635826Y-9903358D01*
X14635824Y-9903361D01*
X14581489Y-10052645D01*
X14576197Y-10067185D01*
X14553463Y-10247140D01*
X14571163Y-10427660D01*
X14628418Y-10599773D01*
X14632065Y-10605795D01*
X14632066Y-10605797D01*
X14698635Y-10715717D01*
X14716814Y-10784347D01*
X14695003Y-10851910D01*
X14656884Y-10888303D01*
X14612088Y-10915862D01*
X14607053Y-10920793D01*
X14607050Y-10920795D01*
X14487525Y-11037843D01*
X14482493Y-11042771D01*
X14384235Y-11195238D01*
X14381826Y-11201858D01*
X14381824Y-11201861D01*
X14325341Y-11357047D01*
X14322197Y-11365685D01*
X14299463Y-11545640D01*
X11377331Y-11545640D01*
X11352778Y-11520915D01*
X11352774Y-11520912D01*
X11347815Y-11515918D01*
X11336697Y-11508862D01*
X11288538Y-11478300D01*
X11194666Y-11418727D01*
X11165463Y-11408328D01*
X11030425Y-11360243D01*
X11030420Y-11360242D01*
X11023790Y-11357881D01*
X11016802Y-11357048D01*
X11016799Y-11357047D01*
X10893698Y-11342368D01*
X10843680Y-11336404D01*
X10836677Y-11337140D01*
X10836676Y-11337140D01*
X10670288Y-11354628D01*
X10670286Y-11354629D01*
X10663288Y-11355364D01*
X10491579Y-11413818D01*
X10438168Y-11446677D01*
X10343095Y-11505166D01*
X10343092Y-11505168D01*
X10337088Y-11508862D01*
X10332053Y-11513793D01*
X10332050Y-11513795D01*
X10212625Y-11630745D01*
X10207493Y-11635771D01*
X10109235Y-11788238D01*
X10106826Y-11794858D01*
X10106824Y-11794861D01*
X10049606Y-11952066D01*
X10047197Y-11958685D01*
X10024463Y-12138640D01*
X1490342Y-12138640D01*
X1471397Y-11969745D01*
X1469080Y-11963091D01*
X1414064Y-11805106D01*
X1414062Y-11805103D01*
X1411745Y-11798448D01*
X1401662Y-11782312D01*
X1319359Y-11650598D01*
X1315626Y-11644624D01*
X1295236Y-11624091D01*
X1192778Y-11520915D01*
X1192774Y-11520912D01*
X1187815Y-11515918D01*
X1176697Y-11508862D01*
X1128538Y-11478300D01*
X1034666Y-11418727D01*
X1005463Y-11408328D01*
X870425Y-11360243D01*
X870420Y-11360242D01*
X863790Y-11357881D01*
X856802Y-11357048D01*
X856799Y-11357047D01*
X733698Y-11342368D01*
X683680Y-11336404D01*
X676677Y-11337140D01*
X676676Y-11337140D01*
X510288Y-11354628D01*
X510286Y-11354629D01*
X503288Y-11355364D01*
X331579Y-11413818D01*
X278168Y-11446677D01*
X183095Y-11505166D01*
X183092Y-11505168D01*
X177088Y-11508862D01*
X172053Y-11513793D01*
X172050Y-11513795D01*
X52625Y-11630745D01*
X47493Y-11635771D01*
X-50765Y-11788238D01*
X-53174Y-11794858D01*
X-53176Y-11794861D01*
X-110394Y-11952066D01*
X-112803Y-11958685D01*
X-135537Y-12138640D01*
X-2319658Y-12138640D01*
X-2338603Y-11969745D01*
X-2340920Y-11963091D01*
X-2395936Y-11805106D01*
X-2395938Y-11805103D01*
X-2398255Y-11798448D01*
X-2408338Y-11782312D01*
X-2490641Y-11650598D01*
X-2494374Y-11644624D01*
X-2514764Y-11624091D01*
X-2617222Y-11520915D01*
X-2617226Y-11520912D01*
X-2622185Y-11515918D01*
X-2633303Y-11508862D01*
X-2681462Y-11478300D01*
X-2775334Y-11418727D01*
X-2804537Y-11408328D01*
X-2939575Y-11360243D01*
X-2939580Y-11360242D01*
X-2946210Y-11357881D01*
X-2953198Y-11357048D01*
X-2953201Y-11357047D01*
X-3076302Y-11342368D01*
X-3126320Y-11336404D01*
X-3133323Y-11337140D01*
X-3133324Y-11337140D01*
X-3299712Y-11354628D01*
X-3299714Y-11354629D01*
X-3306712Y-11355364D01*
X-3478421Y-11413818D01*
X-3531832Y-11446677D01*
X-3626905Y-11505166D01*
X-3626908Y-11505168D01*
X-3632912Y-11508862D01*
X-3637947Y-11513793D01*
X-3637950Y-11513795D01*
X-3757375Y-11630745D01*
X-3762507Y-11635771D01*
X-3860765Y-11788238D01*
X-3863174Y-11794858D01*
X-3863176Y-11794861D01*
X-3920394Y-11952066D01*
X-3922803Y-11958685D01*
X-3945537Y-12138640D01*
X-4863408Y-12138640D01*
X-4856802Y-12091639D01*
X-4856802Y-12091636D01*
X-4856251Y-12087717D01*
X-4855934Y-12065000D01*
X-4876153Y-11884745D01*
X-4878470Y-11878091D01*
X-4933486Y-11720106D01*
X-4933488Y-11720103D01*
X-4935805Y-11713448D01*
X-4983273Y-11637483D01*
X-5028191Y-11565598D01*
X-5031924Y-11559624D01*
X-5038440Y-11553062D01*
X-5154772Y-11435915D01*
X-5154776Y-11435912D01*
X-5159735Y-11430918D01*
X-5167862Y-11425760D01*
X-5251512Y-11372675D01*
X-5312884Y-11333727D01*
X-5373589Y-11312111D01*
X-5477125Y-11275243D01*
X-5477130Y-11275242D01*
X-5483760Y-11272881D01*
X-5490748Y-11272048D01*
X-5490751Y-11272047D01*
X-5613852Y-11257368D01*
X-5663870Y-11251404D01*
X-5670873Y-11252140D01*
X-5670874Y-11252140D01*
X-5837262Y-11269628D01*
X-5837264Y-11269629D01*
X-5844262Y-11270364D01*
X-6015971Y-11328818D01*
X-6029498Y-11337140D01*
X-6164455Y-11420166D01*
X-6164458Y-11420168D01*
X-6170462Y-11423862D01*
X-6175497Y-11428793D01*
X-6175500Y-11428795D01*
X-6295025Y-11545843D01*
X-6300057Y-11550771D01*
X-6398315Y-11703238D01*
X-6400724Y-11709858D01*
X-6400726Y-11709861D01*
X-6444782Y-11830903D01*
X-6460353Y-11873685D01*
X-6483087Y-12053640D01*
X-6858000Y-12053640D01*
X-6858000Y-10413000D01*
X-6837998Y-10344879D01*
X-6784342Y-10298386D01*
X-6732000Y-10287000D01*
X-8702Y-10287000D01*
X-7931Y-10287002D01*
X69652Y-10287476D01*
X78281Y-10285010D01*
X78286Y-10285009D01*
X98048Y-10279361D01*
X114809Y-10275783D01*
X135152Y-10272870D01*
X135162Y-10272867D01*
X144045Y-10271595D01*
X167395Y-10260979D01*
X184907Y-10254536D01*
X200937Y-10249954D01*
X209565Y-10247488D01*
X210117Y-10247140D01*
X7441463Y-10247140D01*
X7459163Y-10427660D01*
X7516418Y-10599773D01*
X7520065Y-10605795D01*
X7520066Y-10605797D01*
X7586636Y-10715717D01*
X7610380Y-10754924D01*
X7615269Y-10759987D01*
X7615270Y-10759988D01*
X7674806Y-10821639D01*
X7736382Y-10885402D01*
X7888159Y-10984722D01*
X7894763Y-10987178D01*
X7894765Y-10987179D01*
X8051558Y-11045490D01*
X8051560Y-11045490D01*
X8058168Y-11047948D01*
X8130490Y-11057598D01*
X8230980Y-11071007D01*
X8230984Y-11071007D01*
X8237961Y-11071938D01*
X8244972Y-11071300D01*
X8244976Y-11071300D01*
X8387459Y-11058332D01*
X8418600Y-11055498D01*
X8425302Y-11053320D01*
X8425304Y-11053320D01*
X8584409Y-11001624D01*
X8584412Y-11001623D01*
X8591108Y-10999447D01*
X8711104Y-10927915D01*
X8740860Y-10910177D01*
X8740862Y-10910176D01*
X8746912Y-10906569D01*
X8878266Y-10781482D01*
X8978643Y-10630402D01*
X9043055Y-10460838D01*
X9046339Y-10437469D01*
X9067748Y-10285139D01*
X9067748Y-10285136D01*
X9068299Y-10281217D01*
X9068616Y-10258500D01*
X9048397Y-10078245D01*
X9044656Y-10067502D01*
X8991064Y-9913606D01*
X8991062Y-9913601D01*
X8988745Y-9906948D01*
X8985009Y-9900969D01*
X8896359Y-9759098D01*
X8892626Y-9753124D01*
X8883835Y-9744271D01*
X8769778Y-9629415D01*
X8769774Y-9629412D01*
X8764815Y-9624418D01*
X8753697Y-9617362D01*
X8669181Y-9563727D01*
X8611666Y-9527227D01*
X8527419Y-9497228D01*
X8447425Y-9468743D01*
X8447420Y-9468742D01*
X8440790Y-9466381D01*
X8433802Y-9465548D01*
X8433799Y-9465547D01*
X8310698Y-9450868D01*
X8260680Y-9444904D01*
X8253677Y-9445640D01*
X8253676Y-9445640D01*
X8087288Y-9463128D01*
X8087286Y-9463129D01*
X8080288Y-9463864D01*
X7908579Y-9522318D01*
X7846109Y-9560750D01*
X7760095Y-9613666D01*
X7760092Y-9613668D01*
X7754088Y-9617362D01*
X7749053Y-9622293D01*
X7749050Y-9622295D01*
X7629525Y-9739343D01*
X7624493Y-9744271D01*
X7526235Y-9896738D01*
X7523826Y-9903358D01*
X7523824Y-9903361D01*
X7469489Y-10052645D01*
X7464197Y-10067185D01*
X7441463Y-10247140D01*
X210117Y-10247140D01*
X234548Y-10231726D01*
X249614Y-10223596D01*
X276510Y-10211367D01*
X295939Y-10194626D01*
X310947Y-10183521D01*
X325039Y-10174630D01*
X332631Y-10169840D01*
X352182Y-10147703D01*
X364374Y-10135659D01*
X379949Y-10122239D01*
X379950Y-10122237D01*
X386747Y-10116381D01*
X391626Y-10108853D01*
X391629Y-10108850D01*
X400696Y-10094861D01*
X411986Y-10079987D01*
X419401Y-10071591D01*
X428956Y-10060772D01*
X441510Y-10034034D01*
X449824Y-10019065D01*
X465893Y-9994273D01*
X473239Y-9969709D01*
X479901Y-9952264D01*
X486983Y-9937179D01*
X490799Y-9929052D01*
X495343Y-9899870D01*
X499126Y-9883151D01*
X505014Y-9863464D01*
X505015Y-9863461D01*
X507587Y-9854859D01*
X507797Y-9820444D01*
X507830Y-9819672D01*
X508000Y-9818577D01*
X508000Y-9787702D01*
X508002Y-9786932D01*
X508452Y-9713284D01*
X508452Y-9713283D01*
X508476Y-9709348D01*
X508092Y-9708004D01*
X508000Y-9706659D01*
X508000Y-7073695D01*
X3082251Y-7073695D01*
X3082548Y-7078848D01*
X3082548Y-7078851D01*
X3088011Y-7173590D01*
X3095110Y-7296715D01*
X3096247Y-7301761D01*
X3096248Y-7301767D01*
X3113302Y-7377440D01*
X3144222Y-7514639D01*
X3228266Y-7721616D01*
X3276529Y-7800375D01*
X3333436Y-7893238D01*
X3344987Y-7912088D01*
X3491250Y-8080938D01*
X3663126Y-8223632D01*
X3856000Y-8336338D01*
X4064692Y-8416030D01*
X4069760Y-8417061D01*
X4069763Y-8417062D01*
X4177017Y-8438883D01*
X4283597Y-8460567D01*
X4288772Y-8460757D01*
X4288774Y-8460757D01*
X4501673Y-8468564D01*
X4501677Y-8468564D01*
X4506837Y-8468753D01*
X4511957Y-8468097D01*
X4511959Y-8468097D01*
X4723288Y-8441025D01*
X4723289Y-8441025D01*
X4728416Y-8440368D01*
X4785383Y-8423277D01*
X4937429Y-8377661D01*
X4937434Y-8377659D01*
X4942384Y-8376174D01*
X5142994Y-8277896D01*
X5217870Y-8224488D01*
X5284942Y-8201214D01*
X5353951Y-8217897D01*
X5402985Y-8269240D01*
X5416437Y-8314770D01*
X5422458Y-8376174D01*
X5427163Y-8424160D01*
X5484418Y-8596273D01*
X5488065Y-8602295D01*
X5488066Y-8602297D01*
X5563439Y-8726753D01*
X5578380Y-8751424D01*
X5583269Y-8756487D01*
X5583270Y-8756488D01*
X5588027Y-8761414D01*
X5704382Y-8881902D01*
X5856159Y-8981222D01*
X5862763Y-8983678D01*
X5862765Y-8983679D01*
X6019558Y-9041990D01*
X6019560Y-9041990D01*
X6026168Y-9044448D01*
X6109995Y-9055633D01*
X6198980Y-9067507D01*
X6198984Y-9067507D01*
X6205961Y-9068438D01*
X6212972Y-9067800D01*
X6212976Y-9067800D01*
X6355459Y-9054832D01*
X6386600Y-9051998D01*
X6393302Y-9049820D01*
X6393304Y-9049820D01*
X6552409Y-8998124D01*
X6552412Y-8998123D01*
X6559108Y-8995947D01*
X6714912Y-8903069D01*
X6846266Y-8777982D01*
X6946643Y-8626902D01*
X7004138Y-8475547D01*
X7008555Y-8463920D01*
X7008556Y-8463918D01*
X7011055Y-8457338D01*
X7013649Y-8438883D01*
X7035748Y-8281639D01*
X7035748Y-8281636D01*
X7036299Y-8277717D01*
X7036616Y-8255000D01*
X7035342Y-8243640D01*
X11632463Y-8243640D01*
X11650163Y-8424160D01*
X11707418Y-8596273D01*
X11711065Y-8602295D01*
X11711066Y-8602297D01*
X11786439Y-8726753D01*
X11801380Y-8751424D01*
X11806269Y-8756487D01*
X11806270Y-8756488D01*
X11811027Y-8761414D01*
X11927382Y-8881902D01*
X12079159Y-8981222D01*
X12085763Y-8983678D01*
X12085765Y-8983679D01*
X12242558Y-9041990D01*
X12242560Y-9041990D01*
X12249168Y-9044448D01*
X12332995Y-9055633D01*
X12421980Y-9067507D01*
X12421984Y-9067507D01*
X12428961Y-9068438D01*
X12435972Y-9067800D01*
X12435976Y-9067800D01*
X12578459Y-9054832D01*
X12609600Y-9051998D01*
X12616302Y-9049820D01*
X12616304Y-9049820D01*
X12775409Y-8998124D01*
X12775412Y-8998123D01*
X12782108Y-8995947D01*
X12937912Y-8903069D01*
X13069266Y-8777982D01*
X13169643Y-8626902D01*
X13227138Y-8475547D01*
X13231555Y-8463920D01*
X13231556Y-8463918D01*
X13234055Y-8457338D01*
X13236649Y-8438883D01*
X13258748Y-8281639D01*
X13258748Y-8281636D01*
X13259299Y-8277717D01*
X13259616Y-8255000D01*
X13239397Y-8074745D01*
X13237080Y-8068091D01*
X13182064Y-7910106D01*
X13182062Y-7910103D01*
X13179745Y-7903448D01*
X13117191Y-7803340D01*
X13087359Y-7755598D01*
X13083626Y-7749624D01*
X13069941Y-7735843D01*
X12960778Y-7625915D01*
X12960774Y-7625912D01*
X12955815Y-7620918D01*
X12944697Y-7613862D01*
X12896538Y-7583300D01*
X12802666Y-7523727D01*
X12773463Y-7513328D01*
X12638425Y-7465243D01*
X12638420Y-7465242D01*
X12631790Y-7462881D01*
X12624802Y-7462048D01*
X12624799Y-7462047D01*
X12501698Y-7447368D01*
X12451680Y-7441404D01*
X12444677Y-7442140D01*
X12444676Y-7442140D01*
X12278288Y-7459628D01*
X12278286Y-7459629D01*
X12271288Y-7460364D01*
X12099579Y-7518818D01*
X12085457Y-7527506D01*
X11951095Y-7610166D01*
X11951092Y-7610168D01*
X11945088Y-7613862D01*
X11940053Y-7618793D01*
X11940050Y-7618795D01*
X11820525Y-7735843D01*
X11815493Y-7740771D01*
X11717235Y-7893238D01*
X11714826Y-7899858D01*
X11714824Y-7899861D01*
X11668032Y-8028420D01*
X11655197Y-8063685D01*
X11632463Y-8243640D01*
X7035342Y-8243640D01*
X7016397Y-8074745D01*
X7014080Y-8068091D01*
X6959064Y-7910106D01*
X6959062Y-7910103D01*
X6956745Y-7903448D01*
X6894191Y-7803340D01*
X6864359Y-7755598D01*
X6860626Y-7749624D01*
X6846941Y-7735843D01*
X6737778Y-7625915D01*
X6737774Y-7625912D01*
X6732815Y-7620918D01*
X6721697Y-7613862D01*
X6673538Y-7583300D01*
X6579666Y-7523727D01*
X6550463Y-7513328D01*
X6415425Y-7465243D01*
X6415420Y-7465242D01*
X6408790Y-7462881D01*
X6401802Y-7462048D01*
X6401799Y-7462047D01*
X6278698Y-7447368D01*
X6228680Y-7441404D01*
X6221677Y-7442140D01*
X6221676Y-7442140D01*
X6055288Y-7459628D01*
X6055286Y-7459629D01*
X6048288Y-7460364D01*
X6041622Y-7462633D01*
X6041623Y-7462633D01*
X5947659Y-7494620D01*
X5876726Y-7497638D01*
X5815423Y-7461827D01*
X5783211Y-7398558D01*
X5782132Y-7358898D01*
X5806529Y-7173590D01*
X5807329Y-7140842D01*
X5808074Y-7110365D01*
X5808074Y-7110361D01*
X5808156Y-7107000D01*
X5789852Y-6884361D01*
X5735431Y-6667702D01*
X5646354Y-6462840D01*
X5525014Y-6275277D01*
X5516562Y-6265988D01*
X5377798Y-6113488D01*
X5346746Y-6049642D01*
X5355141Y-5979143D01*
X5400317Y-5924375D01*
X5426761Y-5910706D01*
X5533297Y-5870767D01*
X5541705Y-5867615D01*
X5658261Y-5780261D01*
X5745615Y-5663705D01*
X5796745Y-5527316D01*
X5803500Y-5465134D01*
X5803500Y-4745835D01*
X6333819Y-4745835D01*
X6359527Y-5072484D01*
X6424851Y-5393564D01*
X6456599Y-5488448D01*
X6501660Y-5623120D01*
X6528819Y-5704291D01*
X6669879Y-6000030D01*
X6845930Y-6276375D01*
X6848373Y-6279338D01*
X6848374Y-6279340D01*
X7036301Y-6507312D01*
X7054347Y-6529204D01*
X7292022Y-6754749D01*
X7555412Y-6949648D01*
X7698002Y-7030322D01*
X7837235Y-7109096D01*
X7837239Y-7109098D01*
X7840592Y-7110995D01*
X8143309Y-7236384D01*
X8248077Y-7265439D01*
X8455334Y-7322917D01*
X8455342Y-7322919D01*
X8459050Y-7323947D01*
X8783110Y-7372378D01*
X8786408Y-7372522D01*
X8899045Y-7377440D01*
X8899049Y-7377440D01*
X8900421Y-7377500D01*
X9100221Y-7377500D01*
X9344047Y-7362587D01*
X9347830Y-7361886D01*
X9347837Y-7361885D01*
X9505133Y-7332731D01*
X9666219Y-7302876D01*
X9793817Y-7262644D01*
X9975045Y-7205504D01*
X9975052Y-7205501D01*
X9978713Y-7204347D01*
X10192321Y-7107000D01*
X10273372Y-7070063D01*
X10273376Y-7070061D01*
X10276869Y-7068469D01*
X10280138Y-7066465D01*
X10280145Y-7066462D01*
X10552966Y-6899277D01*
X10552969Y-6899275D01*
X10556244Y-6897268D01*
X10559248Y-6894878D01*
X10559253Y-6894875D01*
X10809661Y-6695691D01*
X10809660Y-6695691D01*
X10812672Y-6693296D01*
X11042331Y-6459593D01*
X11184995Y-6273670D01*
X11187938Y-6269835D01*
X23859819Y-6269835D01*
X23885527Y-6596484D01*
X23950851Y-6917564D01*
X23962222Y-6951547D01*
X24047195Y-7205504D01*
X24054819Y-7228291D01*
X24195879Y-7524030D01*
X24371930Y-7800375D01*
X24374373Y-7803338D01*
X24374374Y-7803340D01*
X24559917Y-8028420D01*
X24580347Y-8053204D01*
X24818022Y-8278749D01*
X25081412Y-8473648D01*
X25224002Y-8554321D01*
X25363235Y-8633096D01*
X25363239Y-8633098D01*
X25366592Y-8634995D01*
X25669309Y-8760384D01*
X25750286Y-8782841D01*
X25981334Y-8846917D01*
X25981342Y-8846919D01*
X25985050Y-8847947D01*
X26309110Y-8896378D01*
X26312408Y-8896522D01*
X26425045Y-8901440D01*
X26425049Y-8901440D01*
X26426421Y-8901500D01*
X26626221Y-8901500D01*
X26870047Y-8886587D01*
X26873830Y-8885886D01*
X26873837Y-8885885D01*
X27031133Y-8856732D01*
X27192219Y-8826876D01*
X27347291Y-8777982D01*
X27501045Y-8729504D01*
X27501052Y-8729501D01*
X27504713Y-8728347D01*
X27713722Y-8633096D01*
X27799372Y-8594063D01*
X27799376Y-8594061D01*
X27802869Y-8592469D01*
X27806138Y-8590465D01*
X27806145Y-8590462D01*
X28078966Y-8423277D01*
X28078969Y-8423275D01*
X28082244Y-8421268D01*
X28085248Y-8418878D01*
X28085253Y-8418875D01*
X28329630Y-8224488D01*
X28338672Y-8217296D01*
X28568331Y-7983593D01*
X28626574Y-7907689D01*
X28765447Y-7726707D01*
X28765449Y-7726704D01*
X28767797Y-7723644D01*
X28934096Y-7441324D01*
X29064750Y-7140842D01*
X29157810Y-6826676D01*
X29211889Y-6503512D01*
X29226181Y-6176165D01*
X29206071Y-5920641D01*
X29200775Y-5853351D01*
X29200775Y-5853348D01*
X29200473Y-5849516D01*
X29135149Y-5528436D01*
X29059259Y-5301625D01*
X29032401Y-5221354D01*
X29032399Y-5221348D01*
X29031181Y-5217709D01*
X28890121Y-4921970D01*
X28881171Y-4907920D01*
X28780354Y-4749670D01*
X28714070Y-4645625D01*
X28646873Y-4564109D01*
X28508096Y-4395759D01*
X28508092Y-4395755D01*
X28505653Y-4392796D01*
X28267978Y-4167251D01*
X28004588Y-3972352D01*
X27798120Y-3855538D01*
X27722765Y-3812904D01*
X27722761Y-3812902D01*
X27719408Y-3811005D01*
X27626065Y-3772341D01*
X27517374Y-3727320D01*
X27416691Y-3685616D01*
X27311923Y-3656561D01*
X27104666Y-3599083D01*
X27104658Y-3599081D01*
X27100950Y-3598053D01*
X26776890Y-3549622D01*
X26773592Y-3549478D01*
X26660955Y-3544560D01*
X26660951Y-3544560D01*
X26659579Y-3544500D01*
X26459779Y-3544500D01*
X26215953Y-3559413D01*
X26212170Y-3560114D01*
X26212163Y-3560115D01*
X26054867Y-3589268D01*
X25893781Y-3619124D01*
X25766183Y-3659356D01*
X25584955Y-3716496D01*
X25584948Y-3716499D01*
X25581287Y-3717653D01*
X25433833Y-3784852D01*
X25286628Y-3851937D01*
X25286624Y-3851939D01*
X25283131Y-3853531D01*
X25279862Y-3855535D01*
X25279855Y-3855538D01*
X25042824Y-4000791D01*
X25003756Y-4024732D01*
X25000752Y-4027122D01*
X25000747Y-4027125D01*
X24839040Y-4155753D01*
X24747328Y-4228704D01*
X24744636Y-4231443D01*
X24744632Y-4231447D01*
X24640672Y-4337238D01*
X24517669Y-4462407D01*
X24515324Y-4465463D01*
X24333085Y-4702962D01*
X24318203Y-4722356D01*
X24151904Y-5004676D01*
X24089238Y-5148798D01*
X24025886Y-5294497D01*
X24021250Y-5305158D01*
X23928190Y-5619324D01*
X23874111Y-5942488D01*
X23859819Y-6269835D01*
X11187938Y-6269835D01*
X11239447Y-6202707D01*
X11239449Y-6202704D01*
X11241797Y-6199644D01*
X11408096Y-5917324D01*
X11538750Y-5616842D01*
X11631810Y-5302676D01*
X11685889Y-4979512D01*
X11698632Y-4687640D01*
X13537463Y-4687640D01*
X13555163Y-4868160D01*
X13612418Y-5040273D01*
X13616065Y-5046295D01*
X13616066Y-5046297D01*
X13702731Y-5189398D01*
X13706380Y-5195424D01*
X13711269Y-5200487D01*
X13711270Y-5200488D01*
X13731420Y-5221354D01*
X13832382Y-5325902D01*
X13838278Y-5329760D01*
X13941351Y-5397209D01*
X13984159Y-5425222D01*
X13990763Y-5427678D01*
X13990765Y-5427679D01*
X14147558Y-5485990D01*
X14147560Y-5485990D01*
X14154168Y-5488448D01*
X14237995Y-5499633D01*
X14326980Y-5511507D01*
X14326984Y-5511507D01*
X14333961Y-5512438D01*
X14340972Y-5511800D01*
X14340976Y-5511800D01*
X14483459Y-5498832D01*
X14514600Y-5495998D01*
X14521302Y-5493820D01*
X14521304Y-5493820D01*
X14680409Y-5442124D01*
X14680412Y-5442123D01*
X14687108Y-5439947D01*
X14842912Y-5347069D01*
X14974266Y-5221982D01*
X15006791Y-5173028D01*
X15061149Y-5127357D01*
X15131568Y-5118325D01*
X15195692Y-5148798D01*
X15219514Y-5177483D01*
X15226730Y-5189398D01*
X15226733Y-5189401D01*
X15230380Y-5195424D01*
X15235269Y-5200487D01*
X15235270Y-5200488D01*
X15255420Y-5221354D01*
X15356382Y-5325902D01*
X15362278Y-5329760D01*
X15465351Y-5397209D01*
X15508159Y-5425222D01*
X15514763Y-5427678D01*
X15514765Y-5427679D01*
X15671558Y-5485990D01*
X15671560Y-5485990D01*
X15678168Y-5488448D01*
X15761995Y-5499633D01*
X15850980Y-5511507D01*
X15850984Y-5511507D01*
X15857961Y-5512438D01*
X15864972Y-5511800D01*
X15864976Y-5511800D01*
X16007459Y-5498832D01*
X16038600Y-5495998D01*
X16045302Y-5493820D01*
X16045304Y-5493820D01*
X16204409Y-5442124D01*
X16204412Y-5442123D01*
X16211108Y-5439947D01*
X16366912Y-5347069D01*
X16422118Y-5294497D01*
X16485243Y-5262005D01*
X16555914Y-5268798D01*
X16599643Y-5298214D01*
X16626382Y-5325902D01*
X16632278Y-5329760D01*
X16735351Y-5397209D01*
X16778159Y-5425222D01*
X16784763Y-5427678D01*
X16784765Y-5427679D01*
X16941558Y-5485990D01*
X16941560Y-5485990D01*
X16948168Y-5488448D01*
X17031995Y-5499633D01*
X17120980Y-5511507D01*
X17120984Y-5511507D01*
X17127961Y-5512438D01*
X17134972Y-5511800D01*
X17134976Y-5511800D01*
X17277459Y-5498832D01*
X17308600Y-5495998D01*
X17315302Y-5493820D01*
X17315304Y-5493820D01*
X17474409Y-5442124D01*
X17474412Y-5442123D01*
X17481108Y-5439947D01*
X17636912Y-5347069D01*
X17692118Y-5294497D01*
X17755243Y-5262005D01*
X17825914Y-5268798D01*
X17869643Y-5298214D01*
X17896382Y-5325902D01*
X17902278Y-5329760D01*
X18005351Y-5397209D01*
X18048159Y-5425222D01*
X18054763Y-5427678D01*
X18054765Y-5427679D01*
X18211558Y-5485990D01*
X18211560Y-5485990D01*
X18218168Y-5488448D01*
X18301995Y-5499633D01*
X18390980Y-5511507D01*
X18390984Y-5511507D01*
X18397961Y-5512438D01*
X18404972Y-5511800D01*
X18404976Y-5511800D01*
X18547459Y-5498832D01*
X18578600Y-5495998D01*
X18585302Y-5493820D01*
X18585304Y-5493820D01*
X18744409Y-5442124D01*
X18744412Y-5442123D01*
X18751108Y-5439947D01*
X18906912Y-5347069D01*
X19038266Y-5221982D01*
X19138643Y-5070902D01*
X19203055Y-4901338D01*
X19204035Y-4894366D01*
X19227748Y-4725639D01*
X19227748Y-4725636D01*
X19228299Y-4721717D01*
X19228616Y-4699000D01*
X19208397Y-4518745D01*
X19206080Y-4512091D01*
X19151064Y-4354106D01*
X19151062Y-4354103D01*
X19148745Y-4347448D01*
X19137437Y-4329351D01*
X19056359Y-4199598D01*
X19052626Y-4193624D01*
X19029067Y-4169900D01*
X18929778Y-4069915D01*
X18929774Y-4069912D01*
X18924815Y-4064918D01*
X18913697Y-4057862D01*
X18777616Y-3971503D01*
X18771666Y-3967727D01*
X18765590Y-3965564D01*
X18713307Y-3917881D01*
X18695042Y-3849274D01*
X18716768Y-3781683D01*
X18732061Y-3763224D01*
X18805300Y-3690240D01*
X18818096Y-3677489D01*
X18877594Y-3594689D01*
X18948453Y-3496077D01*
X18949776Y-3497028D01*
X18996645Y-3453857D01*
X19066580Y-3441625D01*
X19132026Y-3469144D01*
X19159875Y-3500994D01*
X19219987Y-3599088D01*
X19366250Y-3767938D01*
X19538126Y-3910632D01*
X19731000Y-4023338D01*
X19735825Y-4025180D01*
X19735826Y-4025181D01*
X19769930Y-4038204D01*
X19939692Y-4103030D01*
X19944760Y-4104061D01*
X19944763Y-4104062D01*
X20052017Y-4125883D01*
X20158597Y-4147567D01*
X20163772Y-4147757D01*
X20163774Y-4147757D01*
X20376673Y-4155564D01*
X20376677Y-4155564D01*
X20381837Y-4155753D01*
X20386957Y-4155097D01*
X20386959Y-4155097D01*
X20598288Y-4128025D01*
X20598289Y-4128025D01*
X20603416Y-4127368D01*
X20651420Y-4112966D01*
X20812429Y-4064661D01*
X20812434Y-4064659D01*
X20817384Y-4063174D01*
X21017994Y-3964896D01*
X21199860Y-3835173D01*
X21308091Y-3727319D01*
X21370462Y-3693404D01*
X21441268Y-3698592D01*
X21498030Y-3741238D01*
X21515012Y-3772341D01*
X21545449Y-3853531D01*
X21559385Y-3890705D01*
X21646739Y-4007261D01*
X21763295Y-4094615D01*
X21899684Y-4145745D01*
X21955560Y-4151815D01*
X21957899Y-4152069D01*
X21961866Y-4152500D01*
X23758134Y-4152500D01*
X23762102Y-4152069D01*
X23764440Y-4151815D01*
X23820316Y-4145745D01*
X23956705Y-4094615D01*
X24073261Y-4007261D01*
X24160615Y-3890705D01*
X24211745Y-3754316D01*
X24218500Y-3692134D01*
X24218500Y-1895866D01*
X24211745Y-1833684D01*
X24160615Y-1697295D01*
X24073261Y-1580739D01*
X23956705Y-1493385D01*
X23820316Y-1442255D01*
X23758134Y-1435500D01*
X21961866Y-1435500D01*
X21899684Y-1442255D01*
X21763295Y-1493385D01*
X21646739Y-1580739D01*
X21559385Y-1697295D01*
X21556233Y-1705703D01*
X21514919Y-1815907D01*
X21472277Y-1872671D01*
X21405716Y-1897371D01*
X21336367Y-1882163D01*
X21303743Y-1856476D01*
X21253151Y-1800875D01*
X21253142Y-1800866D01*
X21249670Y-1797051D01*
X21245619Y-1793852D01*
X21245615Y-1793848D01*
X21078414Y-1661800D01*
X21078410Y-1661798D01*
X21074359Y-1658598D01*
X20878789Y-1550638D01*
X20873920Y-1548914D01*
X20873916Y-1548912D01*
X20673087Y-1477795D01*
X20673083Y-1477794D01*
X20668212Y-1476069D01*
X20663119Y-1475162D01*
X20663116Y-1475161D01*
X20453373Y-1437800D01*
X20453367Y-1437799D01*
X20448284Y-1436894D01*
X20374452Y-1435992D01*
X20230081Y-1434228D01*
X20230079Y-1434228D01*
X20224911Y-1434165D01*
X20004091Y-1467955D01*
X19791756Y-1537357D01*
X19593607Y-1640507D01*
X19589474Y-1643610D01*
X19589471Y-1643612D01*
X19419100Y-1771530D01*
X19414965Y-1774635D01*
X19375525Y-1815907D01*
X19321280Y-1872671D01*
X19260629Y-1936138D01*
X19153201Y-2093621D01*
X19098293Y-2138621D01*
X19027768Y-2146792D01*
X18964021Y-2115538D01*
X18943324Y-2091054D01*
X18862822Y-1966617D01*
X18862820Y-1966614D01*
X18860014Y-1962277D01*
X18709670Y-1797051D01*
X18705619Y-1793852D01*
X18705615Y-1793848D01*
X18538414Y-1661800D01*
X18538410Y-1661798D01*
X18534359Y-1658598D01*
X18338789Y-1550638D01*
X18333920Y-1548914D01*
X18333916Y-1548912D01*
X18133087Y-1477795D01*
X18133083Y-1477794D01*
X18128212Y-1476069D01*
X18123119Y-1475162D01*
X18123116Y-1475161D01*
X17913373Y-1437800D01*
X17913367Y-1437799D01*
X17908284Y-1436894D01*
X17834452Y-1435992D01*
X17690081Y-1434228D01*
X17690079Y-1434228D01*
X17684911Y-1434165D01*
X17464091Y-1467955D01*
X17251756Y-1537357D01*
X17053607Y-1640507D01*
X17049474Y-1643610D01*
X17049471Y-1643612D01*
X16879100Y-1771530D01*
X16874965Y-1774635D01*
X16835525Y-1815907D01*
X16781280Y-1872671D01*
X16720629Y-1936138D01*
X16613201Y-2093621D01*
X16558293Y-2138621D01*
X16487768Y-2146792D01*
X16424021Y-2115538D01*
X16403324Y-2091054D01*
X16322822Y-1966617D01*
X16322820Y-1966614D01*
X16320014Y-1962277D01*
X16169670Y-1797051D01*
X16165619Y-1793852D01*
X16165615Y-1793848D01*
X15998414Y-1661800D01*
X15998410Y-1661798D01*
X15994359Y-1658598D01*
X15798789Y-1550638D01*
X15793920Y-1548914D01*
X15793916Y-1548912D01*
X15593087Y-1477795D01*
X15593083Y-1477794D01*
X15588212Y-1476069D01*
X15583119Y-1475162D01*
X15583116Y-1475161D01*
X15373373Y-1437800D01*
X15373367Y-1437799D01*
X15368284Y-1436894D01*
X15294452Y-1435992D01*
X15150081Y-1434228D01*
X15150079Y-1434228D01*
X15144911Y-1434165D01*
X14924091Y-1467955D01*
X14711756Y-1537357D01*
X14513607Y-1640507D01*
X14509474Y-1643610D01*
X14509471Y-1643612D01*
X14339100Y-1771530D01*
X14334965Y-1774635D01*
X14295525Y-1815907D01*
X14241280Y-1872671D01*
X14180629Y-1936138D01*
X14177720Y-1940403D01*
X14177714Y-1940411D01*
X14112908Y-2035413D01*
X14054743Y-2120680D01*
X14035741Y-2161616D01*
X13965501Y-2312937D01*
X13960688Y-2323305D01*
X13900989Y-2538570D01*
X13877251Y-2760695D01*
X13877548Y-2765848D01*
X13877548Y-2765851D01*
X13887498Y-2938407D01*
X13890110Y-2983715D01*
X13891247Y-2988761D01*
X13891248Y-2988767D01*
X13893777Y-2999988D01*
X13939222Y-3201639D01*
X14023266Y-3408616D01*
X14060685Y-3469678D01*
X14137291Y-3594688D01*
X14139987Y-3599088D01*
X14143367Y-3602990D01*
X14229933Y-3702924D01*
X14259416Y-3767510D01*
X14249301Y-3837782D01*
X14202800Y-3891431D01*
X14175301Y-3904700D01*
X14004579Y-3962818D01*
X13996600Y-3967727D01*
X13856095Y-4054166D01*
X13856092Y-4054168D01*
X13850088Y-4057862D01*
X13845053Y-4062793D01*
X13845050Y-4062795D01*
X13725525Y-4179843D01*
X13720493Y-4184771D01*
X13622235Y-4337238D01*
X13619826Y-4343858D01*
X13619824Y-4343861D01*
X13562606Y-4501066D01*
X13560197Y-4507685D01*
X13537463Y-4687640D01*
X11698632Y-4687640D01*
X11700181Y-4652165D01*
X11679768Y-4392796D01*
X11674775Y-4329351D01*
X11674775Y-4329348D01*
X11674473Y-4325516D01*
X11609149Y-4004436D01*
X11529875Y-3767510D01*
X11506401Y-3697354D01*
X11506399Y-3697348D01*
X11505181Y-3693709D01*
X11364121Y-3397970D01*
X11188070Y-3121625D01*
X11087800Y-2999988D01*
X10982096Y-2871759D01*
X10982092Y-2871755D01*
X10979653Y-2868796D01*
X10741978Y-2643251D01*
X10478588Y-2448352D01*
X10272120Y-2331538D01*
X10196765Y-2288904D01*
X10196761Y-2288902D01*
X10193408Y-2287005D01*
X10135209Y-2262898D01*
X10042314Y-2224420D01*
X9890691Y-2161616D01*
X9737564Y-2119150D01*
X9578666Y-2075083D01*
X9578658Y-2075081D01*
X9574950Y-2074053D01*
X9250890Y-2025622D01*
X9247592Y-2025478D01*
X9134955Y-2020560D01*
X9134951Y-2020560D01*
X9133579Y-2020500D01*
X8933779Y-2020500D01*
X8689953Y-2035413D01*
X8686170Y-2036114D01*
X8686163Y-2036115D01*
X8548585Y-2061614D01*
X8367781Y-2095124D01*
X8286728Y-2120680D01*
X8058955Y-2192496D01*
X8058948Y-2192499D01*
X8055287Y-2193653D01*
X7962677Y-2235858D01*
X7760628Y-2327937D01*
X7760624Y-2327939D01*
X7757131Y-2329531D01*
X7753862Y-2331535D01*
X7753855Y-2331538D01*
X7481034Y-2498723D01*
X7477756Y-2500732D01*
X7474752Y-2503122D01*
X7474747Y-2503125D01*
X7261598Y-2672672D01*
X7221328Y-2704704D01*
X7218636Y-2707443D01*
X7218632Y-2707447D01*
X7171350Y-2755562D01*
X6991669Y-2938407D01*
X6989324Y-2941463D01*
X6803965Y-3183028D01*
X6792203Y-3198356D01*
X6625904Y-3480676D01*
X6575114Y-3597484D01*
X6500729Y-3768558D01*
X6495250Y-3781158D01*
X6402190Y-4095324D01*
X6348111Y-4418488D01*
X6333819Y-4745835D01*
X5803500Y-4745835D01*
X5803500Y-3668866D01*
X5796745Y-3606684D01*
X5745615Y-3470295D01*
X5658261Y-3353739D01*
X5541705Y-3266385D01*
X5405316Y-3215255D01*
X5343134Y-3208500D01*
X4472699Y-3208500D01*
X4404578Y-3188498D01*
X4358085Y-3134842D01*
X4347981Y-3064568D01*
X4377475Y-2999988D01*
X4383604Y-2993405D01*
X4393285Y-2983724D01*
X4469786Y-2881649D01*
X4478324Y-2866054D01*
X4523478Y-2745606D01*
X4527105Y-2730351D01*
X4532631Y-2679486D01*
X4533000Y-2672672D01*
X4533000Y-2050115D01*
X4528525Y-2034876D01*
X4527135Y-2033671D01*
X4519452Y-2032000D01*
X3447115Y-2032000D01*
X3431876Y-2036475D01*
X3430671Y-2037865D01*
X3429000Y-2045548D01*
X3429000Y-3135999D01*
X3427283Y-3135999D01*
X3427284Y-3183028D01*
X3388902Y-3242755D01*
X3363869Y-3257634D01*
X3364575Y-3258923D01*
X3356703Y-3263233D01*
X3348295Y-3266385D01*
X3231739Y-3353739D01*
X3144385Y-3470295D01*
X3093255Y-3606684D01*
X3086500Y-3668866D01*
X3086500Y-5465134D01*
X3093255Y-5527316D01*
X3144385Y-5663705D01*
X3231739Y-5780261D01*
X3348295Y-5867615D01*
X3356704Y-5870767D01*
X3356705Y-5870768D01*
X3465451Y-5911535D01*
X3522216Y-5954176D01*
X3546916Y-6020738D01*
X3531709Y-6090087D01*
X3512316Y-6116568D01*
X3430000Y-6202707D01*
X3385629Y-6249138D01*
X3382715Y-6253410D01*
X3382714Y-6253411D01*
X3364838Y-6279617D01*
X3259743Y-6433680D01*
X3244003Y-6467590D01*
X3182423Y-6600253D01*
X3165688Y-6636305D01*
X3105989Y-6851570D01*
X3082251Y-7073695D01*
X508000Y-7073695D01*
X508000Y-2672669D01*
X1817001Y-2672669D01*
X1817371Y-2679490D01*
X1822895Y-2730352D01*
X1826521Y-2745604D01*
X1871676Y-2866054D01*
X1880214Y-2881649D01*
X1956715Y-2983724D01*
X1969276Y-2996285D01*
X2071351Y-3072786D01*
X2086946Y-3081324D01*
X2207394Y-3126478D01*
X2222649Y-3130105D01*
X2273514Y-3135631D01*
X2280328Y-3136000D01*
X2902885Y-3136000D01*
X2918124Y-3131525D01*
X2919329Y-3130135D01*
X2921000Y-3122452D01*
X2921000Y-2050115D01*
X2916525Y-2034876D01*
X2915135Y-2033671D01*
X2907452Y-2032000D01*
X1835116Y-2032000D01*
X1819877Y-2036475D01*
X1818672Y-2037865D01*
X1817001Y-2045548D01*
X1817001Y-2672669D01*
X508000Y-2672669D01*
X508000Y-634000D01*
X528002Y-565879D01*
X581658Y-519386D01*
X634000Y-508000D01*
X1758657Y-508000D01*
X1826778Y-528002D01*
X1873271Y-581658D01*
X1883375Y-651932D01*
X1873650Y-681096D01*
X1874828Y-681538D01*
X1826522Y-810394D01*
X1822895Y-825649D01*
X1817369Y-876514D01*
X1817000Y-883328D01*
X1817000Y-1505885D01*
X1821475Y-1521124D01*
X1822865Y-1522329D01*
X1830548Y-1524000D01*
X4514884Y-1524000D01*
X4530123Y-1519525D01*
X4531328Y-1518135D01*
X4532999Y-1510452D01*
X4532999Y-883331D01*
X4532629Y-876510D01*
X4527105Y-825648D01*
X4523479Y-810396D01*
X4475172Y-681538D01*
X4477772Y-680563D01*
X4465654Y-625149D01*
X4490392Y-558601D01*
X4547182Y-515993D01*
X4591343Y-508000D01*
X20311298Y-508000D01*
X20312069Y-508002D01*
X20389652Y-508476D01*
X20398281Y-506010D01*
X20398286Y-506009D01*
X20418048Y-500361D01*
X20434809Y-496783D01*
X20455152Y-493870D01*
X20455162Y-493867D01*
X20464045Y-492595D01*
X20487395Y-481979D01*
X20504907Y-475536D01*
X20520937Y-470954D01*
X20529565Y-468488D01*
X20554548Y-452726D01*
X20569614Y-444596D01*
X20596510Y-432367D01*
X20615939Y-415626D01*
X20630947Y-404521D01*
X20645039Y-395630D01*
X20652631Y-390840D01*
X20672182Y-368703D01*
X20684374Y-356659D01*
X20699949Y-343239D01*
X20699950Y-343237D01*
X20706747Y-337381D01*
X20711626Y-329853D01*
X20711629Y-329850D01*
X20720696Y-315861D01*
X20731986Y-300987D01*
X20743012Y-288502D01*
X20748956Y-281772D01*
X20761510Y-255034D01*
X20769824Y-240065D01*
X20785893Y-215273D01*
X20793239Y-190709D01*
X20799901Y-173264D01*
X20806983Y-158179D01*
X20810799Y-150052D01*
X20815343Y-120870D01*
X20819127Y-104146D01*
X20823391Y-89891D01*
X20862076Y-30360D01*
X20926805Y-1193D01*
X20944106Y0D01*
X31370000Y0D01*
X31438121Y-20002D01*
G37*
%TD.AperFunction*%
%TD*%
%TA.AperFunction,Conductor*%
%TO.N,GNDREF*%
G36*
X4895121Y-18689002D02*
G01*
X4941614Y-18742658D01*
X4953000Y-18795000D01*
X4953000Y-24639000D01*
X4932998Y-24707121D01*
X4879342Y-24753614D01*
X4827000Y-24765000D01*
X-1144000Y-24765000D01*
X-1212121Y-24744998D01*
X-1258614Y-24691342D01*
X-1270000Y-24639000D01*
X-1270000Y-18795000D01*
X-1249998Y-18726879D01*
X-1196342Y-18680386D01*
X-1144000Y-18669000D01*
X4827000Y-18669000D01*
X4895121Y-18689002D01*
G37*
%TD.AperFunction*%
%TD*%
M02*
